<?xml version="1.0" encoding="utf-8" standalone="no"?>
<!DOCTYPE svg PUBLIC "-//W3C//DTD SVG 1.1//EN"
  "http://www.w3.org/Graphics/SVG/1.1/DTD/svg11.dtd">
<svg xmlns:xlink="http://www.w3.org/1999/xlink" width="1000.408125pt" height="390.356525pt" viewBox="0 0 1000.408125 390.356525" xmlns="http://www.w3.org/2000/svg" version="1.1">
 <metadata>
  <rdf:RDF xmlns:dc="http://purl.org/dc/elements/1.1/" xmlns:cc="http://creativecommons.org/ns#" xmlns:rdf="http://www.w3.org/1999/02/22-rdf-syntax-ns#">
   <cc:Work>
    <dc:type rdf:resource="http://purl.org/dc/dcmitype/StillImage"/>
    <dc:date>2024-09-19T15:05:36.581478</dc:date>
    <dc:format>image/svg+xml</dc:format>
    <dc:creator>
     <cc:Agent>
      <dc:title>Matplotlib v3.9.2, https://matplotlib.org/</dc:title>
     </cc:Agent>
    </dc:creator>
   </cc:Work>
  </rdf:RDF>
 </metadata>
 <defs>
  <style type="text/css">*{stroke-linejoin: round; stroke-linecap: butt}</style>
 </defs>
 <g id="figure_1">
  <g id="axes_1">
   <g id="patch_1">
    <path d="M 38.058125 354.7359 
L 993.208125 354.7359 
L 993.208125 35.3279 
L 38.058125 35.3279 
z
" style="fill: #ffffff"/>
   </g>
   <g id="patch_2">
    <path d="M 38.058125 -94.65116 
L 972.056785 -94.65116 
L 972.056785 -1892.1994 
L 38.058125 -1892.1994 
z
" clip-path="url(#p01548b37bb)" style="fill: #e6c3c3"/>
   </g>
   <g id="patch_3">
    <path d="M 38.058125 242.389135 
L 972.056785 242.389135 
L 972.056785 -94.65116 
L 38.058125 -94.65116 
z
" clip-path="url(#p01548b37bb)" style="fill: #e6dcc3"/>
   </g>
   <g id="patch_4">
    <path d="M 38.058125 354.7359 
L 972.056785 354.7359 
L 972.056785 242.389135 
L 38.058125 242.389135 
z
" clip-path="url(#p01548b37bb)" style="fill: #c3e6c3"/>
   </g>
   <g id="matplotlib.axis_1">
    <g id="xtick_1">
     <g id="text_1">
      <!-- 0 -->
      <g transform="translate(56.664465 367.81465) scale(0.08 -0.08)">
       <defs>
        <path id="DejaVuSans-30" d="M 2034 4250 
Q 1547 4250 1301 3770 
Q 1056 3291 1056 2328 
Q 1056 1369 1301 889 
Q 1547 409 2034 409 
Q 2525 409 2770 889 
Q 3016 1369 3016 2328 
Q 3016 3291 2770 3770 
Q 2525 4250 2034 4250 
z
M 2034 4750 
Q 2819 4750 3233 4129 
Q 3647 3509 3647 2328 
Q 3647 1150 3233 529 
Q 2819 -91 2034 -91 
Q 1250 -91 836 529 
Q 422 1150 422 2328 
Q 422 3509 836 4129 
Q 1250 4750 2034 4750 
z
" transform="scale(0.015625)"/>
       </defs>
       <use xlink:href="#DejaVuSans-30"/>
      </g>
     </g>
    </g>
    <g id="xtick_2">
     <g id="text_2">
      <!-- 5 -->
      <g transform="translate(167.987309 367.81465) scale(0.08 -0.08)">
       <defs>
        <path id="DejaVuSans-35" d="M 691 4666 
L 3169 4666 
L 3169 4134 
L 1269 4134 
L 1269 2991 
Q 1406 3038 1543 3061 
Q 1681 3084 1819 3084 
Q 2600 3084 3056 2656 
Q 3513 2228 3513 1497 
Q 3513 744 3044 326 
Q 2575 -91 1722 -91 
Q 1428 -91 1123 -41 
Q 819 9 494 109 
L 494 744 
Q 775 591 1075 516 
Q 1375 441 1709 441 
Q 2250 441 2565 725 
Q 2881 1009 2881 1497 
Q 2881 1984 2565 2268 
Q 2250 2553 1709 2553 
Q 1456 2553 1204 2497 
Q 953 2441 691 2322 
L 691 4666 
z
" transform="scale(0.015625)"/>
       </defs>
       <use xlink:href="#DejaVuSans-35"/>
      </g>
     </g>
    </g>
    <g id="xtick_3">
     <g id="text_3">
      <!-- 10 -->
      <g transform="translate(276.765153 367.81465) scale(0.08 -0.08)">
       <defs>
        <path id="DejaVuSans-31" d="M 794 531 
L 1825 531 
L 1825 4091 
L 703 3866 
L 703 4441 
L 1819 4666 
L 2450 4666 
L 2450 531 
L 3481 531 
L 3481 0 
L 794 0 
L 794 531 
z
" transform="scale(0.015625)"/>
       </defs>
       <use xlink:href="#DejaVuSans-31"/>
       <use xlink:href="#DejaVuSans-30" x="63.623047"/>
      </g>
     </g>
    </g>
    <g id="xtick_4">
     <g id="text_4">
      <!-- 15 -->
      <g transform="translate(388.087997 367.81465) scale(0.08 -0.08)">
       <use xlink:href="#DejaVuSans-31"/>
       <use xlink:href="#DejaVuSans-35" x="63.623047"/>
      </g>
     </g>
    </g>
    <g id="xtick_5">
     <g id="text_5">
      <!-- 20 -->
      <g transform="translate(499.410841 367.81465) scale(0.08 -0.08)">
       <defs>
        <path id="DejaVuSans-32" d="M 1228 531 
L 3431 531 
L 3431 0 
L 469 0 
L 469 531 
Q 828 903 1448 1529 
Q 2069 2156 2228 2338 
Q 2531 2678 2651 2914 
Q 2772 3150 2772 3378 
Q 2772 3750 2511 3984 
Q 2250 4219 1831 4219 
Q 1534 4219 1204 4116 
Q 875 4013 500 3803 
L 500 4441 
Q 881 4594 1212 4672 
Q 1544 4750 1819 4750 
Q 2544 4750 2975 4387 
Q 3406 4025 3406 3419 
Q 3406 3131 3298 2873 
Q 3191 2616 2906 2266 
Q 2828 2175 2409 1742 
Q 1991 1309 1228 531 
z
" transform="scale(0.015625)"/>
       </defs>
       <use xlink:href="#DejaVuSans-32"/>
       <use xlink:href="#DejaVuSans-30" x="63.623047"/>
      </g>
     </g>
    </g>
    <g id="xtick_6">
     <g id="text_6">
      <!-- 25 -->
      <g transform="translate(610.733684 367.81465) scale(0.08 -0.08)">
       <use xlink:href="#DejaVuSans-32"/>
       <use xlink:href="#DejaVuSans-35" x="63.623047"/>
      </g>
     </g>
    </g>
    <g id="xtick_7">
     <g id="text_7">
      <!-- 30 -->
      <g transform="translate(722.056528 367.81465) scale(0.08 -0.08)">
       <defs>
        <path id="DejaVuSans-33" d="M 2597 2516 
Q 3050 2419 3304 2112 
Q 3559 1806 3559 1356 
Q 3559 666 3084 287 
Q 2609 -91 1734 -91 
Q 1441 -91 1130 -33 
Q 819 25 488 141 
L 488 750 
Q 750 597 1062 519 
Q 1375 441 1716 441 
Q 2309 441 2620 675 
Q 2931 909 2931 1356 
Q 2931 1769 2642 2001 
Q 2353 2234 1838 2234 
L 1294 2234 
L 1294 2753 
L 1863 2753 
Q 2328 2753 2575 2939 
Q 2822 3125 2822 3475 
Q 2822 3834 2567 4026 
Q 2313 4219 1838 4219 
Q 1578 4219 1281 4162 
Q 984 4106 628 3988 
L 628 4550 
Q 988 4650 1302 4700 
Q 1616 4750 1894 4750 
Q 2613 4750 3031 4423 
Q 3450 4097 3450 3541 
Q 3450 3153 3228 2886 
Q 3006 2619 2597 2516 
z
" transform="scale(0.015625)"/>
       </defs>
       <use xlink:href="#DejaVuSans-33"/>
       <use xlink:href="#DejaVuSans-30" x="63.623047"/>
      </g>
     </g>
    </g>
    <g id="xtick_8">
     <g id="text_8">
      <!-- 35 -->
      <g transform="translate(833.379372 367.81465) scale(0.08 -0.08)">
       <use xlink:href="#DejaVuSans-33"/>
       <use xlink:href="#DejaVuSans-35" x="63.623047"/>
      </g>
     </g>
    </g>
    <g id="xtick_9">
     <g id="text_9">
      <!-- 40 -->
      <g transform="translate(944.702216 367.81465) scale(0.08 -0.08)">
       <defs>
        <path id="DejaVuSans-34" d="M 2419 4116 
L 825 1625 
L 2419 1625 
L 2419 4116 
z
M 2253 4666 
L 3047 4666 
L 3047 1625 
L 3713 1625 
L 3713 1100 
L 3047 1100 
L 3047 0 
L 2419 0 
L 2419 1100 
L 313 1100 
L 313 1709 
L 2253 4666 
z
" transform="scale(0.015625)"/>
       </defs>
       <use xlink:href="#DejaVuSans-34"/>
       <use xlink:href="#DejaVuSans-30" x="63.623047"/>
      </g>
     </g>
    </g>
    <g id="text_10">
     <!-- Position (bp) -->
     <g transform="translate(484.33 381.076838) scale(0.1 -0.1)">
      <defs>
       <path id="DejaVuSans-50" d="M 1259 4147 
L 1259 2394 
L 2053 2394 
Q 2494 2394 2734 2622 
Q 2975 2850 2975 3272 
Q 2975 3691 2734 3919 
Q 2494 4147 2053 4147 
L 1259 4147 
z
M 628 4666 
L 2053 4666 
Q 2838 4666 3239 4311 
Q 3641 3956 3641 3272 
Q 3641 2581 3239 2228 
Q 2838 1875 2053 1875 
L 1259 1875 
L 1259 0 
L 628 0 
L 628 4666 
z
" transform="scale(0.015625)"/>
       <path id="DejaVuSans-6f" d="M 1959 3097 
Q 1497 3097 1228 2736 
Q 959 2375 959 1747 
Q 959 1119 1226 758 
Q 1494 397 1959 397 
Q 2419 397 2687 759 
Q 2956 1122 2956 1747 
Q 2956 2369 2687 2733 
Q 2419 3097 1959 3097 
z
M 1959 3584 
Q 2709 3584 3137 3096 
Q 3566 2609 3566 1747 
Q 3566 888 3137 398 
Q 2709 -91 1959 -91 
Q 1206 -91 779 398 
Q 353 888 353 1747 
Q 353 2609 779 3096 
Q 1206 3584 1959 3584 
z
" transform="scale(0.015625)"/>
       <path id="DejaVuSans-73" d="M 2834 3397 
L 2834 2853 
Q 2591 2978 2328 3040 
Q 2066 3103 1784 3103 
Q 1356 3103 1142 2972 
Q 928 2841 928 2578 
Q 928 2378 1081 2264 
Q 1234 2150 1697 2047 
L 1894 2003 
Q 2506 1872 2764 1633 
Q 3022 1394 3022 966 
Q 3022 478 2636 193 
Q 2250 -91 1575 -91 
Q 1294 -91 989 -36 
Q 684 19 347 128 
L 347 722 
Q 666 556 975 473 
Q 1284 391 1588 391 
Q 1994 391 2212 530 
Q 2431 669 2431 922 
Q 2431 1156 2273 1281 
Q 2116 1406 1581 1522 
L 1381 1569 
Q 847 1681 609 1914 
Q 372 2147 372 2553 
Q 372 3047 722 3315 
Q 1072 3584 1716 3584 
Q 2034 3584 2315 3537 
Q 2597 3491 2834 3397 
z
" transform="scale(0.015625)"/>
       <path id="DejaVuSans-69" d="M 603 3500 
L 1178 3500 
L 1178 0 
L 603 0 
L 603 3500 
z
M 603 4863 
L 1178 4863 
L 1178 4134 
L 603 4134 
L 603 4863 
z
" transform="scale(0.015625)"/>
       <path id="DejaVuSans-74" d="M 1172 4494 
L 1172 3500 
L 2356 3500 
L 2356 3053 
L 1172 3053 
L 1172 1153 
Q 1172 725 1289 603 
Q 1406 481 1766 481 
L 2356 481 
L 2356 0 
L 1766 0 
Q 1100 0 847 248 
Q 594 497 594 1153 
L 594 3053 
L 172 3053 
L 172 3500 
L 594 3500 
L 594 4494 
L 1172 4494 
z
" transform="scale(0.015625)"/>
       <path id="DejaVuSans-6e" d="M 3513 2113 
L 3513 0 
L 2938 0 
L 2938 2094 
Q 2938 2591 2744 2837 
Q 2550 3084 2163 3084 
Q 1697 3084 1428 2787 
Q 1159 2491 1159 1978 
L 1159 0 
L 581 0 
L 581 3500 
L 1159 3500 
L 1159 2956 
Q 1366 3272 1645 3428 
Q 1925 3584 2291 3584 
Q 2894 3584 3203 3211 
Q 3513 2838 3513 2113 
z
" transform="scale(0.015625)"/>
       <path id="DejaVuSans-20" transform="scale(0.015625)"/>
       <path id="DejaVuSans-28" d="M 1984 4856 
Q 1566 4138 1362 3434 
Q 1159 2731 1159 2009 
Q 1159 1288 1364 580 
Q 1569 -128 1984 -844 
L 1484 -844 
Q 1016 -109 783 600 
Q 550 1309 550 2009 
Q 550 2706 781 3412 
Q 1013 4119 1484 4856 
L 1984 4856 
z
" transform="scale(0.015625)"/>
       <path id="DejaVuSans-62" d="M 3116 1747 
Q 3116 2381 2855 2742 
Q 2594 3103 2138 3103 
Q 1681 3103 1420 2742 
Q 1159 2381 1159 1747 
Q 1159 1113 1420 752 
Q 1681 391 2138 391 
Q 2594 391 2855 752 
Q 3116 1113 3116 1747 
z
M 1159 2969 
Q 1341 3281 1617 3432 
Q 1894 3584 2278 3584 
Q 2916 3584 3314 3078 
Q 3713 2572 3713 1747 
Q 3713 922 3314 415 
Q 2916 -91 2278 -91 
Q 1894 -91 1617 61 
Q 1341 213 1159 525 
L 1159 0 
L 581 0 
L 581 4863 
L 1159 4863 
L 1159 2969 
z
" transform="scale(0.015625)"/>
       <path id="DejaVuSans-70" d="M 1159 525 
L 1159 -1331 
L 581 -1331 
L 581 3500 
L 1159 3500 
L 1159 2969 
Q 1341 3281 1617 3432 
Q 1894 3584 2278 3584 
Q 2916 3584 3314 3078 
Q 3713 2572 3713 1747 
Q 3713 922 3314 415 
Q 2916 -91 2278 -91 
Q 1894 -91 1617 61 
Q 1341 213 1159 525 
z
M 3116 1747 
Q 3116 2381 2855 2742 
Q 2594 3103 2138 3103 
Q 1681 3103 1420 2742 
Q 1159 2381 1159 1747 
Q 1159 1113 1420 752 
Q 1681 391 2138 391 
Q 2594 391 2855 752 
Q 3116 1113 3116 1747 
z
" transform="scale(0.015625)"/>
       <path id="DejaVuSans-29" d="M 513 4856 
L 1013 4856 
Q 1481 4119 1714 3412 
Q 1947 2706 1947 2009 
Q 1947 1309 1714 600 
Q 1481 -109 1013 -844 
L 513 -844 
Q 928 -128 1133 580 
Q 1338 1288 1338 2009 
Q 1338 2731 1133 3434 
Q 928 4138 513 4856 
z
" transform="scale(0.015625)"/>
      </defs>
      <use xlink:href="#DejaVuSans-50"/>
      <use xlink:href="#DejaVuSans-6f" x="56.677734"/>
      <use xlink:href="#DejaVuSans-73" x="117.859375"/>
      <use xlink:href="#DejaVuSans-69" x="169.958984"/>
      <use xlink:href="#DejaVuSans-74" x="197.742188"/>
      <use xlink:href="#DejaVuSans-69" x="236.951172"/>
      <use xlink:href="#DejaVuSans-6f" x="264.734375"/>
      <use xlink:href="#DejaVuSans-6e" x="325.916016"/>
      <use xlink:href="#DejaVuSans-20" x="389.294922"/>
      <use xlink:href="#DejaVuSans-28" x="421.082031"/>
      <use xlink:href="#DejaVuSans-62" x="460.095703"/>
      <use xlink:href="#DejaVuSans-70" x="523.572266"/>
      <use xlink:href="#DejaVuSans-29" x="587.048828"/>
     </g>
    </g>
   </g>
   <g id="matplotlib.axis_2">
    <g id="ytick_1">
     <g id="line2d_1">
      <path d="M 38.058125 354.7359 
L 993.208125 354.7359 
" clip-path="url(#p01548b37bb)" style="fill: none; stroke: #dedede; stroke-linecap: square"/>
     </g>
     <g id="text_11">
      <!-- 0 -->
      <g transform="translate(25.968125 357.775275) scale(0.08 -0.08)">
       <use xlink:href="#DejaVuSans-30"/>
      </g>
     </g>
    </g>
    <g id="ytick_2">
     <g id="line2d_2">
      <path d="M 38.058125 309.797194 
L 993.208125 309.797194 
" clip-path="url(#p01548b37bb)" style="fill: none; stroke: #dedede; stroke-linecap: square"/>
     </g>
     <g id="text_12">
      <!-- 2 -->
      <g transform="translate(25.968125 312.836569) scale(0.08 -0.08)">
       <use xlink:href="#DejaVuSans-32"/>
      </g>
     </g>
    </g>
    <g id="ytick_3">
     <g id="line2d_3">
      <path d="M 38.058125 264.858488 
L 993.208125 264.858488 
" clip-path="url(#p01548b37bb)" style="fill: none; stroke: #dedede; stroke-linecap: square"/>
     </g>
     <g id="text_13">
      <!-- 4 -->
      <g transform="translate(25.968125 267.897863) scale(0.08 -0.08)">
       <use xlink:href="#DejaVuSans-34"/>
      </g>
     </g>
    </g>
    <g id="ytick_4">
     <g id="line2d_4">
      <path d="M 38.058125 219.919782 
L 993.208125 219.919782 
" clip-path="url(#p01548b37bb)" style="fill: none; stroke: #dedede; stroke-linecap: square"/>
     </g>
     <g id="text_14">
      <!-- 6 -->
      <g transform="translate(25.968125 222.959157) scale(0.08 -0.08)">
       <defs>
        <path id="DejaVuSans-36" d="M 2113 2584 
Q 1688 2584 1439 2293 
Q 1191 2003 1191 1497 
Q 1191 994 1439 701 
Q 1688 409 2113 409 
Q 2538 409 2786 701 
Q 3034 994 3034 1497 
Q 3034 2003 2786 2293 
Q 2538 2584 2113 2584 
z
M 3366 4563 
L 3366 3988 
Q 3128 4100 2886 4159 
Q 2644 4219 2406 4219 
Q 1781 4219 1451 3797 
Q 1122 3375 1075 2522 
Q 1259 2794 1537 2939 
Q 1816 3084 2150 3084 
Q 2853 3084 3261 2657 
Q 3669 2231 3669 1497 
Q 3669 778 3244 343 
Q 2819 -91 2113 -91 
Q 1303 -91 875 529 
Q 447 1150 447 2328 
Q 447 3434 972 4092 
Q 1497 4750 2381 4750 
Q 2619 4750 2861 4703 
Q 3103 4656 3366 4563 
z
" transform="scale(0.015625)"/>
       </defs>
       <use xlink:href="#DejaVuSans-36"/>
      </g>
     </g>
    </g>
    <g id="ytick_5">
     <g id="line2d_5">
      <path d="M 38.058125 174.981076 
L 993.208125 174.981076 
" clip-path="url(#p01548b37bb)" style="fill: none; stroke: #dedede; stroke-linecap: square"/>
     </g>
     <g id="text_15">
      <!-- 8 -->
      <g transform="translate(25.968125 178.020451) scale(0.08 -0.08)">
       <defs>
        <path id="DejaVuSans-38" d="M 2034 2216 
Q 1584 2216 1326 1975 
Q 1069 1734 1069 1313 
Q 1069 891 1326 650 
Q 1584 409 2034 409 
Q 2484 409 2743 651 
Q 3003 894 3003 1313 
Q 3003 1734 2745 1975 
Q 2488 2216 2034 2216 
z
M 1403 2484 
Q 997 2584 770 2862 
Q 544 3141 544 3541 
Q 544 4100 942 4425 
Q 1341 4750 2034 4750 
Q 2731 4750 3128 4425 
Q 3525 4100 3525 3541 
Q 3525 3141 3298 2862 
Q 3072 2584 2669 2484 
Q 3125 2378 3379 2068 
Q 3634 1759 3634 1313 
Q 3634 634 3220 271 
Q 2806 -91 2034 -91 
Q 1263 -91 848 271 
Q 434 634 434 1313 
Q 434 1759 690 2068 
Q 947 2378 1403 2484 
z
M 1172 3481 
Q 1172 3119 1398 2916 
Q 1625 2713 2034 2713 
Q 2441 2713 2670 2916 
Q 2900 3119 2900 3481 
Q 2900 3844 2670 4047 
Q 2441 4250 2034 4250 
Q 1625 4250 1398 4047 
Q 1172 3844 1172 3481 
z
" transform="scale(0.015625)"/>
       </defs>
       <use xlink:href="#DejaVuSans-38"/>
      </g>
     </g>
    </g>
    <g id="ytick_6">
     <g id="line2d_6">
      <path d="M 38.058125 130.04237 
L 993.208125 130.04237 
" clip-path="url(#p01548b37bb)" style="fill: none; stroke: #dedede; stroke-linecap: square"/>
     </g>
     <g id="text_16">
      <!-- 10 -->
      <g transform="translate(20.878125 133.081745) scale(0.08 -0.08)">
       <use xlink:href="#DejaVuSans-31"/>
       <use xlink:href="#DejaVuSans-30" x="63.623047"/>
      </g>
     </g>
    </g>
    <g id="ytick_7">
     <g id="line2d_7">
      <path d="M 38.058125 85.103664 
L 993.208125 85.103664 
" clip-path="url(#p01548b37bb)" style="fill: none; stroke: #dedede; stroke-linecap: square"/>
     </g>
     <g id="text_17">
      <!-- 12 -->
      <g transform="translate(20.878125 88.143039) scale(0.08 -0.08)">
       <use xlink:href="#DejaVuSans-31"/>
       <use xlink:href="#DejaVuSans-32" x="63.623047"/>
      </g>
     </g>
    </g>
    <g id="ytick_8">
     <g id="line2d_8">
      <path d="M 38.058125 40.164958 
L 993.208125 40.164958 
" clip-path="url(#p01548b37bb)" style="fill: none; stroke: #dedede; stroke-linecap: square"/>
     </g>
     <g id="text_18">
      <!-- 14 -->
      <g transform="translate(20.878125 43.204333) scale(0.08 -0.08)">
       <use xlink:href="#DejaVuSans-31"/>
       <use xlink:href="#DejaVuSans-34" x="63.623047"/>
      </g>
     </g>
    </g>
    <g id="text_19">
     <!-- % of Sequences -->
     <g transform="translate(14.798438 235.049869) rotate(-90) scale(0.1 -0.1)">
      <defs>
       <path id="DejaVuSans-25" d="M 4653 2053 
Q 4381 2053 4226 1822 
Q 4072 1591 4072 1178 
Q 4072 772 4226 539 
Q 4381 306 4653 306 
Q 4919 306 5073 539 
Q 5228 772 5228 1178 
Q 5228 1588 5073 1820 
Q 4919 2053 4653 2053 
z
M 4653 2450 
Q 5147 2450 5437 2106 
Q 5728 1763 5728 1178 
Q 5728 594 5436 251 
Q 5144 -91 4653 -91 
Q 4153 -91 3862 251 
Q 3572 594 3572 1178 
Q 3572 1766 3864 2108 
Q 4156 2450 4653 2450 
z
M 1428 4353 
Q 1159 4353 1004 4120 
Q 850 3888 850 3481 
Q 850 3069 1003 2837 
Q 1156 2606 1428 2606 
Q 1700 2606 1854 2837 
Q 2009 3069 2009 3481 
Q 2009 3884 1853 4118 
Q 1697 4353 1428 4353 
z
M 4250 4750 
L 4750 4750 
L 1831 -91 
L 1331 -91 
L 4250 4750 
z
M 1428 4750 
Q 1922 4750 2215 4408 
Q 2509 4066 2509 3481 
Q 2509 2891 2217 2550 
Q 1925 2209 1428 2209 
Q 931 2209 642 2551 
Q 353 2894 353 3481 
Q 353 4063 643 4406 
Q 934 4750 1428 4750 
z
" transform="scale(0.015625)"/>
       <path id="DejaVuSans-66" d="M 2375 4863 
L 2375 4384 
L 1825 4384 
Q 1516 4384 1395 4259 
Q 1275 4134 1275 3809 
L 1275 3500 
L 2222 3500 
L 2222 3053 
L 1275 3053 
L 1275 0 
L 697 0 
L 697 3053 
L 147 3053 
L 147 3500 
L 697 3500 
L 697 3744 
Q 697 4328 969 4595 
Q 1241 4863 1831 4863 
L 2375 4863 
z
" transform="scale(0.015625)"/>
       <path id="DejaVuSans-53" d="M 3425 4513 
L 3425 3897 
Q 3066 4069 2747 4153 
Q 2428 4238 2131 4238 
Q 1616 4238 1336 4038 
Q 1056 3838 1056 3469 
Q 1056 3159 1242 3001 
Q 1428 2844 1947 2747 
L 2328 2669 
Q 3034 2534 3370 2195 
Q 3706 1856 3706 1288 
Q 3706 609 3251 259 
Q 2797 -91 1919 -91 
Q 1588 -91 1214 -16 
Q 841 59 441 206 
L 441 856 
Q 825 641 1194 531 
Q 1563 422 1919 422 
Q 2459 422 2753 634 
Q 3047 847 3047 1241 
Q 3047 1584 2836 1778 
Q 2625 1972 2144 2069 
L 1759 2144 
Q 1053 2284 737 2584 
Q 422 2884 422 3419 
Q 422 4038 858 4394 
Q 1294 4750 2059 4750 
Q 2388 4750 2728 4690 
Q 3069 4631 3425 4513 
z
" transform="scale(0.015625)"/>
       <path id="DejaVuSans-65" d="M 3597 1894 
L 3597 1613 
L 953 1613 
Q 991 1019 1311 708 
Q 1631 397 2203 397 
Q 2534 397 2845 478 
Q 3156 559 3463 722 
L 3463 178 
Q 3153 47 2828 -22 
Q 2503 -91 2169 -91 
Q 1331 -91 842 396 
Q 353 884 353 1716 
Q 353 2575 817 3079 
Q 1281 3584 2069 3584 
Q 2775 3584 3186 3129 
Q 3597 2675 3597 1894 
z
M 3022 2063 
Q 3016 2534 2758 2815 
Q 2500 3097 2075 3097 
Q 1594 3097 1305 2825 
Q 1016 2553 972 2059 
L 3022 2063 
z
" transform="scale(0.015625)"/>
       <path id="DejaVuSans-71" d="M 947 1747 
Q 947 1113 1208 752 
Q 1469 391 1925 391 
Q 2381 391 2643 752 
Q 2906 1113 2906 1747 
Q 2906 2381 2643 2742 
Q 2381 3103 1925 3103 
Q 1469 3103 1208 2742 
Q 947 2381 947 1747 
z
M 2906 525 
Q 2725 213 2448 61 
Q 2172 -91 1784 -91 
Q 1150 -91 751 415 
Q 353 922 353 1747 
Q 353 2572 751 3078 
Q 1150 3584 1784 3584 
Q 2172 3584 2448 3432 
Q 2725 3281 2906 2969 
L 2906 3500 
L 3481 3500 
L 3481 -1331 
L 2906 -1331 
L 2906 525 
z
" transform="scale(0.015625)"/>
       <path id="DejaVuSans-75" d="M 544 1381 
L 544 3500 
L 1119 3500 
L 1119 1403 
Q 1119 906 1312 657 
Q 1506 409 1894 409 
Q 2359 409 2629 706 
Q 2900 1003 2900 1516 
L 2900 3500 
L 3475 3500 
L 3475 0 
L 2900 0 
L 2900 538 
Q 2691 219 2414 64 
Q 2138 -91 1772 -91 
Q 1169 -91 856 284 
Q 544 659 544 1381 
z
M 1991 3584 
L 1991 3584 
z
" transform="scale(0.015625)"/>
       <path id="DejaVuSans-63" d="M 3122 3366 
L 3122 2828 
Q 2878 2963 2633 3030 
Q 2388 3097 2138 3097 
Q 1578 3097 1268 2742 
Q 959 2388 959 1747 
Q 959 1106 1268 751 
Q 1578 397 2138 397 
Q 2388 397 2633 464 
Q 2878 531 3122 666 
L 3122 134 
Q 2881 22 2623 -34 
Q 2366 -91 2075 -91 
Q 1284 -91 818 406 
Q 353 903 353 1747 
Q 353 2603 823 3093 
Q 1294 3584 2113 3584 
Q 2378 3584 2631 3529 
Q 2884 3475 3122 3366 
z
" transform="scale(0.015625)"/>
      </defs>
      <use xlink:href="#DejaVuSans-25"/>
      <use xlink:href="#DejaVuSans-20" x="95.019531"/>
      <use xlink:href="#DejaVuSans-6f" x="126.806641"/>
      <use xlink:href="#DejaVuSans-66" x="187.988281"/>
      <use xlink:href="#DejaVuSans-20" x="223.193359"/>
      <use xlink:href="#DejaVuSans-53" x="254.980469"/>
      <use xlink:href="#DejaVuSans-65" x="318.457031"/>
      <use xlink:href="#DejaVuSans-71" x="379.980469"/>
      <use xlink:href="#DejaVuSans-75" x="443.457031"/>
      <use xlink:href="#DejaVuSans-65" x="506.835938"/>
      <use xlink:href="#DejaVuSans-6e" x="568.359375"/>
      <use xlink:href="#DejaVuSans-63" x="631.738281"/>
      <use xlink:href="#DejaVuSans-65" x="686.71875"/>
      <use xlink:href="#DejaVuSans-73" x="748.242188"/>
     </g>
    </g>
   </g>
   <g id="line2d_9">
    <path d="M 81.474034 354.370041 
L 103.738603 354.337347 
L 126.003172 354.323395 
L 148.26774 354.295192 
L 170.532309 354.274115 
L 192.796878 354.220224 
L 215.061447 354.187171 
L 237.326015 354.063462 
L 259.590584 354.046217 
L 281.855153 354.018074 
L 304.119722 354.00023 
L 326.384291 353.986937 
L 348.648859 353.96556 
L 370.913428 353.944363 
L 393.177997 353.905023 
L 415.442566 353.860233 
L 437.707134 353.707303 
L 459.971703 353.547606 
L 482.236272 353.396532 
L 504.500841 353.224501 
L 526.765409 352.638168 
L 549.029978 350.891206 
L 571.294547 348.983708 
L 593.559116 348.148759 
L 615.823684 347.31387 
L 638.088253 345.922707 
L 660.352822 344.002635 
L 682.617391 340.821876 
L 704.881959 336.234985 
L 727.146528 330.412376 
L 749.411097 323.765716 
L 771.675666 315.948665 
L 793.940235 309.387811 
L 816.204803 303.939624 
L 838.469372 298.048873 
L 860.733941 292.043155 
L 882.99851 285.411105 
L 905.263078 277.954944 
L 927.527647 270.27328 
L 949.792216 262.114322 
" clip-path="url(#p01548b37bb)" style="fill: none; stroke: #7cb5ec; stroke-linecap: square"/>
   </g>
   <g id="line2d_10">
    <path d="M 81.474034 354.670752 
L 103.738603 354.554288 
L 126.003172 354.452674 
L 148.26774 354.351359 
L 170.532309 354.25705 
L 192.796878 354.174956 
L 215.061447 354.078192 
L 237.326015 353.919334 
L 259.590584 353.612874 
L 281.855153 353.332342 
L 304.119722 353.219531 
L 326.384291 353.092348 
L 348.648859 352.934089 
L 370.913428 352.79499 
L 393.177997 352.619306 
L 415.442566 352.488411 
L 437.707134 352.331649 
L 459.971703 352.199856 
L 482.236272 352.07423 
L 504.500841 351.923515 
L 526.765409 351.771663 
L 549.029978 351.642085 
L 571.294547 351.522687 
L 593.559116 351.388798 
L 615.823684 351.265508 
L 638.088253 351.149523 
L 660.352822 351.033118 
L 682.617391 350.915157 
L 704.881959 350.785639 
L 727.146528 350.655703 
L 749.411097 350.531634 
L 771.675666 350.401278 
L 793.940235 350.264634 
L 816.204803 350.131524 
L 838.469372 350.002725 
L 860.733941 349.856621 
L 882.99851 349.670098 
L 905.263078 349.469145 
L 927.527647 349.257055 
L 949.792216 349.084365 
" clip-path="url(#p01548b37bb)" style="fill: none; stroke: #434348; stroke-linecap: square"/>
   </g>
   <g id="line2d_11">
    <path d="M 81.474034 354.371658 
L 103.738603 354.338185 
L 126.003172 354.318186 
L 148.26774 354.282438 
L 170.532309 354.247469 
L 192.796878 354.111844 
L 215.061447 354.075318 
L 237.326015 353.937477 
L 259.590584 353.911968 
L 281.855153 353.875862 
L 304.119722 353.856281 
L 326.384291 353.835623 
L 348.648859 353.811133 
L 370.913428 353.779098 
L 393.177997 353.72868 
L 415.442566 353.647065 
L 437.707134 353.487488 
L 459.971703 353.320486 
L 482.236272 353.159293 
L 504.500841 352.98265 
L 526.765409 352.386677 
L 549.029978 350.630853 
L 571.294547 348.710182 
L 593.559116 347.85691 
L 615.823684 347.011662 
L 638.088253 345.515891 
L 660.352822 343.584562 
L 682.617391 340.389672 
L 704.881959 335.807331 
L 727.146528 329.978554 
L 749.411097 323.336445 
L 771.675666 315.585561 
L 793.940235 309.037161 
L 816.204803 303.603345 
L 838.469372 297.667266 
L 860.733941 291.570412 
L 882.99851 284.874232 
L 905.263078 277.221908 
L 927.527647 269.264023 
L 949.792216 260.736751 
" clip-path="url(#p01548b37bb)" style="fill: none; stroke: #90ed7d; stroke-linecap: square"/>
   </g>
   <g id="line2d_12">
    <path d="M 81.474034 354.645004 
L 103.738603 354.532672 
L 126.003172 354.414172 
L 148.26774 354.347526 
L 170.532309 354.267049 
L 192.796878 354.168968 
L 215.061447 354.097293 
L 237.326015 353.964422 
L 259.590584 353.63491 
L 281.855153 353.313181 
L 304.119722 353.207615 
L 326.384291 353.082049 
L 348.648859 352.944268 
L 370.913428 352.835169 
L 393.177997 352.701999 
L 415.442566 352.570625 
L 437.707134 352.406497 
L 459.971703 352.290512 
L 482.236272 352.171892 
L 504.500841 352.028183 
L 526.765409 351.921839 
L 549.029978 351.808009 
L 571.294547 351.701365 
L 593.559116 351.560231 
L 615.823684 351.42724 
L 638.088253 351.306046 
L 660.352822 351.197665 
L 682.617391 351.091261 
L 704.881959 350.986592 
L 727.146528 350.87426 
L 749.411097 350.758694 
L 771.675666 350.644445 
L 793.940235 350.540077 
L 816.204803 350.429361 
L 838.469372 350.325112 
L 860.733941 350.214336 
L 882.99851 350.102782 
L 905.263078 349.983025 
L 927.527647 349.865004 
L 949.792216 349.761773 
" clip-path="url(#p01548b37bb)" style="fill: none; stroke: #f7a35c; stroke-linecap: square"/>
   </g>
   <g id="line2d_13">
    <path d="M 81.474034 135.714785 
L 103.738603 135.118872 
L 126.003172 135.035042 
L 148.26774 134.960373 
L 170.532309 134.904805 
L 192.796878 134.813011 
L 215.061447 134.758761 
L 237.326015 134.6999 
L 259.590584 133.922255 
L 281.855153 133.830641 
L 304.119722 133.741361 
L 326.384291 133.639927 
L 348.648859 133.493044 
L 370.913428 133.449991 
L 393.177997 133.406759 
L 415.442566 133.358018 
L 437.707134 133.325144 
L 459.971703 133.28269 
L 482.236272 133.254787 
L 504.500841 133.225746 
L 526.765409 133.198201 
L 549.029978 133.171196 
L 571.294547 133.146646 
L 593.559116 133.12467 
L 615.823684 133.100719 
L 638.088253 133.064911 
L 660.352822 133.037906 
L 682.617391 132.99653 
L 704.881959 132.949106 
L 727.146528 132.90264 
L 749.411097 132.863539 
L 771.675666 132.814079 
L 793.940235 132.785697 
L 816.204803 132.765757 
L 838.469372 132.745698 
L 860.733941 132.729171 
L 882.99851 132.709711 
L 905.263078 132.692166 
L 927.527647 132.674861 
L 949.792216 132.65576 
" clip-path="url(#p01548b37bb)" style="fill: none; stroke: #8085e9; stroke-linecap: square"/>
   </g>
   <g id="line2d_14">
    <path d="M 81.474034 354.670932 
L 103.738603 354.661045 
L 126.003172 354.656047 
L 148.26774 354.647503 
L 170.532309 354.641001 
L 192.796878 354.625471 
L 215.061447 354.612628 
L 237.326015 354.538418 
L 259.590584 354.532023 
L 281.855153 354.521437 
L 304.119722 354.515687 
L 326.384291 354.510689 
L 348.648859 354.502038 
L 370.913428 354.494515 
L 393.177997 354.478877 
L 415.442566 354.464368 
L 437.707134 354.41837 
L 459.971703 354.369201 
L 482.236272 354.322611 
L 504.500841 354.26737 
L 526.765409 354.067899 
L 549.029978 353.429453 
L 571.294547 352.670207 
L 593.559116 352.303346 
L 615.823684 351.929339 
L 638.088253 351.250698 
L 660.352822 350.354154 
L 682.617391 348.8283 
L 704.881959 346.313207 
L 727.146528 343.42862 
L 749.411097 340.021175 
L 771.675666 336.053148 
L 793.940235 332.608249 
L 816.204803 329.650042 
L 838.469372 326.481887 
L 860.733941 323.036665 
L 882.99851 319.146502 
L 905.263078 314.76911 
L 927.527647 310.110942 
L 949.792216 305.116276 
" clip-path="url(#p01548b37bb)" style="fill: none; stroke: #f15c80; stroke-linecap: square"/>
   </g>
   <g id="line2d_15">
    <path d="M 81.474034 354.680336 
L 103.738603 354.542717 
L 126.003172 354.428311 
L 148.26774 354.304287 
L 170.532309 354.187947 
L 192.796878 354.081494 
L 215.061447 353.967787 
L 237.326015 353.789919 
L 259.590584 353.438105 
L 281.855153 353.114986 
L 304.119722 352.988866 
L 326.384291 352.840391 
L 348.648859 352.653387 
L 370.913428 352.485245 
L 393.177997 352.270567 
L 415.442566 352.110002 
L 437.707134 351.928748 
L 459.971703 351.764689 
L 482.236272 351.61643 
L 504.500841 351.435874 
L 526.765409 351.264669 
L 549.029978 351.110767 
L 571.294547 350.973739 
L 593.559116 350.813281 
L 615.823684 350.665129 
L 638.088253 350.532399 
L 660.352822 350.3922 
L 682.617391 350.24394 
L 704.881959 350.091973 
L 727.146528 349.927646 
L 749.411097 349.770842 
L 771.675666 349.594102 
L 793.940235 349.41258 
L 816.204803 349.232078 
L 838.469372 349.060121 
L 860.733941 348.874836 
L 882.99851 348.622542 
L 905.263078 348.357567 
L 927.527647 348.062767 
L 949.792216 347.826863 
" clip-path="url(#p01548b37bb)" style="fill: none; stroke: #e4d354; stroke-linecap: square"/>
   </g>
   <g id="line2d_16">
    <path d="M 81.474034 354.7359 
L 103.738603 354.7359 
L 126.003172 351.699131 
L 148.26774 351.131295 
L 170.532309 350.875024 
L 192.796878 350.739769 
L 215.061447 350.605051 
L 237.326015 350.543576 
L 259.590584 350.474793 
L 281.855153 350.42686 
L 304.119722 350.391985 
L 326.384291 350.363666 
L 348.648859 350.339431 
L 370.913428 350.314389 
L 393.177997 350.289509 
L 415.442566 350.264145 
L 437.707134 350.238513 
L 459.971703 350.21675 
L 482.236272 350.194019 
L 504.500841 350.170321 
L 526.765409 350.148235 
L 549.029978 350.125558 
L 571.294547 350.105246 
L 593.559116 350.083375 
L 615.823684 350.064782 
L 638.088253 350.045437 
L 660.352822 350.025823 
L 682.617391 350.005027 
L 704.881959 349.983317 
L 727.146528 349.962253 
L 749.411097 349.939414 
L 771.675666 349.912331 
L 793.940235 349.876005 
L 816.204803 349.851179 
L 838.469372 349.817325 
L 860.733941 349.796636 
L 882.99851 349.773207 
L 905.263078 349.751766 
L 927.527647 349.727262 
L 949.792216 349.709582 
" clip-path="url(#p01548b37bb)" style="fill: none; stroke: #2b908f; stroke-linecap: square"/>
   </g>
   <g id="line2d_17">
    <path d="M 81.474034 354.670287 
L 103.738603 354.659916 
L 126.003172 354.65336 
L 148.26774 354.641538 
L 170.532309 354.627459 
L 192.796878 354.574636 
L 215.061447 354.559966 
L 237.326015 354.47705 
L 259.590584 354.46641 
L 281.855153 354.453137 
L 304.119722 354.44685 
L 326.384291 354.439488 
L 348.648859 354.429278 
L 370.913428 354.417241 
L 393.177997 354.396714 
L 415.442566 354.368072 
L 437.707134 354.318581 
L 459.971703 354.265865 
L 482.236272 354.21546 
L 504.500841 354.157209 
L 526.765409 353.953708 
L 549.029978 353.30876 
L 571.294547 352.535704 
L 593.559116 352.161159 
L 615.823684 351.777801 
L 638.088253 351.03027 
L 660.352822 350.12357 
L 682.617391 348.582401 
L 704.881959 346.057635 
L 727.146528 343.156874 
L 749.411097 339.743571 
L 771.675666 335.795427 
L 793.940235 332.313127 
L 816.204803 329.346054 
L 838.469372 326.118197 
L 860.733941 322.573239 
L 882.99851 318.623967 
L 905.263078 314.130825 
L 927.527647 309.309728 
L 949.792216 304.124565 
" clip-path="url(#p01548b37bb)" style="fill: none; stroke: #f45b5b; stroke-linecap: square"/>
   </g>
   <g id="line2d_18">
    <path d="M 81.474034 354.652931 
L 103.738603 354.545779 
L 126.003172 354.455126 
L 148.26774 354.392737 
L 170.532309 354.307403 
L 192.796878 354.221532 
L 215.061447 354.147698 
L 237.326015 354.01083 
L 259.590584 353.742039 
L 281.855153 353.476902 
L 304.119722 353.380015 
L 326.384291 353.262547 
L 348.648859 353.13331 
L 370.913428 353.02229 
L 393.177997 352.900522 
L 415.442566 352.763494 
L 437.707134 352.602929 
L 459.971703 352.470521 
L 482.236272 352.347625 
L 504.500841 352.205814 
L 526.765409 352.085874 
L 549.029978 351.962494 
L 571.294547 351.842285 
L 593.559116 351.701119 
L 615.823684 351.565058 
L 638.088253 351.438884 
L 660.352822 351.320179 
L 682.617391 351.207816 
L 704.881959 351.089219 
L 727.146528 350.960681 
L 749.411097 350.833647 
L 771.675666 350.715695 
L 793.940235 350.598871 
L 816.204803 350.476029 
L 838.469372 350.362376 
L 860.733941 350.239212 
L 882.99851 350.109491 
L 905.263078 349.977729 
L 927.527647 349.843441 
L 949.792216 349.728175 
" clip-path="url(#p01548b37bb)" style="fill: none; stroke: #91e8e1; stroke-linecap: square"/>
   </g>
   <g id="line2d_19">
    <path d="M 81.474034 243.065414 
L 103.738603 242.62617 
L 126.003172 242.558408 
L 148.26774 242.498599 
L 170.532309 242.44669 
L 192.796878 242.367213 
L 215.061447 242.29182 
L 237.326015 242.215944 
L 259.590584 241.731615 
L 281.855153 241.633008 
L 304.119722 241.538754 
L 326.384291 241.451916 
L 348.648859 241.345087 
L 370.913428 241.292909 
L 393.177997 241.247985 
L 415.442566 241.193872 
L 437.707134 241.152172 
L 459.971703 241.108592 
L 482.236272 241.070224 
L 504.500841 241.036638 
L 526.765409 241.002892 
L 549.029978 240.97425 
L 571.294547 240.939912 
L 593.559116 240.915355 
L 615.823684 240.889561 
L 638.088253 240.861403 
L 660.352822 240.837705 
L 682.617391 240.806538 
L 704.881959 240.738883 
L 727.146528 240.704384 
L 749.411097 240.672679 
L 771.675666 240.640814 
L 793.940235 240.615611 
L 816.204803 240.596105 
L 838.469372 240.573696 
L 860.733941 240.551127 
L 882.99851 240.528128 
L 905.263078 240.505666 
L 927.527647 240.485461 
L 949.792216 240.462085 
" clip-path="url(#p01548b37bb)" style="fill: none; stroke: #7cb5ec; stroke-linecap: square"/>
   </g>
   <g id="line2d_20">
    <path d="M 81.474034 354.330411 
L 103.738603 354.311265 
L 126.003172 354.303147 
L 148.26774 354.284806 
L 170.532309 354.274582 
L 192.796878 354.252895 
L 215.061447 354.237218 
L 237.326015 353.94252 
L 259.590584 353.929694 
L 281.855153 353.905838 
L 304.119722 353.894561 
L 326.384291 353.886381 
L 348.648859 353.873493 
L 370.913428 353.861472 
L 393.177997 353.841582 
L 415.442566 353.825657 
L 437.707134 353.770324 
L 459.971703 353.711335 
L 482.236272 353.63481 
L 504.500841 353.543786 
L 526.765409 353.181114 
L 549.029978 352.078475 
L 571.294547 350.815722 
L 593.559116 350.231531 
L 615.823684 349.629804 
L 638.088253 348.6747 
L 660.352822 347.247682 
L 682.617391 344.920398 
L 704.881959 341.438426 
L 727.146528 336.767561 
L 749.411097 331.260376 
L 771.675666 324.773549 
L 793.940235 319.354352 
L 816.204803 314.857356 
L 838.469372 310.216792 
L 860.733941 305.21182 
L 882.99851 299.493526 
L 905.263078 293.106894 
L 927.527647 286.363476 
L 949.792216 279.151554 
" clip-path="url(#p01548b37bb)" style="fill: none; stroke: #434348; stroke-linecap: square"/>
   </g>
   <g id="line2d_21">
    <path d="M 81.474034 354.677097 
L 103.738603 354.544929 
L 126.003172 354.427198 
L 148.26774 354.318886 
L 170.532309 354.211132 
L 192.796878 354.105236 
L 215.061447 353.992711 
L 237.326015 353.808927 
L 259.590584 353.458152 
L 281.855153 353.113822 
L 304.119722 352.982645 
L 326.384291 352.839262 
L 348.648859 352.652504 
L 370.913428 352.480369 
L 393.177997 352.280413 
L 415.442566 352.127054 
L 437.707134 351.943332 
L 459.971703 351.780617 
L 482.236272 351.631161 
L 504.500841 351.457973 
L 526.765409 351.284351 
L 549.029978 351.140534 
L 571.294547 351.002666 
L 593.559116 350.841623 
L 615.823684 350.692167 
L 638.088253 350.550457 
L 660.352822 350.417979 
L 682.617391 350.274781 
L 704.881959 350.127308 
L 727.146528 349.966389 
L 749.411097 349.816128 
L 771.675666 349.65459 
L 793.940235 349.492617 
L 816.204803 349.32228 
L 838.469372 349.162786 
L 860.733941 348.989908 
L 882.99851 348.774151 
L 905.263078 348.540177 
L 927.527647 348.285879 
L 949.792216 348.080533 
" clip-path="url(#p01548b37bb)" style="fill: none; stroke: #90ed7d; stroke-linecap: square"/>
   </g>
   <g id="line2d_22">
    <path d="M 81.474034 354.33004 
L 103.738603 354.310955 
L 126.003172 354.300111 
L 148.26774 354.278052 
L 170.532309 354.257047 
L 192.796878 354.167262 
L 215.061447 354.148425 
L 237.326015 353.831358 
L 259.590584 353.812645 
L 281.855153 353.783894 
L 304.119722 353.770696 
L 326.384291 353.758489 
L 348.648859 353.744051 
L 370.913428 353.726764 
L 393.177997 353.700925 
L 415.442566 353.66573 
L 437.707134 353.607794 
L 459.971703 353.542918 
L 482.236272 353.461188 
L 504.500841 353.366818 
L 526.765409 352.998693 
L 549.029978 351.891035 
L 571.294547 350.624193 
L 593.559116 350.031389 
L 615.823684 349.424643 
L 638.088253 348.423128 
L 660.352822 346.993756 
L 682.617391 344.659966 
L 704.881959 341.178861 
L 727.146528 336.512953 
L 749.411097 331.012708 
L 771.675666 324.570185 
L 793.940235 319.169391 
L 816.204803 314.684045 
L 838.469372 310.028857 
L 860.733941 304.968118 
L 882.99851 299.214442 
L 905.263078 292.718755 
L 927.527647 285.801654 
L 949.792216 278.379551 
" clip-path="url(#p01548b37bb)" style="fill: none; stroke: #f7a35c; stroke-linecap: square"/>
   </g>
   <g id="line2d_23">
    <path d="M 81.474034 354.649461 
L 103.738603 354.537493 
L 126.003172 354.452417 
L 148.26774 354.382832 
L 170.532309 354.297819 
L 192.796878 354.210202 
L 215.061447 354.135041 
L 237.326015 354.002563 
L 259.590584 353.74337 
L 281.855153 353.482132 
L 304.119722 353.389249 
L 326.384291 353.270403 
L 348.648859 353.137244 
L 370.913428 353.01437 
L 393.177997 352.883689 
L 415.442566 352.741917 
L 437.707134 352.576475 
L 459.971703 352.450813 
L 482.236272 352.33017 
L 504.500841 352.18846 
L 526.765409 352.070605 
L 549.029978 351.943828 
L 571.294547 351.821265 
L 593.559116 351.676642 
L 615.823684 351.536728 
L 638.088253 351.406419 
L 660.352822 351.284847 
L 682.617391 351.170091 
L 704.881959 351.050192 
L 727.146528 350.919945 
L 749.411097 350.79608 
L 771.675666 350.680456 
L 793.940235 350.568984 
L 816.204803 350.448899 
L 838.469372 350.337798 
L 860.733941 350.210463 
L 882.99851 350.090812 
L 905.263078 349.967691 
L 927.527647 349.845003 
L 949.792216 349.72845 
" clip-path="url(#p01548b37bb)" style="fill: none; stroke: #8085e9; stroke-linecap: square"/>
   </g>
   <g id="line2d_24">
    <path d="M 81.474034 257.235463 
L 103.738603 256.808597 
L 126.003172 256.760637 
L 148.26774 256.707472 
L 170.532309 256.673207 
L 192.796878 256.604489 
L 215.061447 256.570781 
L 237.326015 256.527097 
L 259.590584 256.165602 
L 281.855153 256.107295 
L 304.119722 256.049421 
L 326.384291 255.990803 
L 348.648859 255.907029 
L 370.913428 255.876047 
L 393.177997 255.845995 
L 415.442566 255.815137 
L 437.707134 255.79029 
L 459.971703 255.76284 
L 482.236272 255.738674 
L 504.500841 255.714942 
L 526.765409 255.69214 
L 549.029978 255.672559 
L 571.294547 255.654032 
L 593.559116 255.636744 
L 615.823684 255.618651 
L 638.088253 255.596034 
L 660.352822 255.576392 
L 682.617391 255.55235 
L 704.881959 255.52961 
L 727.146528 255.502594 
L 749.411097 255.47756 
L 771.675666 255.459529 
L 793.940235 255.43685 
L 816.204803 255.417146 
L 838.469372 255.397751 
L 860.733941 255.379286 
L 882.99851 255.359582 
L 905.263078 255.342108 
L 927.527647 255.321908 
L 949.792216 255.300779 
" clip-path="url(#p01548b37bb)" style="fill: none; stroke: #f15c80; stroke-linecap: square"/>
   </g>
   <g id="line2d_25">
    <path d="M 81.474034 354.565072 
L 103.738603 354.524438 
L 126.003172 354.509746 
L 148.26774 354.488093 
L 170.532309 354.469675 
L 192.796878 354.430166 
L 215.061447 354.408795 
L 237.326015 354.372099 
L 259.590584 354.35143 
L 281.855153 354.331887 
L 304.119722 354.31853 
L 326.384291 354.305876 
L 348.648859 354.28106 
L 370.913428 354.261166 
L 393.177997 354.206402 
L 415.442566 354.168581 
L 437.707134 354.04872 
L 459.971703 353.901371 
L 482.236272 353.801405 
L 504.500841 353.693635 
L 526.765409 353.322523 
L 549.029978 352.197796 
L 571.294547 350.918832 
L 593.559116 350.306802 
L 615.823684 349.707004 
L 638.088253 348.713106 
L 660.352822 347.234983 
L 682.617391 344.802891 
L 704.881959 341.236864 
L 727.146528 336.69852 
L 749.411097 331.514121 
L 771.675666 325.435369 
L 793.940235 320.251884 
L 816.204803 315.924018 
L 838.469372 311.231155 
L 860.733941 306.423634 
L 882.99851 301.115507 
L 905.263078 295.123856 
L 927.527647 288.879266 
L 949.792216 282.199591 
" clip-path="url(#p01548b37bb)" style="fill: none; stroke: #e4d354; stroke-linecap: square"/>
   </g>
   <g id="line2d_26">
    <path d="M 81.474034 354.67502 
L 103.738603 354.564579 
L 126.003172 354.468198 
L 148.26774 354.366685 
L 170.532309 354.263907 
L 192.796878 354.177579 
L 215.061447 354.079862 
L 237.326015 353.919087 
L 259.590584 353.626077 
L 281.855153 353.331521 
L 304.119722 353.230711 
L 326.384291 353.088003 
L 348.648859 352.927227 
L 370.913428 352.787612 
L 393.177997 352.622829 
L 415.442566 352.487994 
L 437.707134 352.33235 
L 459.971703 352.189852 
L 482.236272 352.060712 
L 504.500841 351.906825 
L 526.765409 351.769881 
L 549.029978 351.636804 
L 571.294547 351.519544 
L 593.559116 351.38492 
L 615.823684 351.252756 
L 638.088253 351.135848 
L 660.352822 351.018377 
L 682.617391 350.898234 
L 704.881959 350.769305 
L 727.146528 350.637422 
L 749.411097 350.511586 
L 771.675666 350.369228 
L 793.940235 350.232074 
L 816.204803 350.086623 
L 838.469372 349.945321 
L 860.733941 349.796355 
L 882.99851 349.602187 
L 905.263078 349.393256 
L 927.527647 349.175046 
L 949.792216 348.992126 
" clip-path="url(#p01548b37bb)" style="fill: none; stroke: #2b908f; stroke-linecap: square"/>
   </g>
   <g id="line2d_27">
    <path d="M 81.474034 354.564017 
L 103.738603 354.524509 
L 126.003172 354.508058 
L 148.26774 354.482329 
L 170.532309 354.439305 
L 192.796878 354.293082 
L 215.061447 354.268688 
L 237.326015 354.206683 
L 259.590584 354.175892 
L 281.855153 354.148826 
L 304.119722 354.132939 
L 326.384291 354.111357 
L 348.648859 354.083799 
L 370.913428 354.052235 
L 393.177997 353.989457 
L 415.442566 353.919719 
L 437.707134 353.790227 
L 459.971703 353.620453 
L 482.236272 353.508184 
L 504.500841 353.393807 
L 526.765409 353.010462 
L 549.029978 351.871957 
L 571.294547 350.583854 
L 593.559116 349.958256 
L 615.823684 349.350936 
L 638.088253 348.287863 
L 660.352822 346.801022 
L 682.617391 344.358174 
L 704.881959 340.786945 
L 727.146528 336.246071 
L 749.411097 331.04951 
L 771.675666 324.992761 
L 793.940235 319.82193 
L 816.204803 315.497368 
L 838.469372 310.77034 
L 860.733941 305.888793 
L 882.99851 300.521263 
L 905.263078 294.392949 
L 927.527647 287.947653 
L 949.792216 281.01293 
" clip-path="url(#p01548b37bb)" style="fill: none; stroke: #f45b5b; stroke-linecap: square"/>
   </g>
   <g id="line2d_28">
    <path d="M 81.474034 354.640222 
L 103.738603 354.485 
L 126.003172 354.285208 
L 148.26774 354.215049 
L 170.532309 354.129775 
L 192.796878 353.998736 
L 215.061447 353.923586 
L 237.326015 353.776308 
L 259.590584 353.347339 
L 281.855153 352.870073 
L 304.119722 352.718015 
L 326.384291 352.589226 
L 348.648859 352.444619 
L 370.913428 352.317657 
L 393.177997 352.181276 
L 415.442566 352.037161 
L 437.707134 351.863802 
L 459.971703 351.739653 
L 482.236272 351.625345 
L 504.500841 351.486152 
L 526.765409 351.379155 
L 549.029978 351.264426 
L 571.294547 351.154547 
L 593.559116 351.011487 
L 615.823684 350.876934 
L 638.088253 350.74484 
L 660.352822 350.640515 
L 682.617391 350.534363 
L 704.881959 350.430038 
L 727.146528 350.3203 
L 749.411097 350.206063 
L 771.675666 350.098715 
L 793.940235 349.993757 
L 816.204803 349.876989 
L 838.469372 349.772172 
L 860.733941 349.655334 
L 882.99851 349.530552 
L 905.263078 349.408511 
L 927.527647 349.285768 
L 949.792216 349.177577 
" clip-path="url(#p01548b37bb)" style="fill: none; stroke: #91e8e1; stroke-linecap: square"/>
   </g>
   <g id="line2d_29">
    <path d="M 81.474034 54.02826 
L 103.738603 53.383822 
L 126.003172 53.281254 
L 148.26774 53.188951 
L 170.532309 53.122728 
L 192.796878 52.993306 
L 215.061447 52.948174 
L 237.326015 52.89341 
L 259.590584 51.831602 
L 281.855153 51.741337 
L 304.119722 51.634271 
L 326.384291 51.516237 
L 348.648859 51.313704 
L 370.913428 51.270891 
L 393.177997 51.220135 
L 415.442566 51.171839 
L 437.707134 51.13711 
L 459.971703 51.087971 
L 482.236272 51.05732 
L 504.500841 51.02688 
L 526.765409 50.99855 
L 549.029978 50.973523 
L 571.294547 50.950043 
L 593.559116 50.92825 
L 615.823684 50.905051 
L 638.088253 50.871377 
L 660.352822 50.846561 
L 682.617391 50.814505 
L 704.881959 50.781815 
L 727.146528 50.736472 
L 749.411097 50.703431 
L 771.675666 50.684099 
L 793.940235 50.656401 
L 816.204803 50.638193 
L 838.469372 50.620126 
L 860.733941 50.60466 
L 882.99851 50.587788 
L 905.263078 50.570916 
L 927.527647 50.554396 
L 949.792216 50.537805 
" clip-path="url(#p01548b37bb)" style="fill: none; stroke: #7cb5ec; stroke-linecap: square"/>
   </g>
   <g id="line2d_30">
    <path d="M 81.474034 354.700116 
L 103.738603 354.69042 
L 126.003172 354.685187 
L 148.26774 354.672335 
L 170.532309 354.666256 
L 192.796878 354.652558 
L 215.061447 354.642323 
L 237.326015 354.616389 
L 259.590584 354.610541 
L 281.855153 354.592456 
L 304.119722 354.587069 
L 326.384291 354.581605 
L 348.648859 354.573833 
L 370.913428 354.565214 
L 393.177997 354.552055 
L 415.442566 354.540973 
L 437.707134 354.509961 
L 459.971703 354.467712 
L 482.236272 354.406918 
L 504.500841 354.31388 
L 526.765409 353.944958 
L 549.029978 352.795406 
L 571.294547 351.526266 
L 593.559116 350.981811 
L 615.823684 350.406881 
L 638.088253 349.473264 
L 660.352822 348.129786 
L 682.617391 345.917334 
L 704.881959 342.416195 
L 727.146528 337.916413 
L 749.411097 332.524801 
L 771.675666 326.290457 
L 793.940235 321.062143 
L 816.204803 316.708037 
L 838.469372 312.080048 
L 860.733941 307.095373 
L 882.99851 301.398635 
L 905.263078 294.954589 
L 927.527647 287.981862 
L 949.792216 280.506697 
" clip-path="url(#p01548b37bb)" style="fill: none; stroke: #434348; stroke-linecap: square"/>
   </g>
   <g id="line2d_31">
    <path d="M 81.474034 354.672874 
L 103.738603 354.550824 
L 126.003172 354.440932 
L 148.26774 354.332349 
L 170.532309 354.22061 
L 192.796878 354.124878 
L 215.061447 354.017295 
L 237.326015 353.833296 
L 259.590584 353.492386 
L 281.855153 353.148013 
L 304.119722 353.028579 
L 326.384291 352.883827 
L 348.648859 352.698443 
L 370.913428 352.523525 
L 393.177997 352.319748 
L 415.442566 352.165607 
L 437.707134 351.983301 
L 459.971703 351.82008 
L 482.236272 351.665016 
L 504.500841 351.47209 
L 526.765409 351.298865 
L 549.029978 351.15619 
L 571.294547 351.023212 
L 593.559116 350.86584 
L 615.823684 350.718163 
L 638.088253 350.590264 
L 660.352822 350.454824 
L 682.617391 350.312842 
L 704.881959 350.160241 
L 727.146528 350.012564 
L 749.411097 349.857269 
L 771.675666 349.694817 
L 793.940235 349.532443 
L 816.204803 349.370145 
L 838.469372 349.214465 
L 860.733941 349.043241 
L 882.99851 348.834231 
L 905.263078 348.609523 
L 927.527647 348.369809 
L 949.792216 348.181654 
" clip-path="url(#p01548b37bb)" style="fill: none; stroke: #90ed7d; stroke-linecap: square"/>
   </g>
   <g id="line2d_32">
    <path d="M 81.474034 354.7359 
L 103.738603 354.7359 
L 126.003172 353.550102 
L 148.26774 353.248285 
L 170.532309 353.076753 
L 192.796878 352.983407 
L 215.061447 352.869668 
L 237.326015 352.822263 
L 259.590584 352.767779 
L 281.855153 352.731149 
L 304.119722 352.700829 
L 326.384291 352.676665 
L 348.648859 352.654886 
L 370.913428 352.635109 
L 393.177997 352.612484 
L 415.442566 352.592322 
L 437.707134 352.56862 
L 459.971703 352.544687 
L 482.236272 352.525525 
L 504.500841 352.503131 
L 526.765409 352.483893 
L 549.029978 352.462115 
L 571.294547 352.444954 
L 593.559116 352.423945 
L 615.823684 352.405553 
L 638.088253 352.386468 
L 660.352822 352.372231 
L 682.617391 352.350453 
L 704.881959 352.327982 
L 727.146528 352.31236 
L 749.411097 352.288889 
L 771.675666 352.26334 
L 793.940235 352.228557 
L 816.204803 352.207471 
L 838.469372 352.182691 
L 860.733941 352.160298 
L 882.99851 352.140135 
L 905.263078 352.120589 
L 927.527647 352.100042 
L 949.792216 352.083266 
" clip-path="url(#p01548b37bb)" style="fill: none; stroke: #f7a35c; stroke-linecap: square"/>
   </g>
   <g id="line2d_33">
    <path d="M 81.474034 354.699885 
L 103.738603 354.690266 
L 126.003172 354.683571 
L 148.26774 354.664332 
L 170.532309 354.653174 
L 192.796878 354.605231 
L 215.061447 354.592071 
L 237.326015 354.553363 
L 259.590584 354.539665 
L 281.855153 354.515655 
L 304.119722 354.509037 
L 326.384291 354.502034 
L 348.648859 354.492953 
L 370.913428 354.481641 
L 393.177997 354.466096 
L 415.442566 354.449089 
L 437.707134 354.414229 
L 459.971703 354.368594 
L 482.236272 354.304799 
L 504.500841 354.209837 
L 526.765409 353.835682 
L 549.029978 352.679897 
L 571.294547 351.407602 
L 593.559116 350.854373 
L 615.823684 350.275057 
L 638.088253 349.278799 
L 660.352822 347.929704 
L 682.617391 345.709017 
L 704.881959 342.207725 
L 727.146528 337.707096 
L 749.411097 332.323795 
L 771.675666 326.13724 
L 793.940235 320.923701 
L 816.204803 316.580522 
L 838.469372 311.91875 
L 860.733941 306.873512 
L 882.99851 301.121136 
L 905.263078 294.562734 
L 927.527647 287.419707 
L 949.792216 279.731531 
" clip-path="url(#p01548b37bb)" style="fill: none; stroke: #8085e9; stroke-linecap: square"/>
   </g>
   <g id="line2d_34">
    <path d="M 81.474034 354.657175 
L 103.738603 354.565291 
L 126.003172 354.4948 
L 148.26774 354.432082 
L 170.532309 354.353126 
L 192.796878 354.282867 
L 215.061447 354.216609 
L 237.326015 354.088556 
L 259.590584 353.849688 
L 281.855153 353.615052 
L 304.119722 353.525939 
L 326.384291 353.4132 
L 348.648859 353.285455 
L 370.913428 353.1721 
L 393.177997 353.040507 
L 415.442566 352.914686 
L 437.707134 352.760315 
L 459.971703 352.634724 
L 482.236272 352.522216 
L 504.500841 352.3887 
L 526.765409 352.270343 
L 549.029978 352.143367 
L 571.294547 352.019624 
L 593.559116 351.880951 
L 615.823684 351.753899 
L 638.088253 351.625615 
L 660.352822 351.510491 
L 682.617391 351.391441 
L 704.881959 351.277163 
L 727.146528 351.153035 
L 749.411097 351.02883 
L 771.675666 350.90601 
L 793.940235 350.788962 
L 816.204803 350.663987 
L 838.469372 350.554557 
L 860.733941 350.425658 
L 882.99851 350.301914 
L 905.263078 350.162934 
L 927.527647 350.033496 
L 949.792216 349.923604 
" clip-path="url(#p01548b37bb)" style="fill: none; stroke: #f15c80; stroke-linecap: square"/>
   </g>
   <g id="line2d_35">
    <path d="M 81.474034 242.261436 
L 103.738603 241.972394 
L 126.003172 241.915601 
L 148.26774 241.862733 
L 170.532309 241.81733 
L 192.796878 241.77208 
L 215.061447 241.720366 
L 237.326015 241.665498 
L 259.590584 241.220391 
L 281.855153 241.157826 
L 304.119722 241.083565 
L 326.384291 241.012074 
L 348.648859 240.91665 
L 370.913428 240.884252 
L 393.177997 240.854624 
L 415.442566 240.818609 
L 437.707134 240.790598 
L 459.971703 240.759739 
L 482.236272 240.73596 
L 504.500841 240.714335 
L 526.765409 240.692942 
L 549.029978 240.671779 
L 571.294547 240.652002 
L 593.559116 240.634687 
L 615.823684 240.614756 
L 638.088253 240.594978 
L 660.352822 240.579357 
L 682.617391 240.557732 
L 704.881959 240.537801 
L 727.146528 240.512098 
L 749.411097 240.493013 
L 771.675666 240.477391 
L 793.940235 240.457229 
L 816.204803 240.438221 
L 838.469372 240.420599 
L 860.733941 240.401899 
L 882.99851 240.38189 
L 905.263078 240.364729 
L 927.527647 240.345952 
L 949.792216 240.325713 
" clip-path="url(#p01548b37bb)" style="fill: none; stroke: #e4d354; stroke-linecap: square"/>
   </g>
   <g id="line2d_36">
    <path d="M 38.058125 354.7359 
L 993.208125 354.7359 
" clip-path="url(#p01548b37bb)" style="fill: none; stroke: #dedede; stroke-width: 2; stroke-linecap: square"/>
   </g>
   <g id="text_20">
    <!-- FastQC: Adapter Content -->
    <g transform="translate(416.335625 19.3575) scale(0.16 -0.16)">
     <defs>
      <path id="DejaVuSans-46" d="M 628 4666 
L 3309 4666 
L 3309 4134 
L 1259 4134 
L 1259 2759 
L 3109 2759 
L 3109 2228 
L 1259 2228 
L 1259 0 
L 628 0 
L 628 4666 
z
" transform="scale(0.015625)"/>
      <path id="DejaVuSans-61" d="M 2194 1759 
Q 1497 1759 1228 1600 
Q 959 1441 959 1056 
Q 959 750 1161 570 
Q 1363 391 1709 391 
Q 2188 391 2477 730 
Q 2766 1069 2766 1631 
L 2766 1759 
L 2194 1759 
z
M 3341 1997 
L 3341 0 
L 2766 0 
L 2766 531 
Q 2569 213 2275 61 
Q 1981 -91 1556 -91 
Q 1019 -91 701 211 
Q 384 513 384 1019 
Q 384 1609 779 1909 
Q 1175 2209 1959 2209 
L 2766 2209 
L 2766 2266 
Q 2766 2663 2505 2880 
Q 2244 3097 1772 3097 
Q 1472 3097 1187 3025 
Q 903 2953 641 2809 
L 641 3341 
Q 956 3463 1253 3523 
Q 1550 3584 1831 3584 
Q 2591 3584 2966 3190 
Q 3341 2797 3341 1997 
z
" transform="scale(0.015625)"/>
      <path id="DejaVuSans-51" d="M 2522 4238 
Q 1834 4238 1429 3725 
Q 1025 3213 1025 2328 
Q 1025 1447 1429 934 
Q 1834 422 2522 422 
Q 3209 422 3611 934 
Q 4013 1447 4013 2328 
Q 4013 3213 3611 3725 
Q 3209 4238 2522 4238 
z
M 3406 84 
L 4238 -825 
L 3475 -825 
L 2784 -78 
Q 2681 -84 2626 -87 
Q 2572 -91 2522 -91 
Q 1538 -91 948 567 
Q 359 1225 359 2328 
Q 359 3434 948 4092 
Q 1538 4750 2522 4750 
Q 3503 4750 4090 4092 
Q 4678 3434 4678 2328 
Q 4678 1516 4351 937 
Q 4025 359 3406 84 
z
" transform="scale(0.015625)"/>
      <path id="DejaVuSans-43" d="M 4122 4306 
L 4122 3641 
Q 3803 3938 3442 4084 
Q 3081 4231 2675 4231 
Q 1875 4231 1450 3742 
Q 1025 3253 1025 2328 
Q 1025 1406 1450 917 
Q 1875 428 2675 428 
Q 3081 428 3442 575 
Q 3803 722 4122 1019 
L 4122 359 
Q 3791 134 3420 21 
Q 3050 -91 2638 -91 
Q 1578 -91 968 557 
Q 359 1206 359 2328 
Q 359 3453 968 4101 
Q 1578 4750 2638 4750 
Q 3056 4750 3426 4639 
Q 3797 4528 4122 4306 
z
" transform="scale(0.015625)"/>
      <path id="DejaVuSans-3a" d="M 750 794 
L 1409 794 
L 1409 0 
L 750 0 
L 750 794 
z
M 750 3309 
L 1409 3309 
L 1409 2516 
L 750 2516 
L 750 3309 
z
" transform="scale(0.015625)"/>
      <path id="DejaVuSans-41" d="M 2188 4044 
L 1331 1722 
L 3047 1722 
L 2188 4044 
z
M 1831 4666 
L 2547 4666 
L 4325 0 
L 3669 0 
L 3244 1197 
L 1141 1197 
L 716 0 
L 50 0 
L 1831 4666 
z
" transform="scale(0.015625)"/>
      <path id="DejaVuSans-64" d="M 2906 2969 
L 2906 4863 
L 3481 4863 
L 3481 0 
L 2906 0 
L 2906 525 
Q 2725 213 2448 61 
Q 2172 -91 1784 -91 
Q 1150 -91 751 415 
Q 353 922 353 1747 
Q 353 2572 751 3078 
Q 1150 3584 1784 3584 
Q 2172 3584 2448 3432 
Q 2725 3281 2906 2969 
z
M 947 1747 
Q 947 1113 1208 752 
Q 1469 391 1925 391 
Q 2381 391 2643 752 
Q 2906 1113 2906 1747 
Q 2906 2381 2643 2742 
Q 2381 3103 1925 3103 
Q 1469 3103 1208 2742 
Q 947 2381 947 1747 
z
" transform="scale(0.015625)"/>
      <path id="DejaVuSans-72" d="M 2631 2963 
Q 2534 3019 2420 3045 
Q 2306 3072 2169 3072 
Q 1681 3072 1420 2755 
Q 1159 2438 1159 1844 
L 1159 0 
L 581 0 
L 581 3500 
L 1159 3500 
L 1159 2956 
Q 1341 3275 1631 3429 
Q 1922 3584 2338 3584 
Q 2397 3584 2469 3576 
Q 2541 3569 2628 3553 
L 2631 2963 
z
" transform="scale(0.015625)"/>
     </defs>
     <use xlink:href="#DejaVuSans-46"/>
     <use xlink:href="#DejaVuSans-61" x="48.394531"/>
     <use xlink:href="#DejaVuSans-73" x="109.673828"/>
     <use xlink:href="#DejaVuSans-74" x="161.773438"/>
     <use xlink:href="#DejaVuSans-51" x="200.982422"/>
     <use xlink:href="#DejaVuSans-43" x="279.693359"/>
     <use xlink:href="#DejaVuSans-3a" x="349.517578"/>
     <use xlink:href="#DejaVuSans-20" x="383.208984"/>
     <use xlink:href="#DejaVuSans-41" x="414.996094"/>
     <use xlink:href="#DejaVuSans-64" x="481.654297"/>
     <use xlink:href="#DejaVuSans-61" x="545.130859"/>
     <use xlink:href="#DejaVuSans-70" x="606.410156"/>
     <use xlink:href="#DejaVuSans-74" x="669.886719"/>
     <use xlink:href="#DejaVuSans-65" x="709.095703"/>
     <use xlink:href="#DejaVuSans-72" x="770.619141"/>
     <use xlink:href="#DejaVuSans-20" x="811.732422"/>
     <use xlink:href="#DejaVuSans-43" x="843.519531"/>
     <use xlink:href="#DejaVuSans-6f" x="913.34375"/>
     <use xlink:href="#DejaVuSans-6e" x="974.525391"/>
     <use xlink:href="#DejaVuSans-74" x="1037.904297"/>
     <use xlink:href="#DejaVuSans-65" x="1077.113281"/>
     <use xlink:href="#DejaVuSans-6e" x="1138.636719"/>
     <use xlink:href="#DejaVuSans-74" x="1202.015625"/>
    </g>
   </g>
  </g>
 </g>
 <defs>
  <clipPath id="p01548b37bb">
   <rect x="38.058125" y="35.3279" width="955.15" height="319.408"/>
  </clipPath>
 </defs>
</svg>
