<?xml version="1.0" encoding="utf-8" standalone="no"?>
<!DOCTYPE svg PUBLIC "-//W3C//DTD SVG 1.1//EN"
  "http://www.w3.org/Graphics/SVG/1.1/DTD/svg11.dtd">
<svg xmlns:xlink="http://www.w3.org/1999/xlink" width="1000.433125pt" height="332.370444pt" viewBox="0 0 1000.433125 332.370444" xmlns="http://www.w3.org/2000/svg" version="1.1">
 <metadata>
  <rdf:RDF xmlns:dc="http://purl.org/dc/elements/1.1/" xmlns:cc="http://creativecommons.org/ns#" xmlns:rdf="http://www.w3.org/1999/02/22-rdf-syntax-ns#">
   <cc:Work>
    <dc:type rdf:resource="http://purl.org/dc/dcmitype/StillImage"/>
    <dc:date>2024-09-19T15:05:11.424113</dc:date>
    <dc:format>image/svg+xml</dc:format>
    <dc:creator>
     <cc:Agent>
      <dc:title>Matplotlib v3.9.2, https://matplotlib.org/</dc:title>
     </cc:Agent>
    </dc:creator>
   </cc:Work>
  </rdf:RDF>
 </metadata>
 <defs>
  <style type="text/css">*{stroke-linejoin: round; stroke-linecap: butt}</style>
 </defs>
 <g id="figure_1">
  <g id="axes_1">
   <g id="patch_1">
    <path d="M 32.968125 275.50206 
L 985.598125 275.50206 
L 985.598125 31.55486 
L 32.968125 31.55486 
z
" style="fill: #ffffff"/>
   </g>
   <g id="matplotlib.axis_1">
    <g id="xtick_1">
     <g id="text_1">
      <!-- 0 -->
      <g transform="translate(30.423125 288.58081) scale(0.08 -0.08)">
       <defs>
        <path id="DejaVuSans-30" d="M 2034 4250 
Q 1547 4250 1301 3770 
Q 1056 3291 1056 2328 
Q 1056 1369 1301 889 
Q 1547 409 2034 409 
Q 2525 409 2770 889 
Q 3016 1369 3016 2328 
Q 3016 3291 2770 3770 
Q 2525 4250 2034 4250 
z
M 2034 4750 
Q 2819 4750 3233 4129 
Q 3647 3509 3647 2328 
Q 3647 1150 3233 529 
Q 2819 -91 2034 -91 
Q 1250 -91 836 529 
Q 422 1150 422 2328 
Q 422 3509 836 4129 
Q 1250 4750 2034 4750 
z
" transform="scale(0.015625)"/>
       </defs>
       <use xlink:href="#DejaVuSans-30"/>
      </g>
     </g>
    </g>
    <g id="xtick_2">
     <g id="text_2">
      <!-- 20 -->
      <g transform="translate(218.404125 288.58081) scale(0.08 -0.08)">
       <defs>
        <path id="DejaVuSans-32" d="M 1228 531 
L 3431 531 
L 3431 0 
L 469 0 
L 469 531 
Q 828 903 1448 1529 
Q 2069 2156 2228 2338 
Q 2531 2678 2651 2914 
Q 2772 3150 2772 3378 
Q 2772 3750 2511 3984 
Q 2250 4219 1831 4219 
Q 1534 4219 1204 4116 
Q 875 4013 500 3803 
L 500 4441 
Q 881 4594 1212 4672 
Q 1544 4750 1819 4750 
Q 2544 4750 2975 4387 
Q 3406 4025 3406 3419 
Q 3406 3131 3298 2873 
Q 3191 2616 2906 2266 
Q 2828 2175 2409 1742 
Q 1991 1309 1228 531 
z
" transform="scale(0.015625)"/>
       </defs>
       <use xlink:href="#DejaVuSans-32"/>
       <use xlink:href="#DejaVuSans-30" x="63.623047"/>
      </g>
     </g>
    </g>
    <g id="xtick_3">
     <g id="text_3">
      <!-- 40 -->
      <g transform="translate(408.930125 288.58081) scale(0.08 -0.08)">
       <defs>
        <path id="DejaVuSans-34" d="M 2419 4116 
L 825 1625 
L 2419 1625 
L 2419 4116 
z
M 2253 4666 
L 3047 4666 
L 3047 1625 
L 3713 1625 
L 3713 1100 
L 3047 1100 
L 3047 0 
L 2419 0 
L 2419 1100 
L 313 1100 
L 313 1709 
L 2253 4666 
z
" transform="scale(0.015625)"/>
       </defs>
       <use xlink:href="#DejaVuSans-34"/>
       <use xlink:href="#DejaVuSans-30" x="63.623047"/>
      </g>
     </g>
    </g>
    <g id="xtick_4">
     <g id="text_4">
      <!-- 60 -->
      <g transform="translate(599.456125 288.58081) scale(0.08 -0.08)">
       <defs>
        <path id="DejaVuSans-36" d="M 2113 2584 
Q 1688 2584 1439 2293 
Q 1191 2003 1191 1497 
Q 1191 994 1439 701 
Q 1688 409 2113 409 
Q 2538 409 2786 701 
Q 3034 994 3034 1497 
Q 3034 2003 2786 2293 
Q 2538 2584 2113 2584 
z
M 3366 4563 
L 3366 3988 
Q 3128 4100 2886 4159 
Q 2644 4219 2406 4219 
Q 1781 4219 1451 3797 
Q 1122 3375 1075 2522 
Q 1259 2794 1537 2939 
Q 1816 3084 2150 3084 
Q 2853 3084 3261 2657 
Q 3669 2231 3669 1497 
Q 3669 778 3244 343 
Q 2819 -91 2113 -91 
Q 1303 -91 875 529 
Q 447 1150 447 2328 
Q 447 3434 972 4092 
Q 1497 4750 2381 4750 
Q 2619 4750 2861 4703 
Q 3103 4656 3366 4563 
z
" transform="scale(0.015625)"/>
       </defs>
       <use xlink:href="#DejaVuSans-36"/>
       <use xlink:href="#DejaVuSans-30" x="63.623047"/>
      </g>
     </g>
    </g>
    <g id="xtick_5">
     <g id="text_5">
      <!-- 80 -->
      <g transform="translate(789.982125 288.58081) scale(0.08 -0.08)">
       <defs>
        <path id="DejaVuSans-38" d="M 2034 2216 
Q 1584 2216 1326 1975 
Q 1069 1734 1069 1313 
Q 1069 891 1326 650 
Q 1584 409 2034 409 
Q 2484 409 2743 651 
Q 3003 894 3003 1313 
Q 3003 1734 2745 1975 
Q 2488 2216 2034 2216 
z
M 1403 2484 
Q 997 2584 770 2862 
Q 544 3141 544 3541 
Q 544 4100 942 4425 
Q 1341 4750 2034 4750 
Q 2731 4750 3128 4425 
Q 3525 4100 3525 3541 
Q 3525 3141 3298 2862 
Q 3072 2584 2669 2484 
Q 3125 2378 3379 2068 
Q 3634 1759 3634 1313 
Q 3634 634 3220 271 
Q 2806 -91 2034 -91 
Q 1263 -91 848 271 
Q 434 634 434 1313 
Q 434 1759 690 2068 
Q 947 2378 1403 2484 
z
M 1172 3481 
Q 1172 3119 1398 2916 
Q 1625 2713 2034 2713 
Q 2441 2713 2670 2916 
Q 2900 3119 2900 3481 
Q 2900 3844 2670 4047 
Q 2441 4250 2034 4250 
Q 1625 4250 1398 4047 
Q 1172 3844 1172 3481 
z
" transform="scale(0.015625)"/>
       </defs>
       <use xlink:href="#DejaVuSans-38"/>
       <use xlink:href="#DejaVuSans-30" x="63.623047"/>
      </g>
     </g>
    </g>
    <g id="xtick_6">
     <g id="text_6">
      <!-- 100 -->
      <g transform="translate(977.963125 288.58081) scale(0.08 -0.08)">
       <defs>
        <path id="DejaVuSans-31" d="M 794 531 
L 1825 531 
L 1825 4091 
L 703 3866 
L 703 4441 
L 1819 4666 
L 2450 4666 
L 2450 531 
L 3481 531 
L 3481 0 
L 794 0 
L 794 531 
z
" transform="scale(0.015625)"/>
       </defs>
       <use xlink:href="#DejaVuSans-31"/>
       <use xlink:href="#DejaVuSans-30" x="63.623047"/>
       <use xlink:href="#DejaVuSans-30" x="127.246094"/>
      </g>
     </g>
    </g>
    <g id="text_7">
     <!-- % GC -->
     <g transform="translate(495.577656 301.842998) scale(0.1 -0.1)">
      <defs>
       <path id="DejaVuSans-25" d="M 4653 2053 
Q 4381 2053 4226 1822 
Q 4072 1591 4072 1178 
Q 4072 772 4226 539 
Q 4381 306 4653 306 
Q 4919 306 5073 539 
Q 5228 772 5228 1178 
Q 5228 1588 5073 1820 
Q 4919 2053 4653 2053 
z
M 4653 2450 
Q 5147 2450 5437 2106 
Q 5728 1763 5728 1178 
Q 5728 594 5436 251 
Q 5144 -91 4653 -91 
Q 4153 -91 3862 251 
Q 3572 594 3572 1178 
Q 3572 1766 3864 2108 
Q 4156 2450 4653 2450 
z
M 1428 4353 
Q 1159 4353 1004 4120 
Q 850 3888 850 3481 
Q 850 3069 1003 2837 
Q 1156 2606 1428 2606 
Q 1700 2606 1854 2837 
Q 2009 3069 2009 3481 
Q 2009 3884 1853 4118 
Q 1697 4353 1428 4353 
z
M 4250 4750 
L 4750 4750 
L 1831 -91 
L 1331 -91 
L 4250 4750 
z
M 1428 4750 
Q 1922 4750 2215 4408 
Q 2509 4066 2509 3481 
Q 2509 2891 2217 2550 
Q 1925 2209 1428 2209 
Q 931 2209 642 2551 
Q 353 2894 353 3481 
Q 353 4063 643 4406 
Q 934 4750 1428 4750 
z
" transform="scale(0.015625)"/>
       <path id="DejaVuSans-20" transform="scale(0.015625)"/>
       <path id="DejaVuSans-47" d="M 3809 666 
L 3809 1919 
L 2778 1919 
L 2778 2438 
L 4434 2438 
L 4434 434 
Q 4069 175 3628 42 
Q 3188 -91 2688 -91 
Q 1594 -91 976 548 
Q 359 1188 359 2328 
Q 359 3472 976 4111 
Q 1594 4750 2688 4750 
Q 3144 4750 3555 4637 
Q 3966 4525 4313 4306 
L 4313 3634 
Q 3963 3931 3569 4081 
Q 3175 4231 2741 4231 
Q 1884 4231 1454 3753 
Q 1025 3275 1025 2328 
Q 1025 1384 1454 906 
Q 1884 428 2741 428 
Q 3075 428 3337 486 
Q 3600 544 3809 666 
z
" transform="scale(0.015625)"/>
       <path id="DejaVuSans-43" d="M 4122 4306 
L 4122 3641 
Q 3803 3938 3442 4084 
Q 3081 4231 2675 4231 
Q 1875 4231 1450 3742 
Q 1025 3253 1025 2328 
Q 1025 1406 1450 917 
Q 1875 428 2675 428 
Q 3081 428 3442 575 
Q 3803 722 4122 1019 
L 4122 359 
Q 3791 134 3420 21 
Q 3050 -91 2638 -91 
Q 1578 -91 968 557 
Q 359 1206 359 2328 
Q 359 3453 968 4101 
Q 1578 4750 2638 4750 
Q 3056 4750 3426 4639 
Q 3797 4528 4122 4306 
z
" transform="scale(0.015625)"/>
      </defs>
      <use xlink:href="#DejaVuSans-25"/>
      <use xlink:href="#DejaVuSans-20" x="95.019531"/>
      <use xlink:href="#DejaVuSans-47" x="126.806641"/>
      <use xlink:href="#DejaVuSans-43" x="204.296875"/>
     </g>
    </g>
   </g>
   <g id="matplotlib.axis_2">
    <g id="ytick_1">
     <g id="line2d_1">
      <path d="M 32.968125 275.50206 
L 985.598125 275.50206 
" clip-path="url(#p63f7a60af4)" style="fill: none; stroke: #dedede; stroke-linecap: square"/>
     </g>
     <g id="text_8">
      <!-- 0 -->
      <g transform="translate(20.878125 278.541435) scale(0.08 -0.08)">
       <use xlink:href="#DejaVuSans-30"/>
      </g>
     </g>
    </g>
    <g id="ytick_2">
     <g id="line2d_2">
      <path d="M 32.968125 237.46483 
L 985.598125 237.46483 
" clip-path="url(#p63f7a60af4)" style="fill: none; stroke: #dedede; stroke-linecap: square"/>
     </g>
     <g id="text_9">
      <!-- 1 -->
      <g transform="translate(20.878125 240.504205) scale(0.08 -0.08)">
       <use xlink:href="#DejaVuSans-31"/>
      </g>
     </g>
    </g>
    <g id="ytick_3">
     <g id="line2d_3">
      <path d="M 32.968125 199.4276 
L 985.598125 199.4276 
" clip-path="url(#p63f7a60af4)" style="fill: none; stroke: #dedede; stroke-linecap: square"/>
     </g>
     <g id="text_10">
      <!-- 2 -->
      <g transform="translate(20.878125 202.466975) scale(0.08 -0.08)">
       <use xlink:href="#DejaVuSans-32"/>
      </g>
     </g>
    </g>
    <g id="ytick_4">
     <g id="line2d_4">
      <path d="M 32.968125 161.39037 
L 985.598125 161.39037 
" clip-path="url(#p63f7a60af4)" style="fill: none; stroke: #dedede; stroke-linecap: square"/>
     </g>
     <g id="text_11">
      <!-- 3 -->
      <g transform="translate(20.878125 164.429745) scale(0.08 -0.08)">
       <defs>
        <path id="DejaVuSans-33" d="M 2597 2516 
Q 3050 2419 3304 2112 
Q 3559 1806 3559 1356 
Q 3559 666 3084 287 
Q 2609 -91 1734 -91 
Q 1441 -91 1130 -33 
Q 819 25 488 141 
L 488 750 
Q 750 597 1062 519 
Q 1375 441 1716 441 
Q 2309 441 2620 675 
Q 2931 909 2931 1356 
Q 2931 1769 2642 2001 
Q 2353 2234 1838 2234 
L 1294 2234 
L 1294 2753 
L 1863 2753 
Q 2328 2753 2575 2939 
Q 2822 3125 2822 3475 
Q 2822 3834 2567 4026 
Q 2313 4219 1838 4219 
Q 1578 4219 1281 4162 
Q 984 4106 628 3988 
L 628 4550 
Q 988 4650 1302 4700 
Q 1616 4750 1894 4750 
Q 2613 4750 3031 4423 
Q 3450 4097 3450 3541 
Q 3450 3153 3228 2886 
Q 3006 2619 2597 2516 
z
" transform="scale(0.015625)"/>
       </defs>
       <use xlink:href="#DejaVuSans-33"/>
      </g>
     </g>
    </g>
    <g id="ytick_5">
     <g id="line2d_5">
      <path d="M 32.968125 123.35314 
L 985.598125 123.35314 
" clip-path="url(#p63f7a60af4)" style="fill: none; stroke: #dedede; stroke-linecap: square"/>
     </g>
     <g id="text_12">
      <!-- 4 -->
      <g transform="translate(20.878125 126.392515) scale(0.08 -0.08)">
       <use xlink:href="#DejaVuSans-34"/>
      </g>
     </g>
    </g>
    <g id="ytick_6">
     <g id="line2d_6">
      <path d="M 32.968125 85.31591 
L 985.598125 85.31591 
" clip-path="url(#p63f7a60af4)" style="fill: none; stroke: #dedede; stroke-linecap: square"/>
     </g>
     <g id="text_13">
      <!-- 5 -->
      <g transform="translate(20.878125 88.355285) scale(0.08 -0.08)">
       <defs>
        <path id="DejaVuSans-35" d="M 691 4666 
L 3169 4666 
L 3169 4134 
L 1269 4134 
L 1269 2991 
Q 1406 3038 1543 3061 
Q 1681 3084 1819 3084 
Q 2600 3084 3056 2656 
Q 3513 2228 3513 1497 
Q 3513 744 3044 326 
Q 2575 -91 1722 -91 
Q 1428 -91 1123 -41 
Q 819 9 494 109 
L 494 744 
Q 775 591 1075 516 
Q 1375 441 1709 441 
Q 2250 441 2565 725 
Q 2881 1009 2881 1497 
Q 2881 1984 2565 2268 
Q 2250 2553 1709 2553 
Q 1456 2553 1204 2497 
Q 953 2441 691 2322 
L 691 4666 
z
" transform="scale(0.015625)"/>
       </defs>
       <use xlink:href="#DejaVuSans-35"/>
      </g>
     </g>
    </g>
    <g id="ytick_7">
     <g id="line2d_7">
      <path d="M 32.968125 47.278681 
L 985.598125 47.278681 
" clip-path="url(#p63f7a60af4)" style="fill: none; stroke: #dedede; stroke-linecap: square"/>
     </g>
     <g id="text_14">
      <!-- 6 -->
      <g transform="translate(20.878125 50.318056) scale(0.08 -0.08)">
       <use xlink:href="#DejaVuSans-36"/>
      </g>
     </g>
    </g>
    <g id="text_15">
     <!-- Count -->
     <g transform="translate(14.798437 168.376897) rotate(-90) scale(0.1 -0.1)">
      <defs>
       <path id="DejaVuSans-6f" d="M 1959 3097 
Q 1497 3097 1228 2736 
Q 959 2375 959 1747 
Q 959 1119 1226 758 
Q 1494 397 1959 397 
Q 2419 397 2687 759 
Q 2956 1122 2956 1747 
Q 2956 2369 2687 2733 
Q 2419 3097 1959 3097 
z
M 1959 3584 
Q 2709 3584 3137 3096 
Q 3566 2609 3566 1747 
Q 3566 888 3137 398 
Q 2709 -91 1959 -91 
Q 1206 -91 779 398 
Q 353 888 353 1747 
Q 353 2609 779 3096 
Q 1206 3584 1959 3584 
z
" transform="scale(0.015625)"/>
       <path id="DejaVuSans-75" d="M 544 1381 
L 544 3500 
L 1119 3500 
L 1119 1403 
Q 1119 906 1312 657 
Q 1506 409 1894 409 
Q 2359 409 2629 706 
Q 2900 1003 2900 1516 
L 2900 3500 
L 3475 3500 
L 3475 0 
L 2900 0 
L 2900 538 
Q 2691 219 2414 64 
Q 2138 -91 1772 -91 
Q 1169 -91 856 284 
Q 544 659 544 1381 
z
M 1991 3584 
L 1991 3584 
z
" transform="scale(0.015625)"/>
       <path id="DejaVuSans-6e" d="M 3513 2113 
L 3513 0 
L 2938 0 
L 2938 2094 
Q 2938 2591 2744 2837 
Q 2550 3084 2163 3084 
Q 1697 3084 1428 2787 
Q 1159 2491 1159 1978 
L 1159 0 
L 581 0 
L 581 3500 
L 1159 3500 
L 1159 2956 
Q 1366 3272 1645 3428 
Q 1925 3584 2291 3584 
Q 2894 3584 3203 3211 
Q 3513 2838 3513 2113 
z
" transform="scale(0.015625)"/>
       <path id="DejaVuSans-74" d="M 1172 4494 
L 1172 3500 
L 2356 3500 
L 2356 3053 
L 1172 3053 
L 1172 1153 
Q 1172 725 1289 603 
Q 1406 481 1766 481 
L 2356 481 
L 2356 0 
L 1766 0 
Q 1100 0 847 248 
Q 594 497 594 1153 
L 594 3053 
L 172 3053 
L 172 3500 
L 594 3500 
L 594 4494 
L 1172 4494 
z
" transform="scale(0.015625)"/>
      </defs>
      <use xlink:href="#DejaVuSans-43"/>
      <use xlink:href="#DejaVuSans-6f" x="69.824219"/>
      <use xlink:href="#DejaVuSans-75" x="131.005859"/>
      <use xlink:href="#DejaVuSans-6e" x="194.384766"/>
      <use xlink:href="#DejaVuSans-74" x="257.763672"/>
     </g>
    </g>
    <g id="text_16">
     <!-- 1e6 -->
     <g transform="translate(32.968125 28.55486) scale(0.1 -0.1)">
      <defs>
       <path id="DejaVuSans-65" d="M 3597 1894 
L 3597 1613 
L 953 1613 
Q 991 1019 1311 708 
Q 1631 397 2203 397 
Q 2534 397 2845 478 
Q 3156 559 3463 722 
L 3463 178 
Q 3153 47 2828 -22 
Q 2503 -91 2169 -91 
Q 1331 -91 842 396 
Q 353 884 353 1716 
Q 353 2575 817 3079 
Q 1281 3584 2069 3584 
Q 2775 3584 3186 3129 
Q 3597 2675 3597 1894 
z
M 3022 2063 
Q 3016 2534 2758 2815 
Q 2500 3097 2075 3097 
Q 1594 3097 1305 2825 
Q 1016 2553 972 2059 
L 3022 2063 
z
" transform="scale(0.015625)"/>
      </defs>
      <use xlink:href="#DejaVuSans-31"/>
      <use xlink:href="#DejaVuSans-65" x="63.623047"/>
      <use xlink:href="#DejaVuSans-36" x="125.146484"/>
     </g>
    </g>
   </g>
   <g id="line2d_8">
    <path d="M 32.968125 275.483194 
L 42.494425 275.483155 
L 52.020725 275.483117 
L 61.547025 275.470014 
L 71.073325 275.45691 
L 80.599625 275.392703 
L 90.125925 275.328496 
L 99.652225 275.253829 
L 109.178525 275.179162 
L 118.704825 275.129143 
L 128.231125 275.079124 
L 137.757425 274.949284 
L 147.283725 274.819444 
L 156.810025 274.581939 
L 166.336325 274.344435 
L 175.862625 273.913169 
L 185.388925 273.481903 
L 194.915225 272.755696 
L 204.441525 272.029489 
L 213.967825 270.903663 
L 223.494125 269.777837 
L 233.020425 268.220213 
L 242.546725 266.662588 
L 252.073025 264.329841 
L 261.599325 261.997094 
L 271.125625 258.906968 
L 280.651925 252.047201 
L 290.178225 248.277559 
L 299.704525 243.748638 
L 309.230825 239.219716 
L 318.757125 234.351102 
L 328.283425 229.482489 
L 337.809725 224.153245 
L 347.336025 218.824001 
L 356.862325 212.738101 
L 366.388625 206.652201 
L 375.914925 202.284424 
L 385.441225 197.916647 
L 394.967525 195.525133 
L 404.493825 193.133618 
L 414.020125 190.848569 
L 423.546425 188.563521 
L 433.072725 187.207969 
L 442.599025 185.852417 
L 452.125325 185.804737 
L 461.651625 185.757058 
L 471.177925 186.245627 
L 480.704225 186.734196 
L 490.230525 182.983497 
L 499.756825 179.232798 
L 509.283125 188.185678 
L 518.809425 197.138558 
L 528.335725 200.036804 
L 537.862025 202.935051 
L 547.388325 186.284273 
L 556.914625 169.633494 
L 566.440925 171.299126 
L 575.967225 172.964757 
L 585.493525 189.873561 
L 595.019825 206.782365 
L 604.546125 226.982492 
L 614.072425 247.18262 
L 623.598725 251.125768 
L 633.125025 255.068917 
L 642.651325 257.776369 
L 652.177625 260.483821 
L 661.703925 263.155841 
L 671.230225 265.827861 
L 680.756525 267.450472 
L 690.282825 269.073083 
L 699.809125 269.863269 
L 709.335425 270.653454 
L 718.861725 271.716842 
L 728.388025 272.78023 
L 737.914325 273.320511 
L 747.440625 274.072241 
L 756.966925 274.283689 
L 766.493225 274.471441 
L 776.019525 274.659193 
L 785.545825 274.659535 
L 795.072125 274.659878 
L 804.598425 274.621593 
L 814.124725 274.583309 
L 823.651025 274.426215 
L 833.177325 274.269121 
L 842.703625 274.504362 
L 852.229925 274.739604 
L 861.756225 274.645214 
L 871.282525 274.550825 
L 880.808825 274.965469 
L 890.335125 275.380113 
L 899.861425 275.388861 
L 909.387725 275.39761 
L 918.914025 275.38055 
L 928.440325 275.36349 
L 937.966625 275.243388 
L 947.492925 275.123285 
L 957.019225 275.21699 
L 966.545525 275.310695 
L 976.071825 275.394167 
L 985.598125 275.47764 
" clip-path="url(#p63f7a60af4)" style="fill: none; stroke: #d9534f; stroke-linecap: square"/>
   </g>
   <g id="line2d_9">
    <path d="M 32.968125 275.481101 
L 42.494425 275.479922 
L 52.020725 275.478743 
L 61.547025 275.46796 
L 71.073325 275.457176 
L 80.599625 275.437264 
L 90.125925 275.417351 
L 99.652225 275.384316 
L 109.178525 275.35128 
L 118.704825 275.294396 
L 128.231125 275.237511 
L 137.757425 275.120356 
L 147.283725 275.003202 
L 156.810025 274.799474 
L 166.336325 274.595747 
L 175.862625 274.2238 
L 185.388925 273.851853 
L 194.915225 273.238312 
L 204.441525 272.624772 
L 213.967825 271.635633 
L 223.494125 270.646493 
L 233.020425 269.069755 
L 242.546725 267.493017 
L 252.073025 265.326093 
L 261.599325 263.159169 
L 271.125625 260.262729 
L 280.651925 253.8309 
L 290.178225 250.29551 
L 299.704525 245.853333 
L 309.230825 241.411155 
L 318.757125 236.248514 
L 328.283425 231.085873 
L 337.809725 225.655868 
L 347.336025 220.225863 
L 356.862325 214.371952 
L 366.388625 208.518042 
L 375.914925 204.587579 
L 385.441225 200.657116 
L 394.967525 197.575472 
L 404.493825 194.493829 
L 414.020125 191.390752 
L 423.546425 188.287675 
L 433.072725 187.88933 
L 442.599025 187.490985 
L 452.125325 186.720484 
L 461.651625 185.949983 
L 471.177925 186.768354 
L 480.704225 187.586725 
L 490.230525 188.498078 
L 499.756825 189.409431 
L 509.283125 193.561346 
L 518.809425 197.713262 
L 528.335725 202.288418 
L 537.862025 206.863574 
L 547.388325 209.823708 
L 556.914625 212.783841 
L 566.440925 217.802949 
L 575.967225 222.822056 
L 585.493525 228.235762 
L 595.019825 233.649468 
L 604.546125 238.77603 
L 614.072425 243.902593 
L 623.598725 248.862724 
L 633.125025 253.822855 
L 642.651325 256.184853 
L 652.177625 258.546851 
L 661.703925 261.03614 
L 671.230225 263.52543 
L 680.756525 265.186249 
L 690.282825 266.847069 
L 699.809125 268.177269 
L 709.335425 269.507469 
L 718.861725 270.686433 
L 728.388025 271.865397 
L 737.914325 272.450352 
L 747.440625 273.243238 
L 756.966925 273.451169 
L 766.493225 273.660488 
L 776.019525 273.869806 
L 785.545825 273.81644 
L 795.072125 273.763074 
L 804.598425 274.069312 
L 814.124725 274.375549 
L 823.651025 274.509307 
L 833.177325 274.643065 
L 842.703625 274.755655 
L 852.229925 274.868246 
L 861.756225 274.530817 
L 871.282525 274.193389 
L 880.808825 274.43464 
L 890.335125 274.675891 
L 899.861425 274.986256 
L 909.387725 275.296621 
L 918.914025 275.312825 
L 928.440325 275.329029 
L 937.966625 275.297534 
L 947.492925 275.266039 
L 957.019225 274.806188 
L 966.545525 274.346337 
L 976.071825 205.788186 
L 985.598125 137.230035 
" clip-path="url(#p63f7a60af4)" style="fill: none; stroke: #d9534f; stroke-linecap: square"/>
   </g>
   <g id="line2d_10">
    <path d="M 32.968125 275.487035 
L 42.494425 275.481254 
L 52.020725 275.475472 
L 61.547025 275.459249 
L 71.073325 275.443026 
L 80.599625 275.386465 
L 90.125925 275.329903 
L 99.652225 275.242722 
L 109.178525 275.155541 
L 118.704825 275.075758 
L 128.231125 274.995975 
L 137.757425 274.812806 
L 147.283725 274.629638 
L 156.810025 274.285173 
L 166.336325 273.940708 
L 175.862625 273.365604 
L 185.388925 272.7905 
L 194.915225 271.783464 
L 204.441525 270.776429 
L 213.967825 269.271562 
L 223.494125 267.766695 
L 233.020425 265.753841 
L 242.546725 263.740987 
L 252.073025 260.732451 
L 261.599325 257.723915 
L 271.125625 253.783962 
L 280.651925 245.154665 
L 290.178225 240.465321 
L 299.704525 235.130485 
L 309.230825 229.79565 
L 318.757125 223.938125 
L 328.283425 218.080601 
L 337.809725 212.041811 
L 347.336025 206.00302 
L 356.862325 199.499491 
L 366.388625 192.995961 
L 375.914925 188.225103 
L 385.441225 183.454246 
L 394.967525 180.725569 
L 404.493825 177.996892 
L 414.020125 175.343035 
L 423.546425 172.689177 
L 433.072725 171.478433 
L 442.599025 170.267689 
L 452.125325 170.596711 
L 461.651625 170.925733 
L 471.177925 171.397965 
L 480.704225 171.870198 
L 490.230525 170.612706 
L 499.756825 169.355214 
L 509.283125 176.53282 
L 518.809425 183.710427 
L 528.335725 155.514189 
L 537.862025 127.317951 
L 547.388325 165.56218 
L 556.914625 203.806408 
L 566.440925 212.495214 
L 575.967225 221.184021 
L 585.493525 226.883843 
L 595.019825 232.583665 
L 604.546125 238.527685 
L 614.072425 244.471706 
L 623.598725 248.712097 
L 633.125025 252.952487 
L 642.651325 256.156477 
L 652.177625 259.360467 
L 661.703925 262.211795 
L 671.230225 265.063123 
L 680.756525 266.842961 
L 690.282825 268.622799 
L 699.809125 269.641626 
L 709.335425 270.660453 
L 718.861725 271.662145 
L 728.388025 272.663836 
L 737.914325 273.156779 
L 747.440625 273.904515 
L 756.966925 274.159308 
L 766.493225 274.421993 
L 776.019525 274.684678 
L 785.545825 274.736028 
L 795.072125 274.787378 
L 804.598425 274.778421 
L 814.124725 274.769463 
L 823.651025 274.600654 
L 833.177325 274.431844 
L 842.703625 274.66254 
L 852.229925 274.893236 
L 861.756225 274.841981 
L 871.282525 274.790726 
L 880.808825 275.08812 
L 890.335125 275.385514 
L 899.861425 275.381634 
L 909.387725 275.377754 
L 918.914025 275.315449 
L 928.440325 275.253144 
L 937.966625 274.774978 
L 947.492925 274.296812 
L 957.019225 274.33987 
L 966.545525 274.382929 
L 976.071825 274.87513 
L 985.598125 275.367332 
" clip-path="url(#p63f7a60af4)" style="fill: none; stroke: #d9534f; stroke-linecap: square"/>
   </g>
   <g id="line2d_11">
    <path d="M 32.968125 275.485552 
L 42.494425 275.481558 
L 52.020725 275.477564 
L 61.547025 275.462863 
L 71.073325 275.448161 
L 80.599625 275.428515 
L 90.125925 275.408869 
L 99.652225 275.363624 
L 109.178525 275.318378 
L 118.704825 275.242855 
L 128.231125 275.167332 
L 137.757425 275.011589 
L 147.283725 274.855846 
L 156.810025 274.581236 
L 166.336325 274.306626 
L 175.862625 273.817524 
L 185.388925 273.328422 
L 194.915225 272.531942 
L 204.441525 271.735461 
L 213.967825 270.409788 
L 223.494125 269.084114 
L 233.020425 267.06352 
L 242.546725 265.042925 
L 252.073025 262.288953 
L 261.599325 259.534982 
L 271.125625 255.912506 
L 280.651925 247.888724 
L 290.178225 243.487417 
L 299.704525 238.090847 
L 309.230825 232.694277 
L 318.757125 226.755011 
L 328.283425 220.815744 
L 337.809725 214.809266 
L 347.336025 208.802788 
L 356.862325 202.797718 
L 366.388625 196.792647 
L 375.914925 192.081223 
L 385.441225 187.369798 
L 394.967525 183.449738 
L 404.493825 179.529679 
L 414.020125 176.142825 
L 423.546425 172.755971 
L 433.072725 172.150684 
L 442.599025 171.545398 
L 452.125325 170.949887 
L 461.651625 170.354376 
L 471.177925 171.098099 
L 480.704225 171.841822 
L 490.230525 173.308233 
L 499.756825 174.774644 
L 509.283125 179.30988 
L 518.809425 183.845116 
L 528.335725 189.163349 
L 537.862025 194.481581 
L 547.388325 199.413032 
L 556.914625 204.344483 
L 566.440925 210.403319 
L 575.967225 216.462155 
L 585.493525 222.640485 
L 595.019825 228.818816 
L 604.546125 234.649505 
L 614.072425 240.480193 
L 623.598725 245.803656 
L 633.125025 251.127118 
L 642.651325 254.217548 
L 652.177625 257.307978 
L 661.703925 260.119101 
L 671.230225 262.930223 
L 680.756525 264.834024 
L 690.282825 266.737826 
L 699.809125 268.063252 
L 709.335425 269.388678 
L 718.861725 270.475497 
L 728.388025 271.562316 
L 737.914325 272.171083 
L 747.440625 273.075703 
L 756.966925 273.371557 
L 766.493225 273.586258 
L 776.019525 273.800959 
L 785.545825 273.85927 
L 795.072125 273.917581 
L 804.598425 274.180456 
L 814.124725 274.443332 
L 823.651025 274.560505 
L 833.177325 274.677679 
L 842.703625 274.793845 
L 852.229925 274.910011 
L 861.756225 274.65461 
L 871.282525 274.399209 
L 880.808825 274.577071 
L 890.335125 274.754933 
L 899.861425 275.023419 
L 909.387725 275.291904 
L 918.914025 275.30904 
L 928.440325 275.326176 
L 937.966625 275.316895 
L 947.492925 275.307614 
L 957.019225 275.020414 
L 966.545525 274.733213 
L 976.071825 235.955304 
L 985.598125 197.177394 
" clip-path="url(#p63f7a60af4)" style="fill: none; stroke: #d9534f; stroke-linecap: square"/>
   </g>
   <g id="line2d_12">
    <path d="M 32.968125 275.486198 
L 42.494425 275.483289 
L 52.020725 275.480379 
L 61.547025 275.467351 
L 71.073325 275.454323 
L 80.599625 275.413167 
L 90.125925 275.372011 
L 99.652225 275.312387 
L 109.178525 275.252764 
L 118.704825 275.174464 
L 128.231125 275.096165 
L 137.757425 274.942799 
L 147.283725 274.789432 
L 156.810025 274.515755 
L 166.336325 274.242077 
L 175.862625 273.725208 
L 185.388925 273.208339 
L 194.915225 272.387153 
L 204.441525 271.565967 
L 213.967825 270.295923 
L 223.494125 269.025879 
L 233.020425 267.287369 
L 242.546725 265.548858 
L 252.073025 263.014418 
L 261.599325 260.479979 
L 271.125625 257.101455 
L 280.651925 249.794503 
L 290.178225 245.866075 
L 299.704525 241.216632 
L 309.230825 236.56719 
L 318.757125 231.497055 
L 328.283425 226.42692 
L 337.809725 221.170537 
L 347.336025 215.914153 
L 356.862325 210.117146 
L 366.388625 204.320139 
L 375.914925 200.140798 
L 385.441225 195.961458 
L 394.967525 193.362811 
L 404.493825 190.764165 
L 414.020125 188.313996 
L 423.546425 185.863828 
L 433.072725 184.438935 
L 442.599025 183.014041 
L 452.125325 182.984752 
L 461.651625 182.955464 
L 471.177925 181.429163 
L 480.704225 179.902862 
L 490.230525 159.621867 
L 499.756825 139.340873 
L 509.283125 161.670362 
L 518.809425 183.999852 
L 528.335725 194.739017 
L 537.862025 205.478182 
L 547.388325 210.614939 
L 556.914625 215.751696 
L 566.440925 221.788014 
L 575.967225 227.824332 
L 585.493525 232.810576 
L 595.019825 237.796819 
L 604.546125 242.93 
L 614.072425 248.063182 
L 623.598725 251.869624 
L 633.125025 255.676067 
L 642.651325 258.434869 
L 652.177625 261.193671 
L 661.703925 263.718944 
L 671.230225 266.244217 
L 680.756525 267.789745 
L 690.282825 269.335274 
L 699.809125 270.276372 
L 709.335425 271.21747 
L 718.861725 272.089474 
L 728.388025 272.961477 
L 737.914325 273.391108 
L 747.440625 274.049551 
L 756.966925 274.278364 
L 766.493225 274.527394 
L 776.019525 274.776424 
L 785.545825 274.813909 
L 795.072125 274.851395 
L 804.598425 274.851661 
L 814.124725 274.851928 
L 823.651025 274.721517 
L 833.177325 274.591106 
L 842.703625 274.796298 
L 852.229925 275.00149 
L 861.756225 274.976252 
L 871.282525 274.951015 
L 880.808825 275.182072 
L 890.335125 275.413129 
L 899.861425 275.424065 
L 909.387725 275.435 
L 918.914025 275.425776 
L 928.440325 275.416552 
L 937.966625 275.364308 
L 947.492925 275.312064 
L 957.019225 275.371878 
L 966.545525 275.431691 
L 976.071825 275.463167 
L 985.598125 275.494643 
" clip-path="url(#p63f7a60af4)" style="fill: none; stroke: #d9534f; stroke-linecap: square"/>
   </g>
   <g id="line2d_13">
    <path d="M 32.968125 275.488633 
L 42.494425 275.484163 
L 52.020725 275.479694 
L 61.547025 275.468911 
L 71.073325 275.458127 
L 80.599625 275.439451 
L 90.125925 275.420774 
L 99.652225 275.38597 
L 109.178525 275.351166 
L 118.704825 275.286237 
L 128.231125 275.221307 
L 137.757425 275.094605 
L 147.283725 274.967903 
L 156.810025 274.715013 
L 166.336325 274.462122 
L 175.862625 274.052233 
L 185.388925 273.642344 
L 194.915225 272.959119 
L 204.441525 272.275894 
L 213.967825 271.112526 
L 223.494125 269.949157 
L 233.020425 268.226127 
L 242.546725 266.503098 
L 252.073025 264.146121 
L 261.599325 261.789144 
L 271.125625 258.631674 
L 280.651925 251.717894 
L 290.178225 247.961584 
L 299.704525 243.333328 
L 309.230825 238.705072 
L 318.757125 233.594143 
L 328.283425 228.483213 
L 337.809725 223.212489 
L 347.336025 217.941765 
L 356.862325 212.617238 
L 366.388625 207.29271 
L 375.914925 203.198706 
L 385.441225 199.104702 
L 394.967525 195.680286 
L 404.493825 192.255871 
L 414.020125 189.130998 
L 423.546425 186.006126 
L 433.072725 185.257971 
L 442.599025 184.509817 
L 452.125325 183.913488 
L 461.651625 183.31716 
L 471.177925 183.783534 
L 480.704225 184.249909 
L 490.230525 185.558827 
L 499.756825 186.867745 
L 509.283125 190.733012 
L 518.809425 194.598279 
L 528.335725 199.355805 
L 537.862025 204.11333 
L 547.388325 208.357715 
L 556.914625 212.602099 
L 566.440925 218.113675 
L 575.967225 223.62525 
L 585.493525 229.134981 
L 595.019825 234.644712 
L 604.546125 239.717794 
L 614.072425 244.790877 
L 623.598725 249.480753 
L 633.125025 254.170629 
L 642.651325 256.890767 
L 652.177625 259.610904 
L 661.703925 262.042795 
L 671.230225 264.474687 
L 680.756525 266.132996 
L 690.282825 267.791305 
L 699.809125 268.936967 
L 709.335425 270.08263 
L 718.861725 271.072682 
L 728.388025 272.062734 
L 737.914325 272.554327 
L 747.440625 273.342249 
L 756.966925 273.638578 
L 766.493225 273.838654 
L 776.019525 274.03873 
L 785.545825 274.06819 
L 795.072125 274.097649 
L 804.598425 274.354477 
L 814.124725 274.611304 
L 823.651025 274.711038 
L 833.177325 274.810771 
L 842.703625 274.914004 
L 852.229925 275.017237 
L 861.756225 274.815374 
L 871.282525 274.61351 
L 880.808825 274.753544 
L 890.335125 274.893578 
L 899.861425 275.119177 
L 909.387725 275.344776 
L 918.914025 275.359439 
L 928.440325 275.374103 
L 937.966625 275.354761 
L 947.492925 275.335419 
L 957.019225 275.070452 
L 966.545525 274.805484 
L 976.071825 245.610997 
L 985.598125 216.416511 
" clip-path="url(#p63f7a60af4)" style="fill: none; stroke: #d9534f; stroke-linecap: square"/>
   </g>
   <g id="line2d_14">
    <path d="M 32.968125 275.486997 
L 42.494425 275.484125 
L 52.020725 275.481254 
L 61.547025 275.470984 
L 71.073325 275.460714 
L 80.599625 275.411836 
L 90.125925 275.362958 
L 99.652225 275.293369 
L 109.178525 275.22378 
L 118.704825 275.179523 
L 128.231125 275.135267 
L 137.757425 275.018188 
L 147.283725 274.90111 
L 156.810025 274.689261 
L 166.336325 274.477413 
L 175.862625 274.084622 
L 185.388925 273.69183 
L 194.915225 273.049914 
L 204.441525 272.407998 
L 213.967825 271.393164 
L 223.494125 270.378331 
L 233.020425 268.969946 
L 242.546725 267.56156 
L 252.073025 265.45542 
L 261.599325 263.349279 
L 271.125625 260.658868 
L 280.651925 254.755927 
L 290.178225 251.543398 
L 299.704525 247.803197 
L 309.230825 244.062996 
L 318.757125 240.022777 
L 328.283425 235.982557 
L 337.809725 231.704947 
L 347.336025 227.427338 
L 356.862325 222.662262 
L 366.388625 217.897186 
L 375.914925 214.549035 
L 385.441225 211.200884 
L 394.967525 209.474868 
L 404.493825 207.748853 
L 414.020125 205.96679 
L 423.546425 204.184726 
L 433.072725 203.344788 
L 442.599025 202.50485 
L 452.125325 202.739958 
L 461.651625 202.975066 
L 471.177925 201.904166 
L 480.704225 200.833266 
L 490.230525 122.002153 
L 499.756825 43.17104 
L 509.283125 126.357245 
L 518.809425 209.543449 
L 528.335725 215.872806 
L 537.862025 222.202163 
L 547.388325 225.085633 
L 556.914625 227.969102 
L 566.440925 232.965672 
L 575.967225 237.962243 
L 585.493525 241.388427 
L 595.019825 244.814612 
L 604.546125 249.206999 
L 614.072425 253.599386 
L 623.598725 256.545465 
L 633.125025 259.491543 
L 642.651325 261.571723 
L 652.177625 263.651903 
L 661.703925 265.838055 
L 671.230225 268.024207 
L 680.756525 269.23845 
L 690.282825 270.452694 
L 699.809125 271.258246 
L 709.335425 272.063799 
L 718.861725 272.743923 
L 728.388025 273.424048 
L 737.914325 273.819426 
L 747.440625 274.388178 
L 756.966925 274.561551 
L 766.493225 274.739718 
L 776.019525 274.917884 
L 785.545825 274.938234 
L 795.072125 274.958584 
L 804.598425 274.941753 
L 814.124725 274.924921 
L 823.651025 274.815051 
L 833.177325 274.70518 
L 842.703625 274.881939 
L 852.229925 275.058698 
L 861.756225 274.997154 
L 871.282525 274.93561 
L 880.808825 275.178515 
L 890.335125 275.421421 
L 899.861425 275.427564 
L 909.387725 275.433707 
L 918.914025 275.417846 
L 928.440325 275.401984 
L 937.966625 275.333612 
L 947.492925 275.26524 
L 957.019225 275.353905 
L 966.545525 275.44257 
L 976.071825 275.468055 
L 985.598125 275.49354 
" clip-path="url(#p63f7a60af4)" style="fill: none; stroke: #d9534f; stroke-linecap: square"/>
   </g>
   <g id="line2d_15">
    <path d="M 32.968125 275.480036 
L 42.494425 275.475985 
L 52.020725 275.471935 
L 61.547025 275.455464 
L 71.073325 275.438994 
L 80.599625 275.420908 
L 90.125925 275.402821 
L 99.652225 275.373057 
L 109.178525 275.343293 
L 118.704825 275.29392 
L 128.231125 275.244548 
L 137.757425 275.140801 
L 147.283725 275.037055 
L 156.810025 274.853506 
L 166.336325 274.669958 
L 175.862625 274.334659 
L 185.388925 273.999361 
L 194.915225 273.4556 
L 204.441525 272.911839 
L 213.967825 271.998242 
L 223.494125 271.084644 
L 233.020425 269.658381 
L 242.546725 268.232118 
L 252.073025 266.321242 
L 261.599325 264.410366 
L 271.125625 261.892263 
L 280.651925 256.41513 
L 290.178225 253.4561 
L 299.704525 249.749638 
L 309.230825 246.043176 
L 318.757125 241.806266 
L 328.283425 237.569356 
L 337.809725 233.271073 
L 347.336025 228.97279 
L 356.862325 224.587326 
L 366.388625 220.201862 
L 375.914925 216.993725 
L 385.441225 213.785589 
L 394.967525 211.23759 
L 404.493825 208.68959 
L 414.020125 206.36483 
L 423.546425 204.040071 
L 433.072725 203.839405 
L 442.599025 203.63874 
L 452.125325 203.211011 
L 461.651625 202.783283 
L 471.177925 203.620501 
L 480.704225 204.45772 
L 490.230525 205.238148 
L 499.756825 206.018577 
L 509.283125 209.564446 
L 518.809425 213.110314 
L 528.335725 216.73802 
L 537.862025 220.365726 
L 547.388325 223.144992 
L 556.914625 225.924258 
L 566.440925 229.894661 
L 575.967225 233.865063 
L 585.493525 238.089896 
L 595.019825 242.314729 
L 604.546125 246.404929 
L 614.072425 250.49513 
L 623.598725 254.284779 
L 633.125025 258.074428 
L 642.651325 260.048694 
L 652.177625 262.022959 
L 661.703925 264.043421 
L 671.230225 266.063882 
L 680.756525 267.433603 
L 690.282825 268.803323 
L 699.809125 269.798035 
L 709.335425 270.792747 
L 718.861725 271.723366 
L 728.388025 272.653984 
L 737.914325 272.995045 
L 747.440625 273.665109 
L 756.966925 273.994112 
L 766.493225 274.113283 
L 776.019525 274.232453 
L 785.545825 274.265546 
L 795.072125 274.298638 
L 804.598425 274.500559 
L 814.124725 274.702479 
L 823.651025 274.79162 
L 833.177325 274.88076 
L 842.703625 274.966895 
L 852.229925 275.053031 
L 861.756225 274.859915 
L 871.282525 274.6668 
L 880.808825 274.80518 
L 890.335125 274.943559 
L 899.861425 275.136066 
L 909.387725 275.328572 
L 918.914025 275.328458 
L 928.440325 275.328344 
L 937.966625 275.291961 
L 947.492925 275.255579 
L 957.019225 274.766173 
L 966.545525 274.276767 
L 976.071825 194.044495 
L 985.598125 113.812224 
" clip-path="url(#p63f7a60af4)" style="fill: none; stroke: #d9534f; stroke-linecap: square"/>
   </g>
   <g id="line2d_16">
    <path d="M 32.968125 275.489394 
L 42.494425 275.48656 
L 52.020725 275.483726 
L 61.547025 275.471782 
L 71.073325 275.459839 
L 80.599625 275.421402 
L 90.125925 275.382965 
L 99.652225 275.32977 
L 109.178525 275.276575 
L 118.704825 275.218664 
L 128.231125 275.160752 
L 137.757425 275.042989 
L 147.283725 274.925225 
L 156.810025 274.705104 
L 166.336325 274.484983 
L 175.862625 274.10558 
L 185.388925 273.726178 
L 194.915225 273.070321 
L 204.441525 272.414464 
L 213.967825 271.383046 
L 223.494125 270.351629 
L 233.020425 268.971695 
L 242.546725 267.591762 
L 252.073025 265.562209 
L 261.599325 263.532657 
L 271.125625 260.831576 
L 280.651925 254.846342 
L 290.178225 251.562188 
L 299.704525 247.799526 
L 309.230825 244.036865 
L 318.757125 239.9359 
L 328.283425 235.834935 
L 337.809725 231.61575 
L 347.336025 227.396566 
L 356.862325 222.721162 
L 366.388625 218.045759 
L 375.914925 214.710959 
L 385.441225 211.376159 
L 394.967525 209.498851 
L 404.493825 207.621542 
L 414.020125 205.79237 
L 423.546425 203.963198 
L 433.072725 202.995835 
L 442.599025 202.028472 
L 452.125325 201.235034 
L 461.651625 200.441597 
L 471.177925 179.943847 
L 480.704225 159.446097 
L 490.230525 175.974358 
L 499.756825 192.502618 
L 509.283125 201.413771 
L 518.809425 210.324924 
L 528.335725 215.605138 
L 537.862025 220.885353 
L 547.388325 224.512754 
L 556.914625 228.140155 
L 566.440925 232.788305 
L 575.967225 237.436454 
L 585.493525 241.258378 
L 595.019825 245.080302 
L 604.546125 249.47617 
L 614.072425 253.872037 
L 623.598725 256.862239 
L 633.125025 259.852441 
L 642.651325 262.008048 
L 652.177625 264.163656 
L 661.703925 266.098515 
L 671.230225 268.033374 
L 680.756525 269.285521 
L 690.282825 270.537669 
L 699.809125 271.199117 
L 709.335425 271.860566 
L 718.861725 272.653167 
L 728.388025 273.445767 
L 737.914325 273.808947 
L 747.440625 274.348885 
L 756.966925 274.525644 
L 766.493225 274.696279 
L 776.019525 274.866914 
L 785.545825 274.889984 
L 795.072125 274.913053 
L 804.598425 274.921117 
L 814.124725 274.929181 
L 823.651025 274.851871 
L 833.177325 274.77456 
L 842.703625 274.902118 
L 852.229925 275.029676 
L 861.756225 274.960733 
L 871.282525 274.891791 
L 880.808825 275.162178 
L 890.335125 275.432566 
L 899.861425 275.434715 
L 909.387725 275.436864 
L 918.914025 275.416552 
L 928.440325 275.39624 
L 937.966625 275.265373 
L 947.492925 275.134506 
L 957.019225 275.176899 
L 966.545525 275.219291 
L 976.071825 275.345061 
L 985.598125 275.470831 
" clip-path="url(#p63f7a60af4)" style="fill: none; stroke: #f0ad4e; stroke-linecap: square"/>
   </g>
   <g id="line2d_17">
    <path d="M 32.968125 275.490383 
L 42.494425 275.488043 
L 52.020725 275.485704 
L 61.547025 275.478458 
L 71.073325 275.471212 
L 80.599625 275.457195 
L 90.125925 275.443178 
L 99.652225 275.417674 
L 109.178525 275.39217 
L 118.704825 275.343083 
L 128.231125 275.293996 
L 137.757425 275.201756 
L 147.283725 275.109516 
L 156.810025 274.933803 
L 166.336325 274.75809 
L 175.862625 274.443408 
L 185.388925 274.128726 
L 194.915225 273.606798 
L 204.441525 273.08487 
L 213.967825 272.190786 
L 223.494125 271.296702 
L 233.020425 269.939572 
L 242.546725 268.582441 
L 252.073025 266.697164 
L 261.599325 264.811887 
L 271.125625 262.27467 
L 280.651925 256.696111 
L 290.178225 253.654768 
L 299.704525 249.889178 
L 309.230825 246.123587 
L 318.757125 241.924353 
L 328.283425 237.725119 
L 337.809725 233.406524 
L 347.336025 229.087929 
L 356.862325 224.765492 
L 366.388625 220.443056 
L 375.914925 217.259282 
L 385.441225 214.075509 
L 394.967525 211.501872 
L 404.493825 208.928235 
L 414.020125 206.488622 
L 423.546425 204.04901 
L 433.072725 203.543628 
L 442.599025 203.038246 
L 452.125325 202.52366 
L 461.651625 202.009073 
L 471.177925 202.425371 
L 480.704225 202.84167 
L 490.230525 203.819417 
L 499.756825 204.797164 
L 509.283125 207.93611 
L 518.809425 211.075056 
L 528.335725 214.762766 
L 537.862025 218.450475 
L 547.388325 221.7658 
L 556.914625 225.081125 
L 566.440925 229.338271 
L 575.967225 233.595417 
L 585.493525 238.00707 
L 595.019825 242.418723 
L 604.546125 246.651943 
L 614.072425 250.885164 
L 623.598725 254.664219 
L 633.125025 258.443275 
L 642.651325 260.537719 
L 652.177625 262.632163 
L 661.703925 264.613998 
L 671.230225 266.595833 
L 680.756525 267.940791 
L 690.282825 269.28575 
L 699.809125 270.199746 
L 709.335425 271.113743 
L 718.861725 271.924468 
L 728.388025 272.735194 
L 737.914325 273.169351 
L 747.440625 273.81062 
L 756.966925 274.017733 
L 766.493225 274.149285 
L 776.019525 274.280837 
L 785.545825 274.266421 
L 795.072125 274.252004 
L 804.598425 274.486219 
L 814.124725 274.720433 
L 823.651025 274.815602 
L 833.177325 274.910771 
L 842.703625 275.014423 
L 852.229925 275.118074 
L 861.756225 274.923076 
L 871.282525 274.728078 
L 880.808825 274.922144 
L 890.335125 275.11621 
L 899.861425 275.253506 
L 909.387725 275.390801 
L 918.914025 275.399378 
L 928.440325 275.407956 
L 937.966625 275.399321 
L 947.492925 275.390687 
L 957.019225 275.218645 
L 966.545525 275.046602 
L 976.071825 247.691938 
L 985.598125 220.337274 
" clip-path="url(#p63f7a60af4)" style="fill: none; stroke: #d9534f; stroke-linecap: square"/>
   </g>
   <g id="line2d_18">
    <path d="M 32.968125 275.50206 
L 985.598125 275.50206 
" clip-path="url(#p63f7a60af4)" style="fill: none; stroke: #dedede; stroke-width: 2; stroke-linecap: square"/>
   </g>
   <g id="text_17">
    <!-- FastQC: Per Sequence GC Content -->
    <g transform="translate(372.646875 19.3575) scale(0.16 -0.16)">
     <defs>
      <path id="DejaVuSans-46" d="M 628 4666 
L 3309 4666 
L 3309 4134 
L 1259 4134 
L 1259 2759 
L 3109 2759 
L 3109 2228 
L 1259 2228 
L 1259 0 
L 628 0 
L 628 4666 
z
" transform="scale(0.015625)"/>
      <path id="DejaVuSans-61" d="M 2194 1759 
Q 1497 1759 1228 1600 
Q 959 1441 959 1056 
Q 959 750 1161 570 
Q 1363 391 1709 391 
Q 2188 391 2477 730 
Q 2766 1069 2766 1631 
L 2766 1759 
L 2194 1759 
z
M 3341 1997 
L 3341 0 
L 2766 0 
L 2766 531 
Q 2569 213 2275 61 
Q 1981 -91 1556 -91 
Q 1019 -91 701 211 
Q 384 513 384 1019 
Q 384 1609 779 1909 
Q 1175 2209 1959 2209 
L 2766 2209 
L 2766 2266 
Q 2766 2663 2505 2880 
Q 2244 3097 1772 3097 
Q 1472 3097 1187 3025 
Q 903 2953 641 2809 
L 641 3341 
Q 956 3463 1253 3523 
Q 1550 3584 1831 3584 
Q 2591 3584 2966 3190 
Q 3341 2797 3341 1997 
z
" transform="scale(0.015625)"/>
      <path id="DejaVuSans-73" d="M 2834 3397 
L 2834 2853 
Q 2591 2978 2328 3040 
Q 2066 3103 1784 3103 
Q 1356 3103 1142 2972 
Q 928 2841 928 2578 
Q 928 2378 1081 2264 
Q 1234 2150 1697 2047 
L 1894 2003 
Q 2506 1872 2764 1633 
Q 3022 1394 3022 966 
Q 3022 478 2636 193 
Q 2250 -91 1575 -91 
Q 1294 -91 989 -36 
Q 684 19 347 128 
L 347 722 
Q 666 556 975 473 
Q 1284 391 1588 391 
Q 1994 391 2212 530 
Q 2431 669 2431 922 
Q 2431 1156 2273 1281 
Q 2116 1406 1581 1522 
L 1381 1569 
Q 847 1681 609 1914 
Q 372 2147 372 2553 
Q 372 3047 722 3315 
Q 1072 3584 1716 3584 
Q 2034 3584 2315 3537 
Q 2597 3491 2834 3397 
z
" transform="scale(0.015625)"/>
      <path id="DejaVuSans-51" d="M 2522 4238 
Q 1834 4238 1429 3725 
Q 1025 3213 1025 2328 
Q 1025 1447 1429 934 
Q 1834 422 2522 422 
Q 3209 422 3611 934 
Q 4013 1447 4013 2328 
Q 4013 3213 3611 3725 
Q 3209 4238 2522 4238 
z
M 3406 84 
L 4238 -825 
L 3475 -825 
L 2784 -78 
Q 2681 -84 2626 -87 
Q 2572 -91 2522 -91 
Q 1538 -91 948 567 
Q 359 1225 359 2328 
Q 359 3434 948 4092 
Q 1538 4750 2522 4750 
Q 3503 4750 4090 4092 
Q 4678 3434 4678 2328 
Q 4678 1516 4351 937 
Q 4025 359 3406 84 
z
" transform="scale(0.015625)"/>
      <path id="DejaVuSans-3a" d="M 750 794 
L 1409 794 
L 1409 0 
L 750 0 
L 750 794 
z
M 750 3309 
L 1409 3309 
L 1409 2516 
L 750 2516 
L 750 3309 
z
" transform="scale(0.015625)"/>
      <path id="DejaVuSans-50" d="M 1259 4147 
L 1259 2394 
L 2053 2394 
Q 2494 2394 2734 2622 
Q 2975 2850 2975 3272 
Q 2975 3691 2734 3919 
Q 2494 4147 2053 4147 
L 1259 4147 
z
M 628 4666 
L 2053 4666 
Q 2838 4666 3239 4311 
Q 3641 3956 3641 3272 
Q 3641 2581 3239 2228 
Q 2838 1875 2053 1875 
L 1259 1875 
L 1259 0 
L 628 0 
L 628 4666 
z
" transform="scale(0.015625)"/>
      <path id="DejaVuSans-72" d="M 2631 2963 
Q 2534 3019 2420 3045 
Q 2306 3072 2169 3072 
Q 1681 3072 1420 2755 
Q 1159 2438 1159 1844 
L 1159 0 
L 581 0 
L 581 3500 
L 1159 3500 
L 1159 2956 
Q 1341 3275 1631 3429 
Q 1922 3584 2338 3584 
Q 2397 3584 2469 3576 
Q 2541 3569 2628 3553 
L 2631 2963 
z
" transform="scale(0.015625)"/>
      <path id="DejaVuSans-53" d="M 3425 4513 
L 3425 3897 
Q 3066 4069 2747 4153 
Q 2428 4238 2131 4238 
Q 1616 4238 1336 4038 
Q 1056 3838 1056 3469 
Q 1056 3159 1242 3001 
Q 1428 2844 1947 2747 
L 2328 2669 
Q 3034 2534 3370 2195 
Q 3706 1856 3706 1288 
Q 3706 609 3251 259 
Q 2797 -91 1919 -91 
Q 1588 -91 1214 -16 
Q 841 59 441 206 
L 441 856 
Q 825 641 1194 531 
Q 1563 422 1919 422 
Q 2459 422 2753 634 
Q 3047 847 3047 1241 
Q 3047 1584 2836 1778 
Q 2625 1972 2144 2069 
L 1759 2144 
Q 1053 2284 737 2584 
Q 422 2884 422 3419 
Q 422 4038 858 4394 
Q 1294 4750 2059 4750 
Q 2388 4750 2728 4690 
Q 3069 4631 3425 4513 
z
" transform="scale(0.015625)"/>
      <path id="DejaVuSans-71" d="M 947 1747 
Q 947 1113 1208 752 
Q 1469 391 1925 391 
Q 2381 391 2643 752 
Q 2906 1113 2906 1747 
Q 2906 2381 2643 2742 
Q 2381 3103 1925 3103 
Q 1469 3103 1208 2742 
Q 947 2381 947 1747 
z
M 2906 525 
Q 2725 213 2448 61 
Q 2172 -91 1784 -91 
Q 1150 -91 751 415 
Q 353 922 353 1747 
Q 353 2572 751 3078 
Q 1150 3584 1784 3584 
Q 2172 3584 2448 3432 
Q 2725 3281 2906 2969 
L 2906 3500 
L 3481 3500 
L 3481 -1331 
L 2906 -1331 
L 2906 525 
z
" transform="scale(0.015625)"/>
      <path id="DejaVuSans-63" d="M 3122 3366 
L 3122 2828 
Q 2878 2963 2633 3030 
Q 2388 3097 2138 3097 
Q 1578 3097 1268 2742 
Q 959 2388 959 1747 
Q 959 1106 1268 751 
Q 1578 397 2138 397 
Q 2388 397 2633 464 
Q 2878 531 3122 666 
L 3122 134 
Q 2881 22 2623 -34 
Q 2366 -91 2075 -91 
Q 1284 -91 818 406 
Q 353 903 353 1747 
Q 353 2603 823 3093 
Q 1294 3584 2113 3584 
Q 2378 3584 2631 3529 
Q 2884 3475 3122 3366 
z
" transform="scale(0.015625)"/>
     </defs>
     <use xlink:href="#DejaVuSans-46"/>
     <use xlink:href="#DejaVuSans-61" x="48.394531"/>
     <use xlink:href="#DejaVuSans-73" x="109.673828"/>
     <use xlink:href="#DejaVuSans-74" x="161.773438"/>
     <use xlink:href="#DejaVuSans-51" x="200.982422"/>
     <use xlink:href="#DejaVuSans-43" x="279.693359"/>
     <use xlink:href="#DejaVuSans-3a" x="349.517578"/>
     <use xlink:href="#DejaVuSans-20" x="383.208984"/>
     <use xlink:href="#DejaVuSans-50" x="414.996094"/>
     <use xlink:href="#DejaVuSans-65" x="471.673828"/>
     <use xlink:href="#DejaVuSans-72" x="533.197266"/>
     <use xlink:href="#DejaVuSans-20" x="574.310547"/>
     <use xlink:href="#DejaVuSans-53" x="606.097656"/>
     <use xlink:href="#DejaVuSans-65" x="669.574219"/>
     <use xlink:href="#DejaVuSans-71" x="731.097656"/>
     <use xlink:href="#DejaVuSans-75" x="794.574219"/>
     <use xlink:href="#DejaVuSans-65" x="857.953125"/>
     <use xlink:href="#DejaVuSans-6e" x="919.476562"/>
     <use xlink:href="#DejaVuSans-63" x="982.855469"/>
     <use xlink:href="#DejaVuSans-65" x="1037.835938"/>
     <use xlink:href="#DejaVuSans-20" x="1099.359375"/>
     <use xlink:href="#DejaVuSans-47" x="1131.146484"/>
     <use xlink:href="#DejaVuSans-43" x="1208.636719"/>
     <use xlink:href="#DejaVuSans-20" x="1278.460938"/>
     <use xlink:href="#DejaVuSans-43" x="1310.248047"/>
     <use xlink:href="#DejaVuSans-6f" x="1380.072266"/>
     <use xlink:href="#DejaVuSans-6e" x="1441.253906"/>
     <use xlink:href="#DejaVuSans-74" x="1504.632812"/>
     <use xlink:href="#DejaVuSans-65" x="1543.841797"/>
     <use xlink:href="#DejaVuSans-6e" x="1605.365234"/>
     <use xlink:href="#DejaVuSans-74" x="1668.744141"/>
    </g>
   </g>
   <g id="legend_1">
    <g id="line2d_19">
     <path d="M 40.168125 305.319194 
L 48.168125 305.319194 
L 56.168125 305.319194 
" style="fill: none; stroke: #d9534f; stroke-linecap: square"/>
    </g>
    <g id="text_18">
     <!-- SRR27848283_1 -->
     <g transform="translate(62.568125 308.119194) scale(0.08 -0.08)">
      <defs>
       <path id="DejaVuSans-52" d="M 2841 2188 
Q 3044 2119 3236 1894 
Q 3428 1669 3622 1275 
L 4263 0 
L 3584 0 
L 2988 1197 
Q 2756 1666 2539 1819 
Q 2322 1972 1947 1972 
L 1259 1972 
L 1259 0 
L 628 0 
L 628 4666 
L 2053 4666 
Q 2853 4666 3247 4331 
Q 3641 3997 3641 3322 
Q 3641 2881 3436 2590 
Q 3231 2300 2841 2188 
z
M 1259 4147 
L 1259 2491 
L 2053 2491 
Q 2509 2491 2742 2702 
Q 2975 2913 2975 3322 
Q 2975 3731 2742 3939 
Q 2509 4147 2053 4147 
L 1259 4147 
z
" transform="scale(0.015625)"/>
       <path id="DejaVuSans-37" d="M 525 4666 
L 3525 4666 
L 3525 4397 
L 1831 0 
L 1172 0 
L 2766 4134 
L 525 4134 
L 525 4666 
z
" transform="scale(0.015625)"/>
       <path id="DejaVuSans-5f" d="M 3263 -1063 
L 3263 -1509 
L -63 -1509 
L -63 -1063 
L 3263 -1063 
z
" transform="scale(0.015625)"/>
      </defs>
      <use xlink:href="#DejaVuSans-53"/>
      <use xlink:href="#DejaVuSans-52" x="63.476562"/>
      <use xlink:href="#DejaVuSans-52" x="132.958984"/>
      <use xlink:href="#DejaVuSans-32" x="202.441406"/>
      <use xlink:href="#DejaVuSans-37" x="266.064453"/>
      <use xlink:href="#DejaVuSans-38" x="329.6875"/>
      <use xlink:href="#DejaVuSans-34" x="393.310547"/>
      <use xlink:href="#DejaVuSans-38" x="456.933594"/>
      <use xlink:href="#DejaVuSans-32" x="520.556641"/>
      <use xlink:href="#DejaVuSans-38" x="584.179688"/>
      <use xlink:href="#DejaVuSans-33" x="647.802734"/>
      <use xlink:href="#DejaVuSans-5f" x="711.425781"/>
      <use xlink:href="#DejaVuSans-31" x="761.425781"/>
     </g>
    </g>
    <g id="line2d_20">
     <path d="M 40.168125 317.284194 
L 48.168125 317.284194 
L 56.168125 317.284194 
" style="fill: none; stroke: #d9534f; stroke-linecap: square"/>
    </g>
    <g id="text_19">
     <!-- SRR27848283_2 -->
     <g transform="translate(62.568125 320.084194) scale(0.08 -0.08)">
      <use xlink:href="#DejaVuSans-53"/>
      <use xlink:href="#DejaVuSans-52" x="63.476562"/>
      <use xlink:href="#DejaVuSans-52" x="132.958984"/>
      <use xlink:href="#DejaVuSans-32" x="202.441406"/>
      <use xlink:href="#DejaVuSans-37" x="266.064453"/>
      <use xlink:href="#DejaVuSans-38" x="329.6875"/>
      <use xlink:href="#DejaVuSans-34" x="393.310547"/>
      <use xlink:href="#DejaVuSans-38" x="456.933594"/>
      <use xlink:href="#DejaVuSans-32" x="520.556641"/>
      <use xlink:href="#DejaVuSans-38" x="584.179688"/>
      <use xlink:href="#DejaVuSans-33" x="647.802734"/>
      <use xlink:href="#DejaVuSans-5f" x="711.425781"/>
      <use xlink:href="#DejaVuSans-32" x="761.425781"/>
     </g>
    </g>
    <g id="line2d_21">
     <path d="M 252.624062 305.319194 
L 260.624062 305.319194 
L 268.624062 305.319194 
" style="fill: none; stroke: #d9534f; stroke-linecap: square"/>
    </g>
    <g id="text_20">
     <!-- SRR27848284_1 -->
     <g transform="translate(275.024062 308.119194) scale(0.08 -0.08)">
      <use xlink:href="#DejaVuSans-53"/>
      <use xlink:href="#DejaVuSans-52" x="63.476562"/>
      <use xlink:href="#DejaVuSans-52" x="132.958984"/>
      <use xlink:href="#DejaVuSans-32" x="202.441406"/>
      <use xlink:href="#DejaVuSans-37" x="266.064453"/>
      <use xlink:href="#DejaVuSans-38" x="329.6875"/>
      <use xlink:href="#DejaVuSans-34" x="393.310547"/>
      <use xlink:href="#DejaVuSans-38" x="456.933594"/>
      <use xlink:href="#DejaVuSans-32" x="520.556641"/>
      <use xlink:href="#DejaVuSans-38" x="584.179688"/>
      <use xlink:href="#DejaVuSans-34" x="647.802734"/>
      <use xlink:href="#DejaVuSans-5f" x="711.425781"/>
      <use xlink:href="#DejaVuSans-31" x="761.425781"/>
     </g>
    </g>
    <g id="line2d_22">
     <path d="M 252.624062 317.284194 
L 260.624062 317.284194 
L 268.624062 317.284194 
" style="fill: none; stroke: #d9534f; stroke-linecap: square"/>
    </g>
    <g id="text_21">
     <!-- SRR27848284_2 -->
     <g transform="translate(275.024062 320.084194) scale(0.08 -0.08)">
      <use xlink:href="#DejaVuSans-53"/>
      <use xlink:href="#DejaVuSans-52" x="63.476562"/>
      <use xlink:href="#DejaVuSans-52" x="132.958984"/>
      <use xlink:href="#DejaVuSans-32" x="202.441406"/>
      <use xlink:href="#DejaVuSans-37" x="266.064453"/>
      <use xlink:href="#DejaVuSans-38" x="329.6875"/>
      <use xlink:href="#DejaVuSans-34" x="393.310547"/>
      <use xlink:href="#DejaVuSans-38" x="456.933594"/>
      <use xlink:href="#DejaVuSans-32" x="520.556641"/>
      <use xlink:href="#DejaVuSans-38" x="584.179688"/>
      <use xlink:href="#DejaVuSans-34" x="647.802734"/>
      <use xlink:href="#DejaVuSans-5f" x="711.425781"/>
      <use xlink:href="#DejaVuSans-32" x="761.425781"/>
     </g>
    </g>
    <g id="line2d_23">
     <path d="M 465.08 305.319194 
L 473.08 305.319194 
L 481.08 305.319194 
" style="fill: none; stroke: #d9534f; stroke-linecap: square"/>
    </g>
    <g id="text_22">
     <!-- SRR27848285_1 -->
     <g transform="translate(487.48 308.119194) scale(0.08 -0.08)">
      <use xlink:href="#DejaVuSans-53"/>
      <use xlink:href="#DejaVuSans-52" x="63.476562"/>
      <use xlink:href="#DejaVuSans-52" x="132.958984"/>
      <use xlink:href="#DejaVuSans-32" x="202.441406"/>
      <use xlink:href="#DejaVuSans-37" x="266.064453"/>
      <use xlink:href="#DejaVuSans-38" x="329.6875"/>
      <use xlink:href="#DejaVuSans-34" x="393.310547"/>
      <use xlink:href="#DejaVuSans-38" x="456.933594"/>
      <use xlink:href="#DejaVuSans-32" x="520.556641"/>
      <use xlink:href="#DejaVuSans-38" x="584.179688"/>
      <use xlink:href="#DejaVuSans-35" x="647.802734"/>
      <use xlink:href="#DejaVuSans-5f" x="711.425781"/>
      <use xlink:href="#DejaVuSans-31" x="761.425781"/>
     </g>
    </g>
    <g id="line2d_24">
     <path d="M 465.08 317.284194 
L 473.08 317.284194 
L 481.08 317.284194 
" style="fill: none; stroke: #d9534f; stroke-linecap: square"/>
    </g>
    <g id="text_23">
     <!-- SRR27848285_2 -->
     <g transform="translate(487.48 320.084194) scale(0.08 -0.08)">
      <use xlink:href="#DejaVuSans-53"/>
      <use xlink:href="#DejaVuSans-52" x="63.476562"/>
      <use xlink:href="#DejaVuSans-52" x="132.958984"/>
      <use xlink:href="#DejaVuSans-32" x="202.441406"/>
      <use xlink:href="#DejaVuSans-37" x="266.064453"/>
      <use xlink:href="#DejaVuSans-38" x="329.6875"/>
      <use xlink:href="#DejaVuSans-34" x="393.310547"/>
      <use xlink:href="#DejaVuSans-38" x="456.933594"/>
      <use xlink:href="#DejaVuSans-32" x="520.556641"/>
      <use xlink:href="#DejaVuSans-38" x="584.179688"/>
      <use xlink:href="#DejaVuSans-35" x="647.802734"/>
      <use xlink:href="#DejaVuSans-5f" x="711.425781"/>
      <use xlink:href="#DejaVuSans-32" x="761.425781"/>
     </g>
    </g>
    <g id="line2d_25">
     <path d="M 677.535938 305.319194 
L 685.535938 305.319194 
L 693.535938 305.319194 
" style="fill: none; stroke: #d9534f; stroke-linecap: square"/>
    </g>
    <g id="text_24">
     <!-- SRR27848286_1 -->
     <g transform="translate(699.935938 308.119194) scale(0.08 -0.08)">
      <use xlink:href="#DejaVuSans-53"/>
      <use xlink:href="#DejaVuSans-52" x="63.476562"/>
      <use xlink:href="#DejaVuSans-52" x="132.958984"/>
      <use xlink:href="#DejaVuSans-32" x="202.441406"/>
      <use xlink:href="#DejaVuSans-37" x="266.064453"/>
      <use xlink:href="#DejaVuSans-38" x="329.6875"/>
      <use xlink:href="#DejaVuSans-34" x="393.310547"/>
      <use xlink:href="#DejaVuSans-38" x="456.933594"/>
      <use xlink:href="#DejaVuSans-32" x="520.556641"/>
      <use xlink:href="#DejaVuSans-38" x="584.179688"/>
      <use xlink:href="#DejaVuSans-36" x="647.802734"/>
      <use xlink:href="#DejaVuSans-5f" x="711.425781"/>
      <use xlink:href="#DejaVuSans-31" x="761.425781"/>
     </g>
    </g>
    <g id="line2d_26">
     <path d="M 677.535938 317.284194 
L 685.535938 317.284194 
L 693.535938 317.284194 
" style="fill: none; stroke: #d9534f; stroke-linecap: square"/>
    </g>
    <g id="text_25">
     <!-- SRR27848286_2 -->
     <g transform="translate(699.935938 320.084194) scale(0.08 -0.08)">
      <use xlink:href="#DejaVuSans-53"/>
      <use xlink:href="#DejaVuSans-52" x="63.476562"/>
      <use xlink:href="#DejaVuSans-52" x="132.958984"/>
      <use xlink:href="#DejaVuSans-32" x="202.441406"/>
      <use xlink:href="#DejaVuSans-37" x="266.064453"/>
      <use xlink:href="#DejaVuSans-38" x="329.6875"/>
      <use xlink:href="#DejaVuSans-34" x="393.310547"/>
      <use xlink:href="#DejaVuSans-38" x="456.933594"/>
      <use xlink:href="#DejaVuSans-32" x="520.556641"/>
      <use xlink:href="#DejaVuSans-38" x="584.179688"/>
      <use xlink:href="#DejaVuSans-36" x="647.802734"/>
      <use xlink:href="#DejaVuSans-5f" x="711.425781"/>
      <use xlink:href="#DejaVuSans-32" x="761.425781"/>
     </g>
    </g>
    <g id="line2d_27">
     <path d="M 889.991875 305.319194 
L 897.991875 305.319194 
L 905.991875 305.319194 
" style="fill: none; stroke: #f0ad4e; stroke-linecap: square"/>
    </g>
    <g id="text_26">
     <!-- SRR27848287_1 -->
     <g transform="translate(912.391875 308.119194) scale(0.08 -0.08)">
      <use xlink:href="#DejaVuSans-53"/>
      <use xlink:href="#DejaVuSans-52" x="63.476562"/>
      <use xlink:href="#DejaVuSans-52" x="132.958984"/>
      <use xlink:href="#DejaVuSans-32" x="202.441406"/>
      <use xlink:href="#DejaVuSans-37" x="266.064453"/>
      <use xlink:href="#DejaVuSans-38" x="329.6875"/>
      <use xlink:href="#DejaVuSans-34" x="393.310547"/>
      <use xlink:href="#DejaVuSans-38" x="456.933594"/>
      <use xlink:href="#DejaVuSans-32" x="520.556641"/>
      <use xlink:href="#DejaVuSans-38" x="584.179688"/>
      <use xlink:href="#DejaVuSans-37" x="647.802734"/>
      <use xlink:href="#DejaVuSans-5f" x="711.425781"/>
      <use xlink:href="#DejaVuSans-31" x="761.425781"/>
     </g>
    </g>
    <g id="line2d_28">
     <path d="M 889.991875 317.284194 
L 897.991875 317.284194 
L 905.991875 317.284194 
" style="fill: none; stroke: #d9534f; stroke-linecap: square"/>
    </g>
    <g id="text_27">
     <!-- SRR27848287_2 -->
     <g transform="translate(912.391875 320.084194) scale(0.08 -0.08)">
      <use xlink:href="#DejaVuSans-53"/>
      <use xlink:href="#DejaVuSans-52" x="63.476562"/>
      <use xlink:href="#DejaVuSans-52" x="132.958984"/>
      <use xlink:href="#DejaVuSans-32" x="202.441406"/>
      <use xlink:href="#DejaVuSans-37" x="266.064453"/>
      <use xlink:href="#DejaVuSans-38" x="329.6875"/>
      <use xlink:href="#DejaVuSans-34" x="393.310547"/>
      <use xlink:href="#DejaVuSans-38" x="456.933594"/>
      <use xlink:href="#DejaVuSans-32" x="520.556641"/>
      <use xlink:href="#DejaVuSans-38" x="584.179688"/>
      <use xlink:href="#DejaVuSans-37" x="647.802734"/>
      <use xlink:href="#DejaVuSans-5f" x="711.425781"/>
      <use xlink:href="#DejaVuSans-32" x="761.425781"/>
     </g>
    </g>
   </g>
  </g>
 </g>
 <defs>
  <clipPath id="p63f7a60af4">
   <rect x="32.968125" y="31.55486" width="952.63" height="243.9472"/>
  </clipPath>
 </defs>
</svg>
