<?xml version="1.0" encoding="utf-8" standalone="no"?>
<!DOCTYPE svg PUBLIC "-//W3C//DTD SVG 1.1//EN"
  "http://www.w3.org/Graphics/SVG/1.1/DTD/svg11.dtd">
<svg xmlns:xlink="http://www.w3.org/1999/xlink" width="1000.408125pt" height="332.370444pt" viewBox="0 0 1000.408125 332.370444" xmlns="http://www.w3.org/2000/svg" version="1.1">
 <metadata>
  <rdf:RDF xmlns:dc="http://purl.org/dc/elements/1.1/" xmlns:cc="http://creativecommons.org/ns#" xmlns:rdf="http://www.w3.org/1999/02/22-rdf-syntax-ns#">
   <cc:Work>
    <dc:type rdf:resource="http://purl.org/dc/dcmitype/StillImage"/>
    <dc:date>2024-09-19T15:04:51.336313</dc:date>
    <dc:format>image/svg+xml</dc:format>
    <dc:creator>
     <cc:Agent>
      <dc:title>Matplotlib v3.9.2, https://matplotlib.org/</dc:title>
     </cc:Agent>
    </dc:creator>
   </cc:Work>
  </rdf:RDF>
 </metadata>
 <defs>
  <style type="text/css">*{stroke-linejoin: round; stroke-linecap: butt}</style>
 </defs>
 <g id="figure_1">
  <g id="axes_1">
   <g id="patch_1">
    <path d="M 38.058125 275.50206 
L 993.208125 275.50206 
L 993.208125 31.55486 
L 38.058125 31.55486 
z
" style="fill: #ffffff"/>
   </g>
   <g id="patch_2">
    <path d="M 38.058125 72.629426 
L 967.15858 72.629426 
L 967.15858 -449.043061 
L 38.058125 -449.043061 
z
" clip-path="url(#p188f880db7)" style="fill: #c3e6c3"/>
   </g>
   <g id="patch_3">
    <path d="M 38.058125 130.593036 
L 967.15858 130.593036 
L 967.15858 72.629426 
L 38.058125 72.629426 
z
" clip-path="url(#p188f880db7)" style="fill: #e6dcc3"/>
   </g>
   <g id="patch_4">
    <path d="M 38.058125 275.50206 
L 967.15858 275.50206 
L 967.15858 130.593036 
L 38.058125 130.593036 
z
" clip-path="url(#p188f880db7)" style="fill: #e6c3c3"/>
   </g>
   <g id="matplotlib.axis_1">
    <g id="xtick_1">
     <g id="text_1">
      <!-- 0 -->
      <g transform="translate(61.56267 288.58081) scale(0.08 -0.08)">
       <defs>
        <path id="DejaVuSans-30" d="M 2034 4250 
Q 1547 4250 1301 3770 
Q 1056 3291 1056 2328 
Q 1056 1369 1301 889 
Q 1547 409 2034 409 
Q 2525 409 2770 889 
Q 3016 1369 3016 2328 
Q 3016 3291 2770 3770 
Q 2525 4250 2034 4250 
z
M 2034 4750 
Q 2819 4750 3233 4129 
Q 3647 3509 3647 2328 
Q 3647 1150 3233 529 
Q 2819 -91 2034 -91 
Q 1250 -91 836 529 
Q 422 1150 422 2328 
Q 422 3509 836 4129 
Q 1250 4750 2034 4750 
z
" transform="scale(0.015625)"/>
       </defs>
       <use xlink:href="#DejaVuSans-30"/>
      </g>
     </g>
    </g>
    <g id="xtick_2">
     <g id="text_2">
      <!-- 10 -->
      <g transform="translate(232.681307 288.58081) scale(0.08 -0.08)">
       <defs>
        <path id="DejaVuSans-31" d="M 794 531 
L 1825 531 
L 1825 4091 
L 703 3866 
L 703 4441 
L 1819 4666 
L 2450 4666 
L 2450 531 
L 3481 531 
L 3481 0 
L 794 0 
L 794 531 
z
" transform="scale(0.015625)"/>
       </defs>
       <use xlink:href="#DejaVuSans-31"/>
       <use xlink:href="#DejaVuSans-30" x="63.623047"/>
      </g>
     </g>
    </g>
    <g id="xtick_3">
     <g id="text_3">
      <!-- 20 -->
      <g transform="translate(406.344943 288.58081) scale(0.08 -0.08)">
       <defs>
        <path id="DejaVuSans-32" d="M 1228 531 
L 3431 531 
L 3431 0 
L 469 0 
L 469 531 
Q 828 903 1448 1529 
Q 2069 2156 2228 2338 
Q 2531 2678 2651 2914 
Q 2772 3150 2772 3378 
Q 2772 3750 2511 3984 
Q 2250 4219 1831 4219 
Q 1534 4219 1204 4116 
Q 875 4013 500 3803 
L 500 4441 
Q 881 4594 1212 4672 
Q 1544 4750 1819 4750 
Q 2544 4750 2975 4387 
Q 3406 4025 3406 3419 
Q 3406 3131 3298 2873 
Q 3191 2616 2906 2266 
Q 2828 2175 2409 1742 
Q 1991 1309 1228 531 
z
" transform="scale(0.015625)"/>
       </defs>
       <use xlink:href="#DejaVuSans-32"/>
       <use xlink:href="#DejaVuSans-30" x="63.623047"/>
      </g>
     </g>
    </g>
    <g id="xtick_4">
     <g id="text_4">
      <!-- 30 -->
      <g transform="translate(580.00858 288.58081) scale(0.08 -0.08)">
       <defs>
        <path id="DejaVuSans-33" d="M 2597 2516 
Q 3050 2419 3304 2112 
Q 3559 1806 3559 1356 
Q 3559 666 3084 287 
Q 2609 -91 1734 -91 
Q 1441 -91 1130 -33 
Q 819 25 488 141 
L 488 750 
Q 750 597 1062 519 
Q 1375 441 1716 441 
Q 2309 441 2620 675 
Q 2931 909 2931 1356 
Q 2931 1769 2642 2001 
Q 2353 2234 1838 2234 
L 1294 2234 
L 1294 2753 
L 1863 2753 
Q 2328 2753 2575 2939 
Q 2822 3125 2822 3475 
Q 2822 3834 2567 4026 
Q 2313 4219 1838 4219 
Q 1578 4219 1281 4162 
Q 984 4106 628 3988 
L 628 4550 
Q 988 4650 1302 4700 
Q 1616 4750 1894 4750 
Q 2613 4750 3031 4423 
Q 3450 4097 3450 3541 
Q 3450 3153 3228 2886 
Q 3006 2619 2597 2516 
z
" transform="scale(0.015625)"/>
       </defs>
       <use xlink:href="#DejaVuSans-33"/>
       <use xlink:href="#DejaVuSans-30" x="63.623047"/>
      </g>
     </g>
    </g>
    <g id="xtick_5">
     <g id="text_5">
      <!-- 40 -->
      <g transform="translate(753.672216 288.58081) scale(0.08 -0.08)">
       <defs>
        <path id="DejaVuSans-34" d="M 2419 4116 
L 825 1625 
L 2419 1625 
L 2419 4116 
z
M 2253 4666 
L 3047 4666 
L 3047 1625 
L 3713 1625 
L 3713 1100 
L 3047 1100 
L 3047 0 
L 2419 0 
L 2419 1100 
L 313 1100 
L 313 1709 
L 2253 4666 
z
" transform="scale(0.015625)"/>
       </defs>
       <use xlink:href="#DejaVuSans-34"/>
       <use xlink:href="#DejaVuSans-30" x="63.623047"/>
      </g>
     </g>
    </g>
    <g id="xtick_6">
     <g id="text_6">
      <!-- 50 -->
      <g transform="translate(927.335852 288.58081) scale(0.08 -0.08)">
       <defs>
        <path id="DejaVuSans-35" d="M 691 4666 
L 3169 4666 
L 3169 4134 
L 1269 4134 
L 1269 2991 
Q 1406 3038 1543 3061 
Q 1681 3084 1819 3084 
Q 2600 3084 3056 2656 
Q 3513 2228 3513 1497 
Q 3513 744 3044 326 
Q 2575 -91 1722 -91 
Q 1428 -91 1123 -41 
Q 819 9 494 109 
L 494 744 
Q 775 591 1075 516 
Q 1375 441 1709 441 
Q 2250 441 2565 725 
Q 2881 1009 2881 1497 
Q 2881 1984 2565 2268 
Q 2250 2553 1709 2553 
Q 1456 2553 1204 2497 
Q 953 2441 691 2322 
L 691 4666 
z
" transform="scale(0.015625)"/>
       </defs>
       <use xlink:href="#DejaVuSans-35"/>
       <use xlink:href="#DejaVuSans-30" x="63.623047"/>
      </g>
     </g>
    </g>
    <g id="text_7">
     <!-- Position (bp) -->
     <g transform="translate(484.33 301.842998) scale(0.1 -0.1)">
      <defs>
       <path id="DejaVuSans-50" d="M 1259 4147 
L 1259 2394 
L 2053 2394 
Q 2494 2394 2734 2622 
Q 2975 2850 2975 3272 
Q 2975 3691 2734 3919 
Q 2494 4147 2053 4147 
L 1259 4147 
z
M 628 4666 
L 2053 4666 
Q 2838 4666 3239 4311 
Q 3641 3956 3641 3272 
Q 3641 2581 3239 2228 
Q 2838 1875 2053 1875 
L 1259 1875 
L 1259 0 
L 628 0 
L 628 4666 
z
" transform="scale(0.015625)"/>
       <path id="DejaVuSans-6f" d="M 1959 3097 
Q 1497 3097 1228 2736 
Q 959 2375 959 1747 
Q 959 1119 1226 758 
Q 1494 397 1959 397 
Q 2419 397 2687 759 
Q 2956 1122 2956 1747 
Q 2956 2369 2687 2733 
Q 2419 3097 1959 3097 
z
M 1959 3584 
Q 2709 3584 3137 3096 
Q 3566 2609 3566 1747 
Q 3566 888 3137 398 
Q 2709 -91 1959 -91 
Q 1206 -91 779 398 
Q 353 888 353 1747 
Q 353 2609 779 3096 
Q 1206 3584 1959 3584 
z
" transform="scale(0.015625)"/>
       <path id="DejaVuSans-73" d="M 2834 3397 
L 2834 2853 
Q 2591 2978 2328 3040 
Q 2066 3103 1784 3103 
Q 1356 3103 1142 2972 
Q 928 2841 928 2578 
Q 928 2378 1081 2264 
Q 1234 2150 1697 2047 
L 1894 2003 
Q 2506 1872 2764 1633 
Q 3022 1394 3022 966 
Q 3022 478 2636 193 
Q 2250 -91 1575 -91 
Q 1294 -91 989 -36 
Q 684 19 347 128 
L 347 722 
Q 666 556 975 473 
Q 1284 391 1588 391 
Q 1994 391 2212 530 
Q 2431 669 2431 922 
Q 2431 1156 2273 1281 
Q 2116 1406 1581 1522 
L 1381 1569 
Q 847 1681 609 1914 
Q 372 2147 372 2553 
Q 372 3047 722 3315 
Q 1072 3584 1716 3584 
Q 2034 3584 2315 3537 
Q 2597 3491 2834 3397 
z
" transform="scale(0.015625)"/>
       <path id="DejaVuSans-69" d="M 603 3500 
L 1178 3500 
L 1178 0 
L 603 0 
L 603 3500 
z
M 603 4863 
L 1178 4863 
L 1178 4134 
L 603 4134 
L 603 4863 
z
" transform="scale(0.015625)"/>
       <path id="DejaVuSans-74" d="M 1172 4494 
L 1172 3500 
L 2356 3500 
L 2356 3053 
L 1172 3053 
L 1172 1153 
Q 1172 725 1289 603 
Q 1406 481 1766 481 
L 2356 481 
L 2356 0 
L 1766 0 
Q 1100 0 847 248 
Q 594 497 594 1153 
L 594 3053 
L 172 3053 
L 172 3500 
L 594 3500 
L 594 4494 
L 1172 4494 
z
" transform="scale(0.015625)"/>
       <path id="DejaVuSans-6e" d="M 3513 2113 
L 3513 0 
L 2938 0 
L 2938 2094 
Q 2938 2591 2744 2837 
Q 2550 3084 2163 3084 
Q 1697 3084 1428 2787 
Q 1159 2491 1159 1978 
L 1159 0 
L 581 0 
L 581 3500 
L 1159 3500 
L 1159 2956 
Q 1366 3272 1645 3428 
Q 1925 3584 2291 3584 
Q 2894 3584 3203 3211 
Q 3513 2838 3513 2113 
z
" transform="scale(0.015625)"/>
       <path id="DejaVuSans-20" transform="scale(0.015625)"/>
       <path id="DejaVuSans-28" d="M 1984 4856 
Q 1566 4138 1362 3434 
Q 1159 2731 1159 2009 
Q 1159 1288 1364 580 
Q 1569 -128 1984 -844 
L 1484 -844 
Q 1016 -109 783 600 
Q 550 1309 550 2009 
Q 550 2706 781 3412 
Q 1013 4119 1484 4856 
L 1984 4856 
z
" transform="scale(0.015625)"/>
       <path id="DejaVuSans-62" d="M 3116 1747 
Q 3116 2381 2855 2742 
Q 2594 3103 2138 3103 
Q 1681 3103 1420 2742 
Q 1159 2381 1159 1747 
Q 1159 1113 1420 752 
Q 1681 391 2138 391 
Q 2594 391 2855 752 
Q 3116 1113 3116 1747 
z
M 1159 2969 
Q 1341 3281 1617 3432 
Q 1894 3584 2278 3584 
Q 2916 3584 3314 3078 
Q 3713 2572 3713 1747 
Q 3713 922 3314 415 
Q 2916 -91 2278 -91 
Q 1894 -91 1617 61 
Q 1341 213 1159 525 
L 1159 0 
L 581 0 
L 581 4863 
L 1159 4863 
L 1159 2969 
z
" transform="scale(0.015625)"/>
       <path id="DejaVuSans-70" d="M 1159 525 
L 1159 -1331 
L 581 -1331 
L 581 3500 
L 1159 3500 
L 1159 2969 
Q 1341 3281 1617 3432 
Q 1894 3584 2278 3584 
Q 2916 3584 3314 3078 
Q 3713 2572 3713 1747 
Q 3713 922 3314 415 
Q 2916 -91 2278 -91 
Q 1894 -91 1617 61 
Q 1341 213 1159 525 
z
M 3116 1747 
Q 3116 2381 2855 2742 
Q 2594 3103 2138 3103 
Q 1681 3103 1420 2742 
Q 1159 2381 1159 1747 
Q 1159 1113 1420 752 
Q 1681 391 2138 391 
Q 2594 391 2855 752 
Q 3116 1113 3116 1747 
z
" transform="scale(0.015625)"/>
       <path id="DejaVuSans-29" d="M 513 4856 
L 1013 4856 
Q 1481 4119 1714 3412 
Q 1947 2706 1947 2009 
Q 1947 1309 1714 600 
Q 1481 -109 1013 -844 
L 513 -844 
Q 928 -128 1133 580 
Q 1338 1288 1338 2009 
Q 1338 2731 1133 3434 
Q 928 4138 513 4856 
z
" transform="scale(0.015625)"/>
      </defs>
      <use xlink:href="#DejaVuSans-50"/>
      <use xlink:href="#DejaVuSans-6f" x="56.677734"/>
      <use xlink:href="#DejaVuSans-73" x="117.859375"/>
      <use xlink:href="#DejaVuSans-69" x="169.958984"/>
      <use xlink:href="#DejaVuSans-74" x="197.742188"/>
      <use xlink:href="#DejaVuSans-69" x="236.951172"/>
      <use xlink:href="#DejaVuSans-6f" x="264.734375"/>
      <use xlink:href="#DejaVuSans-6e" x="325.916016"/>
      <use xlink:href="#DejaVuSans-20" x="389.294922"/>
      <use xlink:href="#DejaVuSans-28" x="421.082031"/>
      <use xlink:href="#DejaVuSans-62" x="460.095703"/>
      <use xlink:href="#DejaVuSans-70" x="523.572266"/>
      <use xlink:href="#DejaVuSans-29" x="587.048828"/>
     </g>
    </g>
   </g>
   <g id="matplotlib.axis_2">
    <g id="ytick_1">
     <g id="line2d_1">
      <path d="M 38.058125 275.50206 
L 993.208125 275.50206 
" clip-path="url(#p188f880db7)" style="fill: none; stroke: #dedede; stroke-linecap: square"/>
     </g>
     <g id="text_8">
      <!-- 0 -->
      <g transform="translate(25.968125 278.541435) scale(0.08 -0.08)">
       <use xlink:href="#DejaVuSans-30"/>
      </g>
     </g>
    </g>
    <g id="ytick_2">
     <g id="line2d_2">
      <path d="M 38.058125 239.274804 
L 993.208125 239.274804 
" clip-path="url(#p188f880db7)" style="fill: none; stroke: #dedede; stroke-linecap: square"/>
     </g>
     <g id="text_9">
      <!-- 5 -->
      <g transform="translate(25.968125 242.314179) scale(0.08 -0.08)">
       <use xlink:href="#DejaVuSans-35"/>
      </g>
     </g>
    </g>
    <g id="ytick_3">
     <g id="line2d_3">
      <path d="M 38.058125 203.047548 
L 993.208125 203.047548 
" clip-path="url(#p188f880db7)" style="fill: none; stroke: #dedede; stroke-linecap: square"/>
     </g>
     <g id="text_10">
      <!-- 10 -->
      <g transform="translate(20.878125 206.086923) scale(0.08 -0.08)">
       <use xlink:href="#DejaVuSans-31"/>
       <use xlink:href="#DejaVuSans-30" x="63.623047"/>
      </g>
     </g>
    </g>
    <g id="ytick_4">
     <g id="line2d_4">
      <path d="M 38.058125 166.820292 
L 993.208125 166.820292 
" clip-path="url(#p188f880db7)" style="fill: none; stroke: #dedede; stroke-linecap: square"/>
     </g>
     <g id="text_11">
      <!-- 15 -->
      <g transform="translate(20.878125 169.859667) scale(0.08 -0.08)">
       <use xlink:href="#DejaVuSans-31"/>
       <use xlink:href="#DejaVuSans-35" x="63.623047"/>
      </g>
     </g>
    </g>
    <g id="ytick_5">
     <g id="line2d_5">
      <path d="M 38.058125 130.593036 
L 993.208125 130.593036 
" clip-path="url(#p188f880db7)" style="fill: none; stroke: #dedede; stroke-linecap: square"/>
     </g>
     <g id="text_12">
      <!-- 20 -->
      <g transform="translate(20.878125 133.632411) scale(0.08 -0.08)">
       <use xlink:href="#DejaVuSans-32"/>
       <use xlink:href="#DejaVuSans-30" x="63.623047"/>
      </g>
     </g>
    </g>
    <g id="ytick_6">
     <g id="line2d_6">
      <path d="M 38.058125 94.36578 
L 993.208125 94.36578 
" clip-path="url(#p188f880db7)" style="fill: none; stroke: #dedede; stroke-linecap: square"/>
     </g>
     <g id="text_13">
      <!-- 25 -->
      <g transform="translate(20.878125 97.405155) scale(0.08 -0.08)">
       <use xlink:href="#DejaVuSans-32"/>
       <use xlink:href="#DejaVuSans-35" x="63.623047"/>
      </g>
     </g>
    </g>
    <g id="ytick_7">
     <g id="line2d_7">
      <path d="M 38.058125 58.138524 
L 993.208125 58.138524 
" clip-path="url(#p188f880db7)" style="fill: none; stroke: #dedede; stroke-linecap: square"/>
     </g>
     <g id="text_14">
      <!-- 30 -->
      <g transform="translate(20.878125 61.177899) scale(0.08 -0.08)">
       <use xlink:href="#DejaVuSans-33"/>
       <use xlink:href="#DejaVuSans-30" x="63.623047"/>
      </g>
     </g>
    </g>
    <g id="text_15">
     <!-- Phred Score -->
     <g transform="translate(14.798438 183.49721) rotate(-90) scale(0.1 -0.1)">
      <defs>
       <path id="DejaVuSans-68" d="M 3513 2113 
L 3513 0 
L 2938 0 
L 2938 2094 
Q 2938 2591 2744 2837 
Q 2550 3084 2163 3084 
Q 1697 3084 1428 2787 
Q 1159 2491 1159 1978 
L 1159 0 
L 581 0 
L 581 4863 
L 1159 4863 
L 1159 2956 
Q 1366 3272 1645 3428 
Q 1925 3584 2291 3584 
Q 2894 3584 3203 3211 
Q 3513 2838 3513 2113 
z
" transform="scale(0.015625)"/>
       <path id="DejaVuSans-72" d="M 2631 2963 
Q 2534 3019 2420 3045 
Q 2306 3072 2169 3072 
Q 1681 3072 1420 2755 
Q 1159 2438 1159 1844 
L 1159 0 
L 581 0 
L 581 3500 
L 1159 3500 
L 1159 2956 
Q 1341 3275 1631 3429 
Q 1922 3584 2338 3584 
Q 2397 3584 2469 3576 
Q 2541 3569 2628 3553 
L 2631 2963 
z
" transform="scale(0.015625)"/>
       <path id="DejaVuSans-65" d="M 3597 1894 
L 3597 1613 
L 953 1613 
Q 991 1019 1311 708 
Q 1631 397 2203 397 
Q 2534 397 2845 478 
Q 3156 559 3463 722 
L 3463 178 
Q 3153 47 2828 -22 
Q 2503 -91 2169 -91 
Q 1331 -91 842 396 
Q 353 884 353 1716 
Q 353 2575 817 3079 
Q 1281 3584 2069 3584 
Q 2775 3584 3186 3129 
Q 3597 2675 3597 1894 
z
M 3022 2063 
Q 3016 2534 2758 2815 
Q 2500 3097 2075 3097 
Q 1594 3097 1305 2825 
Q 1016 2553 972 2059 
L 3022 2063 
z
" transform="scale(0.015625)"/>
       <path id="DejaVuSans-64" d="M 2906 2969 
L 2906 4863 
L 3481 4863 
L 3481 0 
L 2906 0 
L 2906 525 
Q 2725 213 2448 61 
Q 2172 -91 1784 -91 
Q 1150 -91 751 415 
Q 353 922 353 1747 
Q 353 2572 751 3078 
Q 1150 3584 1784 3584 
Q 2172 3584 2448 3432 
Q 2725 3281 2906 2969 
z
M 947 1747 
Q 947 1113 1208 752 
Q 1469 391 1925 391 
Q 2381 391 2643 752 
Q 2906 1113 2906 1747 
Q 2906 2381 2643 2742 
Q 2381 3103 1925 3103 
Q 1469 3103 1208 2742 
Q 947 2381 947 1747 
z
" transform="scale(0.015625)"/>
       <path id="DejaVuSans-53" d="M 3425 4513 
L 3425 3897 
Q 3066 4069 2747 4153 
Q 2428 4238 2131 4238 
Q 1616 4238 1336 4038 
Q 1056 3838 1056 3469 
Q 1056 3159 1242 3001 
Q 1428 2844 1947 2747 
L 2328 2669 
Q 3034 2534 3370 2195 
Q 3706 1856 3706 1288 
Q 3706 609 3251 259 
Q 2797 -91 1919 -91 
Q 1588 -91 1214 -16 
Q 841 59 441 206 
L 441 856 
Q 825 641 1194 531 
Q 1563 422 1919 422 
Q 2459 422 2753 634 
Q 3047 847 3047 1241 
Q 3047 1584 2836 1778 
Q 2625 1972 2144 2069 
L 1759 2144 
Q 1053 2284 737 2584 
Q 422 2884 422 3419 
Q 422 4038 858 4394 
Q 1294 4750 2059 4750 
Q 2388 4750 2728 4690 
Q 3069 4631 3425 4513 
z
" transform="scale(0.015625)"/>
       <path id="DejaVuSans-63" d="M 3122 3366 
L 3122 2828 
Q 2878 2963 2633 3030 
Q 2388 3097 2138 3097 
Q 1578 3097 1268 2742 
Q 959 2388 959 1747 
Q 959 1106 1268 751 
Q 1578 397 2138 397 
Q 2388 397 2633 464 
Q 2878 531 3122 666 
L 3122 134 
Q 2881 22 2623 -34 
Q 2366 -91 2075 -91 
Q 1284 -91 818 406 
Q 353 903 353 1747 
Q 353 2603 823 3093 
Q 1294 3584 2113 3584 
Q 2378 3584 2631 3529 
Q 2884 3475 3122 3366 
z
" transform="scale(0.015625)"/>
      </defs>
      <use xlink:href="#DejaVuSans-50"/>
      <use xlink:href="#DejaVuSans-68" x="60.302734"/>
      <use xlink:href="#DejaVuSans-72" x="123.681641"/>
      <use xlink:href="#DejaVuSans-65" x="162.544922"/>
      <use xlink:href="#DejaVuSans-64" x="224.068359"/>
      <use xlink:href="#DejaVuSans-20" x="287.544922"/>
      <use xlink:href="#DejaVuSans-53" x="319.332031"/>
      <use xlink:href="#DejaVuSans-63" x="382.808594"/>
      <use xlink:href="#DejaVuSans-6f" x="437.789062"/>
      <use xlink:href="#DejaVuSans-72" x="498.970703"/>
      <use xlink:href="#DejaVuSans-65" x="537.833984"/>
     </g>
    </g>
   </g>
   <g id="line2d_8">
    <path d="M 81.474034 35.377712 
L 98.840398 33.403373 
L 116.206761 34.847421 
L 133.573125 33.974884 
L 150.939489 33.505441 
L 168.305852 34.286439 
L 185.672216 33.087536 
L 203.03858 34.24845 
L 220.404943 32.553939 
L 237.771307 33.540164 
L 255.13767 32.754145 
L 272.504034 33.006761 
L 289.870398 32.671558 
L 307.236761 32.73148 
L 324.603125 32.7278 
L 341.969489 32.748629 
L 359.335852 32.751284 
L 376.702216 32.727247 
L 394.06858 32.766876 
L 411.434943 32.716716 
L 428.801307 32.671241 
L 446.16767 32.628802 
L 463.534034 33.338404 
L 480.900398 32.674364 
L 498.266761 32.781744 
L 515.633125 32.508601 
L 532.999489 32.451669 
L 550.365852 32.401518 
L 567.732216 32.517898 
L 585.09858 32.540972 
L 602.464943 32.47021 
L 619.831307 32.544678 
L 637.19767 32.439336 
L 654.564034 32.513434 
L 671.930398 32.62912 
L 689.296761 32.745167 
L 706.663125 32.755446 
L 724.029489 32.576643 
L 741.395852 32.521094 
L 758.762216 32.752218 
L 776.12858 32.826127 
L 793.494943 33.892981 
L 810.861307 32.885982 
L 828.22767 34.02818 
L 845.594034 40.154635 
L 862.960398 40.531459 
L 880.326761 33.778077 
L 897.693125 39.662776 
L 915.059489 46.962497 
L 932.425852 46.303945 
L 949.792216 42.464665 
" clip-path="url(#p188f880db7)" style="fill: none; stroke: #5cb85c; stroke-linecap: square"/>
   </g>
   <g id="line2d_9">
    <path d="M 81.474034 35.271468 
L 98.840398 34.538841 
L 116.206761 35.415487 
L 133.573125 35.11073 
L 150.939489 34.166077 
L 168.305852 34.345447 
L 185.672216 34.160548 
L 203.03858 34.900219 
L 220.404943 33.947241 
L 237.771307 34.898763 
L 255.13767 34.714235 
L 272.504034 35.206453 
L 289.870398 34.678953 
L 307.236761 34.862857 
L 324.603125 35.0126 
L 341.969489 34.709533 
L 359.335852 34.856059 
L 376.702216 34.432904 
L 394.06858 34.245295 
L 411.434943 34.518015 
L 428.801307 34.393545 
L 446.16767 34.279721 
L 463.534034 34.132183 
L 480.900398 34.248141 
L 498.266761 34.600623 
L 515.633125 34.551041 
L 532.999489 34.522168 
L 550.365852 34.957295 
L 567.732216 34.968696 
L 585.09858 35.210755 
L 602.464943 35.107237 
L 619.831307 35.224417 
L 637.19767 35.714326 
L 654.564034 36.576407 
L 671.930398 37.037359 
L 689.296761 36.715859 
L 706.663125 36.006328 
L 724.029489 35.3913 
L 741.395852 35.016106 
L 758.762216 34.744603 
L 776.12858 34.430429 
L 793.494943 34.585022 
L 810.861307 34.390503 
L 828.22767 34.437612 
L 845.594034 34.693665 
L 862.960398 34.656988 
L 880.326761 35.185564 
L 897.693125 35.675362 
L 915.059489 35.850358 
L 932.425852 36.229476 
L 949.792216 36.893556 
" clip-path="url(#p188f880db7)" style="fill: none; stroke: #5cb85c; stroke-linecap: square"/>
   </g>
   <g id="line2d_10">
    <path d="M 81.474034 35.041624 
L 98.840398 33.693009 
L 116.206761 35.105851 
L 133.573125 34.056701 
L 150.939489 33.548947 
L 168.305852 34.289906 
L 185.672216 33.289632 
L 203.03858 34.418276 
L 220.404943 32.600778 
L 237.771307 33.519263 
L 255.13767 32.790373 
L 272.504034 33.09047 
L 289.870398 32.883212 
L 307.236761 32.873342 
L 324.603125 32.900606 
L 341.969489 32.865446 
L 359.335852 32.845922 
L 376.702216 32.851138 
L 394.06858 32.866703 
L 411.434943 32.844419 
L 428.801307 32.780355 
L 446.16767 32.815817 
L 463.534034 33.450944 
L 480.900398 32.844121 
L 498.266761 32.913183 
L 515.633125 32.648284 
L 532.999489 32.605441 
L 550.365852 32.552357 
L 567.732216 32.606699 
L 585.09858 32.664081 
L 602.464943 32.615481 
L 619.831307 32.732495 
L 637.19767 32.572232 
L 654.564034 32.665679 
L 671.930398 32.743209 
L 689.296761 32.810527 
L 706.663125 32.797937 
L 724.029489 32.804909 
L 741.395852 32.869122 
L 758.762216 33.037416 
L 776.12858 32.878668 
L 793.494943 33.406752 
L 810.861307 32.900121 
L 828.22767 33.948121 
L 845.594034 37.174757 
L 862.960398 36.978648 
L 880.326761 33.676143 
L 897.693125 36.603305 
L 915.059489 38.431144 
L 932.425852 33.763271 
L 949.792216 36.353572 
" clip-path="url(#p188f880db7)" style="fill: none; stroke: #5cb85c; stroke-linecap: square"/>
   </g>
   <g id="line2d_11">
    <path d="M 81.474034 34.941482 
L 98.840398 34.21167 
L 116.206761 35.145851 
L 133.573125 34.935329 
L 150.939489 33.956529 
L 168.305852 34.189712 
L 185.672216 33.849074 
L 203.03858 34.487237 
L 220.404943 33.445623 
L 237.771307 34.332224 
L 255.13767 33.980305 
L 272.504034 34.369054 
L 289.870398 33.95923 
L 307.236761 34.120215 
L 324.603125 34.23102 
L 341.969489 34.021565 
L 359.335852 34.159057 
L 376.702216 33.873318 
L 394.06858 33.76967 
L 411.434943 34.001719 
L 428.801307 33.870818 
L 446.16767 33.806849 
L 463.534034 33.729088 
L 480.900398 33.844232 
L 498.266761 34.11062 
L 515.633125 33.961778 
L 532.999489 33.866495 
L 550.365852 34.16409 
L 567.732216 34.128181 
L 585.09858 34.31824 
L 602.464943 34.238146 
L 619.831307 34.358166 
L 637.19767 34.426399 
L 654.564034 34.511534 
L 671.930398 34.49214 
L 689.296761 34.477525 
L 706.663125 34.657713 
L 724.029489 35.095079 
L 741.395852 35.332466 
L 758.762216 35.26247 
L 776.12858 34.875249 
L 793.494943 34.878952 
L 810.861307 34.58229 
L 828.22767 34.662411 
L 845.594034 34.857032 
L 862.960398 34.639334 
L 880.326761 34.92215 
L 897.693125 35.232129 
L 915.059489 35.074511 
L 932.425852 35.194741 
L 949.792216 35.812326 
" clip-path="url(#p188f880db7)" style="fill: none; stroke: #5cb85c; stroke-linecap: square"/>
   </g>
   <g id="line2d_12">
    <path d="M 81.474034 34.974606 
L 98.840398 33.484884 
L 116.206761 34.813142 
L 133.573125 33.839567 
L 150.939489 33.379351 
L 168.305852 34.155276 
L 185.672216 33.244296 
L 203.03858 34.464355 
L 220.404943 32.551968 
L 237.771307 33.394846 
L 255.13767 32.754797 
L 272.504034 33.081582 
L 289.870398 32.851867 
L 307.236761 32.836245 
L 324.603125 32.855323 
L 341.969489 32.832341 
L 359.335852 32.796068 
L 376.702216 32.815742 
L 394.06858 32.751199 
L 411.434943 32.883627 
L 428.801307 32.74207 
L 446.16767 32.802718 
L 463.534034 33.531903 
L 480.900398 32.9742 
L 498.266761 32.886263 
L 515.633125 32.593002 
L 532.999489 32.642873 
L 550.365852 32.585672 
L 567.732216 32.607596 
L 585.09858 32.654499 
L 602.464943 32.618609 
L 619.831307 32.757303 
L 637.19767 32.714206 
L 654.564034 32.806853 
L 671.930398 32.874607 
L 689.296761 32.76544 
L 706.663125 32.859695 
L 724.029489 32.776444 
L 741.395852 32.748859 
L 758.762216 32.744456 
L 776.12858 32.887258 
L 793.494943 33.057514 
L 810.861307 32.828132 
L 828.22767 33.373166 
L 845.594034 35.685326 
L 862.960398 36.327073 
L 880.326761 33.771827 
L 897.693125 38.69098 
L 915.059489 39.572567 
L 932.425852 34.123844 
L 949.792216 39.624764 
" clip-path="url(#p188f880db7)" style="fill: none; stroke: #5cb85c; stroke-linecap: square"/>
   </g>
   <g id="line2d_13">
    <path d="M 81.474034 34.676462 
L 98.840398 34.270588 
L 116.206761 35.174116 
L 133.573125 34.870443 
L 150.939489 33.92752 
L 168.305852 34.127912 
L 185.672216 33.8388 
L 203.03858 34.434951 
L 220.404943 33.364905 
L 237.771307 34.212353 
L 255.13767 33.894933 
L 272.504034 34.270668 
L 289.870398 33.801562 
L 307.236761 33.961521 
L 324.603125 34.116006 
L 341.969489 33.85731 
L 359.335852 34.033737 
L 376.702216 33.751333 
L 394.06858 33.657138 
L 411.434943 33.900849 
L 428.801307 33.737485 
L 446.16767 33.725216 
L 463.534034 33.623776 
L 480.900398 33.719731 
L 498.266761 33.98621 
L 515.633125 33.779856 
L 532.999489 33.693783 
L 550.365852 33.975549 
L 567.732216 33.968505 
L 585.09858 34.18682 
L 602.464943 34.084001 
L 619.831307 34.248351 
L 637.19767 34.479998 
L 654.564034 34.741752 
L 671.930398 34.88775 
L 689.296761 35.183438 
L 706.663125 35.610623 
L 724.029489 35.586362 
L 741.395852 35.427979 
L 758.762216 35.232388 
L 776.12858 34.675415 
L 793.494943 34.69872 
L 810.861307 34.460512 
L 828.22767 34.472038 
L 845.594034 34.672748 
L 862.960398 34.539228 
L 880.326761 34.958085 
L 897.693125 35.303068 
L 915.059489 35.269772 
L 932.425852 35.564291 
L 949.792216 36.266692 
" clip-path="url(#p188f880db7)" style="fill: none; stroke: #5cb85c; stroke-linecap: square"/>
   </g>
   <g id="line2d_14">
    <path d="M 81.474034 35.592192 
L 98.840398 33.237464 
L 116.206761 34.758186 
L 133.573125 33.909131 
L 150.939489 33.44822 
L 168.305852 34.207401 
L 185.672216 32.916372 
L 203.03858 34.080703 
L 220.404943 32.523342 
L 237.771307 33.394656 
L 255.13767 32.702755 
L 272.504034 32.922936 
L 289.870398 32.549335 
L 307.236761 32.641712 
L 324.603125 32.558635 
L 341.969489 32.644295 
L 359.335852 32.712046 
L 376.702216 32.662486 
L 394.06858 32.657493 
L 411.434943 32.72921 
L 428.801307 32.619736 
L 446.16767 32.505175 
L 463.534034 33.322996 
L 480.900398 32.582581 
L 498.266761 32.716252 
L 515.633125 32.420825 
L 532.999489 32.404934 
L 550.365852 32.288557 
L 567.732216 32.471223 
L 585.09858 32.490727 
L 602.464943 32.428518 
L 619.831307 32.655118 
L 637.19767 32.507602 
L 654.564034 32.59554 
L 671.930398 32.664548 
L 689.296761 32.6888 
L 706.663125 32.736774 
L 724.029489 33.441631 
L 741.395852 32.761533 
L 758.762216 34.026857 
L 776.12858 32.870289 
L 793.494943 35.792927 
L 810.861307 32.873043 
L 828.22767 35.503308 
L 845.594034 42.535729 
L 862.960398 42.037683 
L 880.326761 33.752968 
L 897.693125 33.412694 
L 915.059489 33.952603 
L 932.425852 33.176851 
L 949.792216 34.505362 
" clip-path="url(#p188f880db7)" style="fill: none; stroke: #5cb85c; stroke-linecap: square"/>
   </g>
   <g id="line2d_15">
    <path d="M 81.474034 35.411954 
L 98.840398 34.560497 
L 116.206761 35.409611 
L 133.573125 35.151593 
L 150.939489 34.252813 
L 168.305852 34.368558 
L 185.672216 34.221399 
L 203.03858 35.183653 
L 220.404943 34.261153 
L 237.771307 35.290933 
L 255.13767 35.339166 
L 272.504034 35.963387 
L 289.870398 35.226212 
L 307.236761 35.417021 
L 324.603125 35.740859 
L 341.969489 35.251774 
L 359.335852 35.478775 
L 376.702216 34.961589 
L 394.06858 34.740696 
L 411.434943 35.099648 
L 428.801307 34.966581 
L 446.16767 34.895367 
L 463.534034 34.616918 
L 480.900398 34.681921 
L 498.266761 35.090983 
L 515.633125 35.101524 
L 532.999489 35.192167 
L 550.365852 35.573402 
L 567.732216 35.656428 
L 585.09858 35.908673 
L 602.464943 35.670422 
L 619.831307 35.756559 
L 637.19767 35.604971 
L 654.564034 35.702178 
L 671.930398 36.423461 
L 689.296761 36.515148 
L 706.663125 36.076231 
L 724.029489 36.164527 
L 741.395852 36.22955 
L 758.762216 35.996961 
L 776.12858 35.416886 
L 793.494943 35.433169 
L 810.861307 34.985057 
L 828.22767 35.10006 
L 845.594034 35.450051 
L 862.960398 35.266517 
L 880.326761 35.751672 
L 897.693125 36.428083 
L 915.059489 36.328443 
L 932.425852 36.579845 
L 949.792216 36.909318 
" clip-path="url(#p188f880db7)" style="fill: none; stroke: #5cb85c; stroke-linecap: square"/>
   </g>
   <g id="line2d_16">
    <path d="M 81.474034 35.08572 
L 98.840398 33.444259 
L 116.206761 34.995679 
L 133.573125 33.944771 
L 150.939489 33.404441 
L 168.305852 34.184545 
L 185.672216 33.14016 
L 203.03858 34.299295 
L 220.404943 32.490327 
L 237.771307 33.338272 
L 255.13767 32.711913 
L 272.504034 33.044954 
L 289.870398 32.798935 
L 307.236761 32.819365 
L 324.603125 32.846114 
L 341.969489 32.818168 
L 359.335852 32.793881 
L 376.702216 32.798421 
L 394.06858 32.718729 
L 411.434943 32.83498 
L 428.801307 32.740059 
L 446.16767 32.792731 
L 463.534034 33.556533 
L 480.900398 32.879845 
L 498.266761 32.886165 
L 515.633125 32.637611 
L 532.999489 32.738775 
L 550.365852 32.647161 
L 567.732216 32.626216 
L 585.09858 32.674221 
L 602.464943 32.649955 
L 619.831307 33.142517 
L 637.19767 32.632041 
L 654.564034 32.774652 
L 671.930398 32.825944 
L 689.296761 32.791993 
L 706.663125 32.805278 
L 724.029489 32.70527 
L 741.395852 33.525833 
L 758.762216 32.805164 
L 776.12858 32.98547 
L 793.494943 33.038376 
L 810.861307 32.837121 
L 828.22767 33.549343 
L 845.594034 36.391947 
L 862.960398 36.673994 
L 880.326761 33.730825 
L 897.693125 39.21948 
L 915.059489 40.662916 
L 932.425852 34.232025 
L 949.792216 39.792593 
" clip-path="url(#p188f880db7)" style="fill: none; stroke: #5cb85c; stroke-linecap: square"/>
   </g>
   <g id="line2d_17">
    <path d="M 81.474034 34.295491 
L 98.840398 33.866107 
L 116.206761 34.822616 
L 133.573125 34.612948 
L 150.939489 33.720367 
L 168.305852 33.919698 
L 185.672216 33.677927 
L 203.03858 34.370035 
L 220.404943 33.295995 
L 237.771307 34.17902 
L 255.13767 33.929424 
L 272.504034 34.340887 
L 289.870398 33.839568 
L 307.236761 33.996116 
L 324.603125 34.1802 
L 341.969489 33.879129 
L 359.335852 34.065927 
L 376.702216 33.721295 
L 394.06858 33.608115 
L 411.434943 33.855081 
L 428.801307 33.675199 
L 446.16767 33.667992 
L 463.534034 33.563768 
L 480.900398 33.682129 
L 498.266761 33.969225 
L 515.633125 33.827903 
L 532.999489 33.742491 
L 550.365852 33.993383 
L 567.732216 33.985996 
L 585.09858 34.185073 
L 602.464943 34.060558 
L 619.831307 34.270569 
L 637.19767 34.687241 
L 654.564034 34.739528 
L 671.930398 34.915774 
L 689.296761 34.959062 
L 706.663125 35.033608 
L 724.029489 34.850193 
L 741.395852 34.783573 
L 758.762216 34.994709 
L 776.12858 34.776661 
L 793.494943 34.9083 
L 810.861307 34.556836 
L 828.22767 34.544234 
L 845.594034 34.646148 
L 862.960398 34.429161 
L 880.326761 34.763081 
L 897.693125 34.994964 
L 915.059489 34.943414 
L 932.425852 35.152905 
L 949.792216 35.834586 
" clip-path="url(#p188f880db7)" style="fill: none; stroke: #5cb85c; stroke-linecap: square"/>
   </g>
   <g id="line2d_18">
    <path d="M 38.058125 275.50206 
L 993.208125 275.50206 
" clip-path="url(#p188f880db7)" style="fill: none; stroke: #dedede; stroke-width: 2; stroke-linecap: square"/>
   </g>
   <g id="text_16">
    <!-- FastQC: Mean Quality Scores -->
    <g transform="translate(400.394375 19.3575) scale(0.16 -0.16)">
     <defs>
      <path id="DejaVuSans-46" d="M 628 4666 
L 3309 4666 
L 3309 4134 
L 1259 4134 
L 1259 2759 
L 3109 2759 
L 3109 2228 
L 1259 2228 
L 1259 0 
L 628 0 
L 628 4666 
z
" transform="scale(0.015625)"/>
      <path id="DejaVuSans-61" d="M 2194 1759 
Q 1497 1759 1228 1600 
Q 959 1441 959 1056 
Q 959 750 1161 570 
Q 1363 391 1709 391 
Q 2188 391 2477 730 
Q 2766 1069 2766 1631 
L 2766 1759 
L 2194 1759 
z
M 3341 1997 
L 3341 0 
L 2766 0 
L 2766 531 
Q 2569 213 2275 61 
Q 1981 -91 1556 -91 
Q 1019 -91 701 211 
Q 384 513 384 1019 
Q 384 1609 779 1909 
Q 1175 2209 1959 2209 
L 2766 2209 
L 2766 2266 
Q 2766 2663 2505 2880 
Q 2244 3097 1772 3097 
Q 1472 3097 1187 3025 
Q 903 2953 641 2809 
L 641 3341 
Q 956 3463 1253 3523 
Q 1550 3584 1831 3584 
Q 2591 3584 2966 3190 
Q 3341 2797 3341 1997 
z
" transform="scale(0.015625)"/>
      <path id="DejaVuSans-51" d="M 2522 4238 
Q 1834 4238 1429 3725 
Q 1025 3213 1025 2328 
Q 1025 1447 1429 934 
Q 1834 422 2522 422 
Q 3209 422 3611 934 
Q 4013 1447 4013 2328 
Q 4013 3213 3611 3725 
Q 3209 4238 2522 4238 
z
M 3406 84 
L 4238 -825 
L 3475 -825 
L 2784 -78 
Q 2681 -84 2626 -87 
Q 2572 -91 2522 -91 
Q 1538 -91 948 567 
Q 359 1225 359 2328 
Q 359 3434 948 4092 
Q 1538 4750 2522 4750 
Q 3503 4750 4090 4092 
Q 4678 3434 4678 2328 
Q 4678 1516 4351 937 
Q 4025 359 3406 84 
z
" transform="scale(0.015625)"/>
      <path id="DejaVuSans-43" d="M 4122 4306 
L 4122 3641 
Q 3803 3938 3442 4084 
Q 3081 4231 2675 4231 
Q 1875 4231 1450 3742 
Q 1025 3253 1025 2328 
Q 1025 1406 1450 917 
Q 1875 428 2675 428 
Q 3081 428 3442 575 
Q 3803 722 4122 1019 
L 4122 359 
Q 3791 134 3420 21 
Q 3050 -91 2638 -91 
Q 1578 -91 968 557 
Q 359 1206 359 2328 
Q 359 3453 968 4101 
Q 1578 4750 2638 4750 
Q 3056 4750 3426 4639 
Q 3797 4528 4122 4306 
z
" transform="scale(0.015625)"/>
      <path id="DejaVuSans-3a" d="M 750 794 
L 1409 794 
L 1409 0 
L 750 0 
L 750 794 
z
M 750 3309 
L 1409 3309 
L 1409 2516 
L 750 2516 
L 750 3309 
z
" transform="scale(0.015625)"/>
      <path id="DejaVuSans-4d" d="M 628 4666 
L 1569 4666 
L 2759 1491 
L 3956 4666 
L 4897 4666 
L 4897 0 
L 4281 0 
L 4281 4097 
L 3078 897 
L 2444 897 
L 1241 4097 
L 1241 0 
L 628 0 
L 628 4666 
z
" transform="scale(0.015625)"/>
      <path id="DejaVuSans-75" d="M 544 1381 
L 544 3500 
L 1119 3500 
L 1119 1403 
Q 1119 906 1312 657 
Q 1506 409 1894 409 
Q 2359 409 2629 706 
Q 2900 1003 2900 1516 
L 2900 3500 
L 3475 3500 
L 3475 0 
L 2900 0 
L 2900 538 
Q 2691 219 2414 64 
Q 2138 -91 1772 -91 
Q 1169 -91 856 284 
Q 544 659 544 1381 
z
M 1991 3584 
L 1991 3584 
z
" transform="scale(0.015625)"/>
      <path id="DejaVuSans-6c" d="M 603 4863 
L 1178 4863 
L 1178 0 
L 603 0 
L 603 4863 
z
" transform="scale(0.015625)"/>
      <path id="DejaVuSans-79" d="M 2059 -325 
Q 1816 -950 1584 -1140 
Q 1353 -1331 966 -1331 
L 506 -1331 
L 506 -850 
L 844 -850 
Q 1081 -850 1212 -737 
Q 1344 -625 1503 -206 
L 1606 56 
L 191 3500 
L 800 3500 
L 1894 763 
L 2988 3500 
L 3597 3500 
L 2059 -325 
z
" transform="scale(0.015625)"/>
     </defs>
     <use xlink:href="#DejaVuSans-46"/>
     <use xlink:href="#DejaVuSans-61" x="48.394531"/>
     <use xlink:href="#DejaVuSans-73" x="109.673828"/>
     <use xlink:href="#DejaVuSans-74" x="161.773438"/>
     <use xlink:href="#DejaVuSans-51" x="200.982422"/>
     <use xlink:href="#DejaVuSans-43" x="279.693359"/>
     <use xlink:href="#DejaVuSans-3a" x="349.517578"/>
     <use xlink:href="#DejaVuSans-20" x="383.208984"/>
     <use xlink:href="#DejaVuSans-4d" x="414.996094"/>
     <use xlink:href="#DejaVuSans-65" x="501.275391"/>
     <use xlink:href="#DejaVuSans-61" x="562.798828"/>
     <use xlink:href="#DejaVuSans-6e" x="624.078125"/>
     <use xlink:href="#DejaVuSans-20" x="687.457031"/>
     <use xlink:href="#DejaVuSans-51" x="719.244141"/>
     <use xlink:href="#DejaVuSans-75" x="797.955078"/>
     <use xlink:href="#DejaVuSans-61" x="861.333984"/>
     <use xlink:href="#DejaVuSans-6c" x="922.613281"/>
     <use xlink:href="#DejaVuSans-69" x="950.396484"/>
     <use xlink:href="#DejaVuSans-74" x="978.179688"/>
     <use xlink:href="#DejaVuSans-79" x="1017.388672"/>
     <use xlink:href="#DejaVuSans-20" x="1076.568359"/>
     <use xlink:href="#DejaVuSans-53" x="1108.355469"/>
     <use xlink:href="#DejaVuSans-63" x="1171.832031"/>
     <use xlink:href="#DejaVuSans-6f" x="1226.8125"/>
     <use xlink:href="#DejaVuSans-72" x="1287.994141"/>
     <use xlink:href="#DejaVuSans-65" x="1326.857422"/>
     <use xlink:href="#DejaVuSans-73" x="1388.380859"/>
    </g>
   </g>
   <g id="legend_1">
    <g id="line2d_19">
     <path d="M 45.258125 305.319194 
L 53.258125 305.319194 
L 61.258125 305.319194 
" style="fill: none; stroke: #5cb85c; stroke-linecap: square"/>
    </g>
    <g id="text_17">
     <!-- SRR27848283_1 -->
     <g transform="translate(67.658125 308.119194) scale(0.08 -0.08)">
      <defs>
       <path id="DejaVuSans-52" d="M 2841 2188 
Q 3044 2119 3236 1894 
Q 3428 1669 3622 1275 
L 4263 0 
L 3584 0 
L 2988 1197 
Q 2756 1666 2539 1819 
Q 2322 1972 1947 1972 
L 1259 1972 
L 1259 0 
L 628 0 
L 628 4666 
L 2053 4666 
Q 2853 4666 3247 4331 
Q 3641 3997 3641 3322 
Q 3641 2881 3436 2590 
Q 3231 2300 2841 2188 
z
M 1259 4147 
L 1259 2491 
L 2053 2491 
Q 2509 2491 2742 2702 
Q 2975 2913 2975 3322 
Q 2975 3731 2742 3939 
Q 2509 4147 2053 4147 
L 1259 4147 
z
" transform="scale(0.015625)"/>
       <path id="DejaVuSans-37" d="M 525 4666 
L 3525 4666 
L 3525 4397 
L 1831 0 
L 1172 0 
L 2766 4134 
L 525 4134 
L 525 4666 
z
" transform="scale(0.015625)"/>
       <path id="DejaVuSans-38" d="M 2034 2216 
Q 1584 2216 1326 1975 
Q 1069 1734 1069 1313 
Q 1069 891 1326 650 
Q 1584 409 2034 409 
Q 2484 409 2743 651 
Q 3003 894 3003 1313 
Q 3003 1734 2745 1975 
Q 2488 2216 2034 2216 
z
M 1403 2484 
Q 997 2584 770 2862 
Q 544 3141 544 3541 
Q 544 4100 942 4425 
Q 1341 4750 2034 4750 
Q 2731 4750 3128 4425 
Q 3525 4100 3525 3541 
Q 3525 3141 3298 2862 
Q 3072 2584 2669 2484 
Q 3125 2378 3379 2068 
Q 3634 1759 3634 1313 
Q 3634 634 3220 271 
Q 2806 -91 2034 -91 
Q 1263 -91 848 271 
Q 434 634 434 1313 
Q 434 1759 690 2068 
Q 947 2378 1403 2484 
z
M 1172 3481 
Q 1172 3119 1398 2916 
Q 1625 2713 2034 2713 
Q 2441 2713 2670 2916 
Q 2900 3119 2900 3481 
Q 2900 3844 2670 4047 
Q 2441 4250 2034 4250 
Q 1625 4250 1398 4047 
Q 1172 3844 1172 3481 
z
" transform="scale(0.015625)"/>
       <path id="DejaVuSans-5f" d="M 3263 -1063 
L 3263 -1509 
L -63 -1509 
L -63 -1063 
L 3263 -1063 
z
" transform="scale(0.015625)"/>
      </defs>
      <use xlink:href="#DejaVuSans-53"/>
      <use xlink:href="#DejaVuSans-52" x="63.476562"/>
      <use xlink:href="#DejaVuSans-52" x="132.958984"/>
      <use xlink:href="#DejaVuSans-32" x="202.441406"/>
      <use xlink:href="#DejaVuSans-37" x="266.064453"/>
      <use xlink:href="#DejaVuSans-38" x="329.6875"/>
      <use xlink:href="#DejaVuSans-34" x="393.310547"/>
      <use xlink:href="#DejaVuSans-38" x="456.933594"/>
      <use xlink:href="#DejaVuSans-32" x="520.556641"/>
      <use xlink:href="#DejaVuSans-38" x="584.179688"/>
      <use xlink:href="#DejaVuSans-33" x="647.802734"/>
      <use xlink:href="#DejaVuSans-5f" x="711.425781"/>
      <use xlink:href="#DejaVuSans-31" x="761.425781"/>
     </g>
    </g>
    <g id="line2d_20">
     <path d="M 45.258125 317.284194 
L 53.258125 317.284194 
L 61.258125 317.284194 
" style="fill: none; stroke: #5cb85c; stroke-linecap: square"/>
    </g>
    <g id="text_18">
     <!-- SRR27848283_2 -->
     <g transform="translate(67.658125 320.084194) scale(0.08 -0.08)">
      <use xlink:href="#DejaVuSans-53"/>
      <use xlink:href="#DejaVuSans-52" x="63.476562"/>
      <use xlink:href="#DejaVuSans-52" x="132.958984"/>
      <use xlink:href="#DejaVuSans-32" x="202.441406"/>
      <use xlink:href="#DejaVuSans-37" x="266.064453"/>
      <use xlink:href="#DejaVuSans-38" x="329.6875"/>
      <use xlink:href="#DejaVuSans-34" x="393.310547"/>
      <use xlink:href="#DejaVuSans-38" x="456.933594"/>
      <use xlink:href="#DejaVuSans-32" x="520.556641"/>
      <use xlink:href="#DejaVuSans-38" x="584.179688"/>
      <use xlink:href="#DejaVuSans-33" x="647.802734"/>
      <use xlink:href="#DejaVuSans-5f" x="711.425781"/>
      <use xlink:href="#DejaVuSans-32" x="761.425781"/>
     </g>
    </g>
    <g id="line2d_21">
     <path d="M 258.344062 305.319194 
L 266.344062 305.319194 
L 274.344062 305.319194 
" style="fill: none; stroke: #5cb85c; stroke-linecap: square"/>
    </g>
    <g id="text_19">
     <!-- SRR27848284_1 -->
     <g transform="translate(280.744062 308.119194) scale(0.08 -0.08)">
      <use xlink:href="#DejaVuSans-53"/>
      <use xlink:href="#DejaVuSans-52" x="63.476562"/>
      <use xlink:href="#DejaVuSans-52" x="132.958984"/>
      <use xlink:href="#DejaVuSans-32" x="202.441406"/>
      <use xlink:href="#DejaVuSans-37" x="266.064453"/>
      <use xlink:href="#DejaVuSans-38" x="329.6875"/>
      <use xlink:href="#DejaVuSans-34" x="393.310547"/>
      <use xlink:href="#DejaVuSans-38" x="456.933594"/>
      <use xlink:href="#DejaVuSans-32" x="520.556641"/>
      <use xlink:href="#DejaVuSans-38" x="584.179688"/>
      <use xlink:href="#DejaVuSans-34" x="647.802734"/>
      <use xlink:href="#DejaVuSans-5f" x="711.425781"/>
      <use xlink:href="#DejaVuSans-31" x="761.425781"/>
     </g>
    </g>
    <g id="line2d_22">
     <path d="M 258.344062 317.284194 
L 266.344062 317.284194 
L 274.344062 317.284194 
" style="fill: none; stroke: #5cb85c; stroke-linecap: square"/>
    </g>
    <g id="text_20">
     <!-- SRR27848284_2 -->
     <g transform="translate(280.744062 320.084194) scale(0.08 -0.08)">
      <use xlink:href="#DejaVuSans-53"/>
      <use xlink:href="#DejaVuSans-52" x="63.476562"/>
      <use xlink:href="#DejaVuSans-52" x="132.958984"/>
      <use xlink:href="#DejaVuSans-32" x="202.441406"/>
      <use xlink:href="#DejaVuSans-37" x="266.064453"/>
      <use xlink:href="#DejaVuSans-38" x="329.6875"/>
      <use xlink:href="#DejaVuSans-34" x="393.310547"/>
      <use xlink:href="#DejaVuSans-38" x="456.933594"/>
      <use xlink:href="#DejaVuSans-32" x="520.556641"/>
      <use xlink:href="#DejaVuSans-38" x="584.179688"/>
      <use xlink:href="#DejaVuSans-34" x="647.802734"/>
      <use xlink:href="#DejaVuSans-5f" x="711.425781"/>
      <use xlink:href="#DejaVuSans-32" x="761.425781"/>
     </g>
    </g>
    <g id="line2d_23">
     <path d="M 471.43 305.319194 
L 479.43 305.319194 
L 487.43 305.319194 
" style="fill: none; stroke: #5cb85c; stroke-linecap: square"/>
    </g>
    <g id="text_21">
     <!-- SRR27848285_1 -->
     <g transform="translate(493.83 308.119194) scale(0.08 -0.08)">
      <use xlink:href="#DejaVuSans-53"/>
      <use xlink:href="#DejaVuSans-52" x="63.476562"/>
      <use xlink:href="#DejaVuSans-52" x="132.958984"/>
      <use xlink:href="#DejaVuSans-32" x="202.441406"/>
      <use xlink:href="#DejaVuSans-37" x="266.064453"/>
      <use xlink:href="#DejaVuSans-38" x="329.6875"/>
      <use xlink:href="#DejaVuSans-34" x="393.310547"/>
      <use xlink:href="#DejaVuSans-38" x="456.933594"/>
      <use xlink:href="#DejaVuSans-32" x="520.556641"/>
      <use xlink:href="#DejaVuSans-38" x="584.179688"/>
      <use xlink:href="#DejaVuSans-35" x="647.802734"/>
      <use xlink:href="#DejaVuSans-5f" x="711.425781"/>
      <use xlink:href="#DejaVuSans-31" x="761.425781"/>
     </g>
    </g>
    <g id="line2d_24">
     <path d="M 471.43 317.284194 
L 479.43 317.284194 
L 487.43 317.284194 
" style="fill: none; stroke: #5cb85c; stroke-linecap: square"/>
    </g>
    <g id="text_22">
     <!-- SRR27848285_2 -->
     <g transform="translate(493.83 320.084194) scale(0.08 -0.08)">
      <use xlink:href="#DejaVuSans-53"/>
      <use xlink:href="#DejaVuSans-52" x="63.476562"/>
      <use xlink:href="#DejaVuSans-52" x="132.958984"/>
      <use xlink:href="#DejaVuSans-32" x="202.441406"/>
      <use xlink:href="#DejaVuSans-37" x="266.064453"/>
      <use xlink:href="#DejaVuSans-38" x="329.6875"/>
      <use xlink:href="#DejaVuSans-34" x="393.310547"/>
      <use xlink:href="#DejaVuSans-38" x="456.933594"/>
      <use xlink:href="#DejaVuSans-32" x="520.556641"/>
      <use xlink:href="#DejaVuSans-38" x="584.179688"/>
      <use xlink:href="#DejaVuSans-35" x="647.802734"/>
      <use xlink:href="#DejaVuSans-5f" x="711.425781"/>
      <use xlink:href="#DejaVuSans-32" x="761.425781"/>
     </g>
    </g>
    <g id="line2d_25">
     <path d="M 684.515937 305.319194 
L 692.515937 305.319194 
L 700.515937 305.319194 
" style="fill: none; stroke: #5cb85c; stroke-linecap: square"/>
    </g>
    <g id="text_23">
     <!-- SRR27848286_1 -->
     <g transform="translate(706.915937 308.119194) scale(0.08 -0.08)">
      <defs>
       <path id="DejaVuSans-36" d="M 2113 2584 
Q 1688 2584 1439 2293 
Q 1191 2003 1191 1497 
Q 1191 994 1439 701 
Q 1688 409 2113 409 
Q 2538 409 2786 701 
Q 3034 994 3034 1497 
Q 3034 2003 2786 2293 
Q 2538 2584 2113 2584 
z
M 3366 4563 
L 3366 3988 
Q 3128 4100 2886 4159 
Q 2644 4219 2406 4219 
Q 1781 4219 1451 3797 
Q 1122 3375 1075 2522 
Q 1259 2794 1537 2939 
Q 1816 3084 2150 3084 
Q 2853 3084 3261 2657 
Q 3669 2231 3669 1497 
Q 3669 778 3244 343 
Q 2819 -91 2113 -91 
Q 1303 -91 875 529 
Q 447 1150 447 2328 
Q 447 3434 972 4092 
Q 1497 4750 2381 4750 
Q 2619 4750 2861 4703 
Q 3103 4656 3366 4563 
z
" transform="scale(0.015625)"/>
      </defs>
      <use xlink:href="#DejaVuSans-53"/>
      <use xlink:href="#DejaVuSans-52" x="63.476562"/>
      <use xlink:href="#DejaVuSans-52" x="132.958984"/>
      <use xlink:href="#DejaVuSans-32" x="202.441406"/>
      <use xlink:href="#DejaVuSans-37" x="266.064453"/>
      <use xlink:href="#DejaVuSans-38" x="329.6875"/>
      <use xlink:href="#DejaVuSans-34" x="393.310547"/>
      <use xlink:href="#DejaVuSans-38" x="456.933594"/>
      <use xlink:href="#DejaVuSans-32" x="520.556641"/>
      <use xlink:href="#DejaVuSans-38" x="584.179688"/>
      <use xlink:href="#DejaVuSans-36" x="647.802734"/>
      <use xlink:href="#DejaVuSans-5f" x="711.425781"/>
      <use xlink:href="#DejaVuSans-31" x="761.425781"/>
     </g>
    </g>
    <g id="line2d_26">
     <path d="M 684.515937 317.284194 
L 692.515937 317.284194 
L 700.515937 317.284194 
" style="fill: none; stroke: #5cb85c; stroke-linecap: square"/>
    </g>
    <g id="text_24">
     <!-- SRR27848286_2 -->
     <g transform="translate(706.915937 320.084194) scale(0.08 -0.08)">
      <use xlink:href="#DejaVuSans-53"/>
      <use xlink:href="#DejaVuSans-52" x="63.476562"/>
      <use xlink:href="#DejaVuSans-52" x="132.958984"/>
      <use xlink:href="#DejaVuSans-32" x="202.441406"/>
      <use xlink:href="#DejaVuSans-37" x="266.064453"/>
      <use xlink:href="#DejaVuSans-38" x="329.6875"/>
      <use xlink:href="#DejaVuSans-34" x="393.310547"/>
      <use xlink:href="#DejaVuSans-38" x="456.933594"/>
      <use xlink:href="#DejaVuSans-32" x="520.556641"/>
      <use xlink:href="#DejaVuSans-38" x="584.179688"/>
      <use xlink:href="#DejaVuSans-36" x="647.802734"/>
      <use xlink:href="#DejaVuSans-5f" x="711.425781"/>
      <use xlink:href="#DejaVuSans-32" x="761.425781"/>
     </g>
    </g>
    <g id="line2d_27">
     <path d="M 897.601875 305.319194 
L 905.601875 305.319194 
L 913.601875 305.319194 
" style="fill: none; stroke: #5cb85c; stroke-linecap: square"/>
    </g>
    <g id="text_25">
     <!-- SRR27848287_1 -->
     <g transform="translate(920.001875 308.119194) scale(0.08 -0.08)">
      <use xlink:href="#DejaVuSans-53"/>
      <use xlink:href="#DejaVuSans-52" x="63.476562"/>
      <use xlink:href="#DejaVuSans-52" x="132.958984"/>
      <use xlink:href="#DejaVuSans-32" x="202.441406"/>
      <use xlink:href="#DejaVuSans-37" x="266.064453"/>
      <use xlink:href="#DejaVuSans-38" x="329.6875"/>
      <use xlink:href="#DejaVuSans-34" x="393.310547"/>
      <use xlink:href="#DejaVuSans-38" x="456.933594"/>
      <use xlink:href="#DejaVuSans-32" x="520.556641"/>
      <use xlink:href="#DejaVuSans-38" x="584.179688"/>
      <use xlink:href="#DejaVuSans-37" x="647.802734"/>
      <use xlink:href="#DejaVuSans-5f" x="711.425781"/>
      <use xlink:href="#DejaVuSans-31" x="761.425781"/>
     </g>
    </g>
    <g id="line2d_28">
     <path d="M 897.601875 317.284194 
L 905.601875 317.284194 
L 913.601875 317.284194 
" style="fill: none; stroke: #5cb85c; stroke-linecap: square"/>
    </g>
    <g id="text_26">
     <!-- SRR27848287_2 -->
     <g transform="translate(920.001875 320.084194) scale(0.08 -0.08)">
      <use xlink:href="#DejaVuSans-53"/>
      <use xlink:href="#DejaVuSans-52" x="63.476562"/>
      <use xlink:href="#DejaVuSans-52" x="132.958984"/>
      <use xlink:href="#DejaVuSans-32" x="202.441406"/>
      <use xlink:href="#DejaVuSans-37" x="266.064453"/>
      <use xlink:href="#DejaVuSans-38" x="329.6875"/>
      <use xlink:href="#DejaVuSans-34" x="393.310547"/>
      <use xlink:href="#DejaVuSans-38" x="456.933594"/>
      <use xlink:href="#DejaVuSans-32" x="520.556641"/>
      <use xlink:href="#DejaVuSans-38" x="584.179688"/>
      <use xlink:href="#DejaVuSans-37" x="647.802734"/>
      <use xlink:href="#DejaVuSans-5f" x="711.425781"/>
      <use xlink:href="#DejaVuSans-32" x="761.425781"/>
     </g>
    </g>
   </g>
  </g>
 </g>
 <defs>
  <clipPath id="p188f880db7">
   <rect x="38.058125" y="31.55486" width="955.15" height="243.9472"/>
  </clipPath>
 </defs>
</svg>
