<?xml version="1.0" encoding="utf-8" standalone="no"?>
<!DOCTYPE svg PUBLIC "-//W3C//DTD SVG 1.1//EN"
  "http://www.w3.org/Graphics/SVG/1.1/DTD/svg11.dtd">
<svg xmlns:xlink="http://www.w3.org/1999/xlink" width="1000.573125pt" height="332.370444pt" viewBox="0 0 1000.573125 332.370444" xmlns="http://www.w3.org/2000/svg" version="1.1">
 <metadata>
  <rdf:RDF xmlns:dc="http://purl.org/dc/elements/1.1/" xmlns:cc="http://creativecommons.org/ns#" xmlns:rdf="http://www.w3.org/1999/02/22-rdf-syntax-ns#">
   <cc:Work>
    <dc:type rdf:resource="http://purl.org/dc/dcmitype/StillImage"/>
    <dc:date>2024-09-19T15:05:04.919599</dc:date>
    <dc:format>image/svg+xml</dc:format>
    <dc:creator>
     <cc:Agent>
      <dc:title>Matplotlib v3.9.2, https://matplotlib.org/</dc:title>
     </cc:Agent>
    </dc:creator>
   </cc:Work>
  </rdf:RDF>
 </metadata>
 <defs>
  <style type="text/css">*{stroke-linejoin: round; stroke-linecap: butt}</style>
 </defs>
 <g id="figure_1">
  <g id="axes_1">
   <g id="patch_1">
    <path d="M 38.058125 275.50206 
L 985.738125 275.50206 
L 985.738125 31.55486 
L 38.058125 31.55486 
z
" style="fill: #ffffff"/>
   </g>
   <g id="matplotlib.axis_1">
    <g id="xtick_1">
     <g id="text_1">
      <!-- 0 -->
      <g transform="translate(35.513125 288.58081) scale(0.08 -0.08)">
       <defs>
        <path id="DejaVuSans-30" d="M 2034 4250 
Q 1547 4250 1301 3770 
Q 1056 3291 1056 2328 
Q 1056 1369 1301 889 
Q 1547 409 2034 409 
Q 2525 409 2770 889 
Q 3016 1369 3016 2328 
Q 3016 3291 2770 3770 
Q 2525 4250 2034 4250 
z
M 2034 4750 
Q 2819 4750 3233 4129 
Q 3647 3509 3647 2328 
Q 3647 1150 3233 529 
Q 2819 -91 2034 -91 
Q 1250 -91 836 529 
Q 422 1150 422 2328 
Q 422 3509 836 4129 
Q 1250 4750 2034 4750 
z
" transform="scale(0.015625)"/>
       </defs>
       <use xlink:href="#DejaVuSans-30"/>
      </g>
     </g>
    </g>
    <g id="xtick_2">
     <g id="text_2">
      <!-- 20 -->
      <g transform="translate(222.504125 288.58081) scale(0.08 -0.08)">
       <defs>
        <path id="DejaVuSans-32" d="M 1228 531 
L 3431 531 
L 3431 0 
L 469 0 
L 469 531 
Q 828 903 1448 1529 
Q 2069 2156 2228 2338 
Q 2531 2678 2651 2914 
Q 2772 3150 2772 3378 
Q 2772 3750 2511 3984 
Q 2250 4219 1831 4219 
Q 1534 4219 1204 4116 
Q 875 4013 500 3803 
L 500 4441 
Q 881 4594 1212 4672 
Q 1544 4750 1819 4750 
Q 2544 4750 2975 4387 
Q 3406 4025 3406 3419 
Q 3406 3131 3298 2873 
Q 3191 2616 2906 2266 
Q 2828 2175 2409 1742 
Q 1991 1309 1228 531 
z
" transform="scale(0.015625)"/>
       </defs>
       <use xlink:href="#DejaVuSans-32"/>
       <use xlink:href="#DejaVuSans-30" x="63.623047"/>
      </g>
     </g>
    </g>
    <g id="xtick_3">
     <g id="text_3">
      <!-- 40 -->
      <g transform="translate(412.040125 288.58081) scale(0.08 -0.08)">
       <defs>
        <path id="DejaVuSans-34" d="M 2419 4116 
L 825 1625 
L 2419 1625 
L 2419 4116 
z
M 2253 4666 
L 3047 4666 
L 3047 1625 
L 3713 1625 
L 3713 1100 
L 3047 1100 
L 3047 0 
L 2419 0 
L 2419 1100 
L 313 1100 
L 313 1709 
L 2253 4666 
z
" transform="scale(0.015625)"/>
       </defs>
       <use xlink:href="#DejaVuSans-34"/>
       <use xlink:href="#DejaVuSans-30" x="63.623047"/>
      </g>
     </g>
    </g>
    <g id="xtick_4">
     <g id="text_4">
      <!-- 60 -->
      <g transform="translate(601.576125 288.58081) scale(0.08 -0.08)">
       <defs>
        <path id="DejaVuSans-36" d="M 2113 2584 
Q 1688 2584 1439 2293 
Q 1191 2003 1191 1497 
Q 1191 994 1439 701 
Q 1688 409 2113 409 
Q 2538 409 2786 701 
Q 3034 994 3034 1497 
Q 3034 2003 2786 2293 
Q 2538 2584 2113 2584 
z
M 3366 4563 
L 3366 3988 
Q 3128 4100 2886 4159 
Q 2644 4219 2406 4219 
Q 1781 4219 1451 3797 
Q 1122 3375 1075 2522 
Q 1259 2794 1537 2939 
Q 1816 3084 2150 3084 
Q 2853 3084 3261 2657 
Q 3669 2231 3669 1497 
Q 3669 778 3244 343 
Q 2819 -91 2113 -91 
Q 1303 -91 875 529 
Q 447 1150 447 2328 
Q 447 3434 972 4092 
Q 1497 4750 2381 4750 
Q 2619 4750 2861 4703 
Q 3103 4656 3366 4563 
z
" transform="scale(0.015625)"/>
       </defs>
       <use xlink:href="#DejaVuSans-36"/>
       <use xlink:href="#DejaVuSans-30" x="63.623047"/>
      </g>
     </g>
    </g>
    <g id="xtick_5">
     <g id="text_5">
      <!-- 80 -->
      <g transform="translate(791.112125 288.58081) scale(0.08 -0.08)">
       <defs>
        <path id="DejaVuSans-38" d="M 2034 2216 
Q 1584 2216 1326 1975 
Q 1069 1734 1069 1313 
Q 1069 891 1326 650 
Q 1584 409 2034 409 
Q 2484 409 2743 651 
Q 3003 894 3003 1313 
Q 3003 1734 2745 1975 
Q 2488 2216 2034 2216 
z
M 1403 2484 
Q 997 2584 770 2862 
Q 544 3141 544 3541 
Q 544 4100 942 4425 
Q 1341 4750 2034 4750 
Q 2731 4750 3128 4425 
Q 3525 4100 3525 3541 
Q 3525 3141 3298 2862 
Q 3072 2584 2669 2484 
Q 3125 2378 3379 2068 
Q 3634 1759 3634 1313 
Q 3634 634 3220 271 
Q 2806 -91 2034 -91 
Q 1263 -91 848 271 
Q 434 634 434 1313 
Q 434 1759 690 2068 
Q 947 2378 1403 2484 
z
M 1172 3481 
Q 1172 3119 1398 2916 
Q 1625 2713 2034 2713 
Q 2441 2713 2670 2916 
Q 2900 3119 2900 3481 
Q 2900 3844 2670 4047 
Q 2441 4250 2034 4250 
Q 1625 4250 1398 4047 
Q 1172 3844 1172 3481 
z
" transform="scale(0.015625)"/>
       </defs>
       <use xlink:href="#DejaVuSans-38"/>
       <use xlink:href="#DejaVuSans-30" x="63.623047"/>
      </g>
     </g>
    </g>
    <g id="xtick_6">
     <g id="text_6">
      <!-- 100 -->
      <g transform="translate(978.103125 288.58081) scale(0.08 -0.08)">
       <defs>
        <path id="DejaVuSans-31" d="M 794 531 
L 1825 531 
L 1825 4091 
L 703 3866 
L 703 4441 
L 1819 4666 
L 2450 4666 
L 2450 531 
L 3481 531 
L 3481 0 
L 794 0 
L 794 531 
z
" transform="scale(0.015625)"/>
       </defs>
       <use xlink:href="#DejaVuSans-31"/>
       <use xlink:href="#DejaVuSans-30" x="63.623047"/>
       <use xlink:href="#DejaVuSans-30" x="127.246094"/>
      </g>
     </g>
    </g>
    <g id="text_7">
     <!-- % GC -->
     <g transform="translate(498.192656 301.842998) scale(0.1 -0.1)">
      <defs>
       <path id="DejaVuSans-25" d="M 4653 2053 
Q 4381 2053 4226 1822 
Q 4072 1591 4072 1178 
Q 4072 772 4226 539 
Q 4381 306 4653 306 
Q 4919 306 5073 539 
Q 5228 772 5228 1178 
Q 5228 1588 5073 1820 
Q 4919 2053 4653 2053 
z
M 4653 2450 
Q 5147 2450 5437 2106 
Q 5728 1763 5728 1178 
Q 5728 594 5436 251 
Q 5144 -91 4653 -91 
Q 4153 -91 3862 251 
Q 3572 594 3572 1178 
Q 3572 1766 3864 2108 
Q 4156 2450 4653 2450 
z
M 1428 4353 
Q 1159 4353 1004 4120 
Q 850 3888 850 3481 
Q 850 3069 1003 2837 
Q 1156 2606 1428 2606 
Q 1700 2606 1854 2837 
Q 2009 3069 2009 3481 
Q 2009 3884 1853 4118 
Q 1697 4353 1428 4353 
z
M 4250 4750 
L 4750 4750 
L 1831 -91 
L 1331 -91 
L 4250 4750 
z
M 1428 4750 
Q 1922 4750 2215 4408 
Q 2509 4066 2509 3481 
Q 2509 2891 2217 2550 
Q 1925 2209 1428 2209 
Q 931 2209 642 2551 
Q 353 2894 353 3481 
Q 353 4063 643 4406 
Q 934 4750 1428 4750 
z
" transform="scale(0.015625)"/>
       <path id="DejaVuSans-20" transform="scale(0.015625)"/>
       <path id="DejaVuSans-47" d="M 3809 666 
L 3809 1919 
L 2778 1919 
L 2778 2438 
L 4434 2438 
L 4434 434 
Q 4069 175 3628 42 
Q 3188 -91 2688 -91 
Q 1594 -91 976 548 
Q 359 1188 359 2328 
Q 359 3472 976 4111 
Q 1594 4750 2688 4750 
Q 3144 4750 3555 4637 
Q 3966 4525 4313 4306 
L 4313 3634 
Q 3963 3931 3569 4081 
Q 3175 4231 2741 4231 
Q 1884 4231 1454 3753 
Q 1025 3275 1025 2328 
Q 1025 1384 1454 906 
Q 1884 428 2741 428 
Q 3075 428 3337 486 
Q 3600 544 3809 666 
z
" transform="scale(0.015625)"/>
       <path id="DejaVuSans-43" d="M 4122 4306 
L 4122 3641 
Q 3803 3938 3442 4084 
Q 3081 4231 2675 4231 
Q 1875 4231 1450 3742 
Q 1025 3253 1025 2328 
Q 1025 1406 1450 917 
Q 1875 428 2675 428 
Q 3081 428 3442 575 
Q 3803 722 4122 1019 
L 4122 359 
Q 3791 134 3420 21 
Q 3050 -91 2638 -91 
Q 1578 -91 968 557 
Q 359 1206 359 2328 
Q 359 3453 968 4101 
Q 1578 4750 2638 4750 
Q 3056 4750 3426 4639 
Q 3797 4528 4122 4306 
z
" transform="scale(0.015625)"/>
      </defs>
      <use xlink:href="#DejaVuSans-25"/>
      <use xlink:href="#DejaVuSans-20" x="95.019531"/>
      <use xlink:href="#DejaVuSans-47" x="126.806641"/>
      <use xlink:href="#DejaVuSans-43" x="204.296875"/>
     </g>
    </g>
   </g>
   <g id="matplotlib.axis_2">
    <g id="ytick_1">
     <g id="line2d_1">
      <path d="M 38.058125 275.50206 
L 985.738125 275.50206 
" clip-path="url(#p12b13268e4)" style="fill: none; stroke: #dedede; stroke-linecap: square"/>
     </g>
     <g id="text_8">
      <!-- 0 -->
      <g transform="translate(25.968125 278.541435) scale(0.08 -0.08)">
       <use xlink:href="#DejaVuSans-30"/>
      </g>
     </g>
    </g>
    <g id="ytick_2">
     <g id="line2d_2">
      <path d="M 38.058125 227.248595 
L 985.738125 227.248595 
" clip-path="url(#p12b13268e4)" style="fill: none; stroke: #dedede; stroke-linecap: square"/>
     </g>
     <g id="text_9">
      <!-- 2 -->
      <g transform="translate(25.968125 230.28797) scale(0.08 -0.08)">
       <use xlink:href="#DejaVuSans-32"/>
      </g>
     </g>
    </g>
    <g id="ytick_3">
     <g id="line2d_3">
      <path d="M 38.058125 178.99513 
L 985.738125 178.99513 
" clip-path="url(#p12b13268e4)" style="fill: none; stroke: #dedede; stroke-linecap: square"/>
     </g>
     <g id="text_10">
      <!-- 4 -->
      <g transform="translate(25.968125 182.034505) scale(0.08 -0.08)">
       <use xlink:href="#DejaVuSans-34"/>
      </g>
     </g>
    </g>
    <g id="ytick_4">
     <g id="line2d_4">
      <path d="M 38.058125 130.741665 
L 985.738125 130.741665 
" clip-path="url(#p12b13268e4)" style="fill: none; stroke: #dedede; stroke-linecap: square"/>
     </g>
     <g id="text_11">
      <!-- 6 -->
      <g transform="translate(25.968125 133.78104) scale(0.08 -0.08)">
       <use xlink:href="#DejaVuSans-36"/>
      </g>
     </g>
    </g>
    <g id="ytick_5">
     <g id="line2d_5">
      <path d="M 38.058125 82.4882 
L 985.738125 82.4882 
" clip-path="url(#p12b13268e4)" style="fill: none; stroke: #dedede; stroke-linecap: square"/>
     </g>
     <g id="text_12">
      <!-- 8 -->
      <g transform="translate(25.968125 85.527575) scale(0.08 -0.08)">
       <use xlink:href="#DejaVuSans-38"/>
      </g>
     </g>
    </g>
    <g id="ytick_6">
     <g id="line2d_6">
      <path d="M 38.058125 34.234734 
L 985.738125 34.234734 
" clip-path="url(#p12b13268e4)" style="fill: none; stroke: #dedede; stroke-linecap: square"/>
     </g>
     <g id="text_13">
      <!-- 10 -->
      <g transform="translate(20.878125 37.274109) scale(0.08 -0.08)">
       <use xlink:href="#DejaVuSans-31"/>
       <use xlink:href="#DejaVuSans-30" x="63.623047"/>
      </g>
     </g>
    </g>
    <g id="text_14">
     <!-- Percentage -->
     <g transform="translate(14.798438 181.651116) rotate(-90) scale(0.1 -0.1)">
      <defs>
       <path id="DejaVuSans-50" d="M 1259 4147 
L 1259 2394 
L 2053 2394 
Q 2494 2394 2734 2622 
Q 2975 2850 2975 3272 
Q 2975 3691 2734 3919 
Q 2494 4147 2053 4147 
L 1259 4147 
z
M 628 4666 
L 2053 4666 
Q 2838 4666 3239 4311 
Q 3641 3956 3641 3272 
Q 3641 2581 3239 2228 
Q 2838 1875 2053 1875 
L 1259 1875 
L 1259 0 
L 628 0 
L 628 4666 
z
" transform="scale(0.015625)"/>
       <path id="DejaVuSans-65" d="M 3597 1894 
L 3597 1613 
L 953 1613 
Q 991 1019 1311 708 
Q 1631 397 2203 397 
Q 2534 397 2845 478 
Q 3156 559 3463 722 
L 3463 178 
Q 3153 47 2828 -22 
Q 2503 -91 2169 -91 
Q 1331 -91 842 396 
Q 353 884 353 1716 
Q 353 2575 817 3079 
Q 1281 3584 2069 3584 
Q 2775 3584 3186 3129 
Q 3597 2675 3597 1894 
z
M 3022 2063 
Q 3016 2534 2758 2815 
Q 2500 3097 2075 3097 
Q 1594 3097 1305 2825 
Q 1016 2553 972 2059 
L 3022 2063 
z
" transform="scale(0.015625)"/>
       <path id="DejaVuSans-72" d="M 2631 2963 
Q 2534 3019 2420 3045 
Q 2306 3072 2169 3072 
Q 1681 3072 1420 2755 
Q 1159 2438 1159 1844 
L 1159 0 
L 581 0 
L 581 3500 
L 1159 3500 
L 1159 2956 
Q 1341 3275 1631 3429 
Q 1922 3584 2338 3584 
Q 2397 3584 2469 3576 
Q 2541 3569 2628 3553 
L 2631 2963 
z
" transform="scale(0.015625)"/>
       <path id="DejaVuSans-63" d="M 3122 3366 
L 3122 2828 
Q 2878 2963 2633 3030 
Q 2388 3097 2138 3097 
Q 1578 3097 1268 2742 
Q 959 2388 959 1747 
Q 959 1106 1268 751 
Q 1578 397 2138 397 
Q 2388 397 2633 464 
Q 2878 531 3122 666 
L 3122 134 
Q 2881 22 2623 -34 
Q 2366 -91 2075 -91 
Q 1284 -91 818 406 
Q 353 903 353 1747 
Q 353 2603 823 3093 
Q 1294 3584 2113 3584 
Q 2378 3584 2631 3529 
Q 2884 3475 3122 3366 
z
" transform="scale(0.015625)"/>
       <path id="DejaVuSans-6e" d="M 3513 2113 
L 3513 0 
L 2938 0 
L 2938 2094 
Q 2938 2591 2744 2837 
Q 2550 3084 2163 3084 
Q 1697 3084 1428 2787 
Q 1159 2491 1159 1978 
L 1159 0 
L 581 0 
L 581 3500 
L 1159 3500 
L 1159 2956 
Q 1366 3272 1645 3428 
Q 1925 3584 2291 3584 
Q 2894 3584 3203 3211 
Q 3513 2838 3513 2113 
z
" transform="scale(0.015625)"/>
       <path id="DejaVuSans-74" d="M 1172 4494 
L 1172 3500 
L 2356 3500 
L 2356 3053 
L 1172 3053 
L 1172 1153 
Q 1172 725 1289 603 
Q 1406 481 1766 481 
L 2356 481 
L 2356 0 
L 1766 0 
Q 1100 0 847 248 
Q 594 497 594 1153 
L 594 3053 
L 172 3053 
L 172 3500 
L 594 3500 
L 594 4494 
L 1172 4494 
z
" transform="scale(0.015625)"/>
       <path id="DejaVuSans-61" d="M 2194 1759 
Q 1497 1759 1228 1600 
Q 959 1441 959 1056 
Q 959 750 1161 570 
Q 1363 391 1709 391 
Q 2188 391 2477 730 
Q 2766 1069 2766 1631 
L 2766 1759 
L 2194 1759 
z
M 3341 1997 
L 3341 0 
L 2766 0 
L 2766 531 
Q 2569 213 2275 61 
Q 1981 -91 1556 -91 
Q 1019 -91 701 211 
Q 384 513 384 1019 
Q 384 1609 779 1909 
Q 1175 2209 1959 2209 
L 2766 2209 
L 2766 2266 
Q 2766 2663 2505 2880 
Q 2244 3097 1772 3097 
Q 1472 3097 1187 3025 
Q 903 2953 641 2809 
L 641 3341 
Q 956 3463 1253 3523 
Q 1550 3584 1831 3584 
Q 2591 3584 2966 3190 
Q 3341 2797 3341 1997 
z
" transform="scale(0.015625)"/>
       <path id="DejaVuSans-67" d="M 2906 1791 
Q 2906 2416 2648 2759 
Q 2391 3103 1925 3103 
Q 1463 3103 1205 2759 
Q 947 2416 947 1791 
Q 947 1169 1205 825 
Q 1463 481 1925 481 
Q 2391 481 2648 825 
Q 2906 1169 2906 1791 
z
M 3481 434 
Q 3481 -459 3084 -895 
Q 2688 -1331 1869 -1331 
Q 1566 -1331 1297 -1286 
Q 1028 -1241 775 -1147 
L 775 -588 
Q 1028 -725 1275 -790 
Q 1522 -856 1778 -856 
Q 2344 -856 2625 -561 
Q 2906 -266 2906 331 
L 2906 616 
Q 2728 306 2450 153 
Q 2172 0 1784 0 
Q 1141 0 747 490 
Q 353 981 353 1791 
Q 353 2603 747 3093 
Q 1141 3584 1784 3584 
Q 2172 3584 2450 3431 
Q 2728 3278 2906 2969 
L 2906 3500 
L 3481 3500 
L 3481 434 
z
" transform="scale(0.015625)"/>
      </defs>
      <use xlink:href="#DejaVuSans-50"/>
      <use xlink:href="#DejaVuSans-65" x="56.677734"/>
      <use xlink:href="#DejaVuSans-72" x="118.201172"/>
      <use xlink:href="#DejaVuSans-63" x="157.064453"/>
      <use xlink:href="#DejaVuSans-65" x="212.044922"/>
      <use xlink:href="#DejaVuSans-6e" x="273.568359"/>
      <use xlink:href="#DejaVuSans-74" x="336.947266"/>
      <use xlink:href="#DejaVuSans-61" x="376.15625"/>
      <use xlink:href="#DejaVuSans-67" x="437.435547"/>
      <use xlink:href="#DejaVuSans-65" x="500.912109"/>
     </g>
    </g>
   </g>
   <g id="line2d_7">
    <path d="M 38.058125 275.485995 
L 47.534925 275.485962 
L 57.011725 275.48593 
L 66.488525 275.474771 
L 75.965325 275.463613 
L 85.442125 275.408939 
L 94.918925 275.354265 
L 104.395725 275.290683 
L 113.872525 275.227101 
L 123.349325 275.184509 
L 132.826125 275.141916 
L 142.302925 275.031353 
L 151.779725 274.92079 
L 161.256525 274.718546 
L 170.733325 274.516303 
L 180.210125 274.149066 
L 189.686925 273.781828 
L 199.163725 273.163439 
L 208.640525 272.54505 
L 218.117325 271.586371 
L 227.594125 270.627693 
L 237.070925 269.301323 
L 246.547725 267.974954 
L 256.024525 265.988541 
L 265.501325 264.002129 
L 274.978125 261.370783 
L 284.454925 255.529462 
L 293.931725 252.319486 
L 303.408525 248.462957 
L 312.885325 244.606429 
L 322.362125 240.460641 
L 331.838925 236.314854 
L 341.315725 231.776824 
L 350.792525 227.238794 
L 360.269325 222.056447 
L 369.746125 216.874099 
L 379.222925 213.154791 
L 388.699725 209.435482 
L 398.176525 207.399028 
L 407.653325 205.362573 
L 417.130125 203.416777 
L 426.606925 201.470982 
L 436.083725 200.316684 
L 445.560525 199.162386 
L 455.037325 199.121786 
L 464.514125 199.081185 
L 473.990925 199.497218 
L 483.467725 199.913251 
L 492.944525 196.719405 
L 502.421325 193.525559 
L 511.898125 201.149236 
L 521.374925 208.772913 
L 530.851725 211.240867 
L 540.328525 213.708821 
L 549.805325 199.530126 
L 559.282125 185.351431 
L 568.758925 186.769771 
L 578.235725 188.188112 
L 587.712525 202.586525 
L 597.189325 216.984938 
L 606.666125 234.186023 
L 616.142925 251.387108 
L 625.619725 254.744831 
L 635.096525 258.102554 
L 644.573325 260.40804 
L 654.050125 262.713526 
L 663.526925 264.988841 
L 673.003725 267.264156 
L 682.480525 268.645863 
L 691.957325 270.027571 
L 701.434125 270.700441 
L 710.910925 271.37331 
L 720.387725 272.27882 
L 729.864525 273.184331 
L 739.341325 273.644398 
L 748.818125 274.284521 
L 758.294925 274.464577 
L 767.771725 274.624454 
L 777.248525 274.784331 
L 786.725325 274.784622 
L 796.202125 274.784914 
L 805.678925 274.752313 
L 815.155725 274.719713 
L 824.632525 274.585942 
L 834.109325 274.452171 
L 843.586125 274.652487 
L 853.062925 274.852803 
L 862.539725 274.772427 
L 872.016525 274.692051 
L 881.493325 275.045135 
L 890.970125 275.398218 
L 900.446925 275.405667 
L 909.923725 275.413117 
L 919.400525 275.39859 
L 928.877325 275.384063 
L 938.354125 275.281792 
L 947.830925 275.179521 
L 957.307725 275.259313 
L 966.784525 275.339106 
L 976.261325 275.410186 
L 985.738125 275.481266 
" clip-path="url(#p12b13268e4)" style="fill: none; stroke: #d9534f; stroke-linecap: square"/>
   </g>
   <g id="line2d_8">
    <path d="M 38.058125 275.483772 
L 47.534925 275.482743 
L 57.011725 275.481714 
L 66.488525 275.472304 
L 75.965325 275.462894 
L 85.442125 275.445519 
L 94.918925 275.428143 
L 104.395725 275.399316 
L 113.872525 275.37049 
L 123.349325 275.320852 
L 132.826125 275.271215 
L 142.302925 275.168986 
L 151.779725 275.066757 
L 161.256525 274.888984 
L 170.733325 274.711212 
L 180.210125 274.386651 
L 189.686925 274.06209 
L 199.163725 273.526715 
L 208.640525 272.99134 
L 218.117325 272.128218 
L 227.594125 271.265096 
L 237.070925 269.889235 
L 246.547725 268.513374 
L 256.024525 266.622517 
L 265.501325 264.731661 
L 274.978125 262.204229 
L 284.454925 256.591819 
L 293.931725 253.50684 
L 303.408525 249.630599 
L 312.885325 245.754357 
L 322.362125 241.24944 
L 331.838925 236.744522 
L 341.315725 232.006303 
L 350.792525 227.268084 
L 360.269325 222.159966 
L 369.746125 217.051847 
L 379.222925 213.622127 
L 388.699725 210.192408 
L 398.176525 207.503368 
L 407.653325 204.814328 
L 417.130125 202.106584 
L 426.606925 199.398841 
L 436.083725 199.051245 
L 445.560525 198.70365 
L 455.037325 198.031311 
L 464.514125 197.358972 
L 473.990925 198.073082 
L 483.467725 198.787192 
L 492.944525 199.582438 
L 502.421325 200.377685 
L 511.898125 204.000644 
L 521.374925 207.623603 
L 530.851725 211.615881 
L 540.328525 215.60816 
L 549.805325 218.19117 
L 559.282125 220.774181 
L 568.758925 225.153851 
L 578.235725 229.533521 
L 587.712525 234.257517 
L 597.189325 238.981514 
L 606.666125 243.454949 
L 616.142925 247.928385 
L 625.619725 252.256592 
L 635.096525 256.584799 
L 644.573325 258.645877 
L 654.050125 260.706955 
L 663.526925 262.879107 
L 673.003725 265.05126 
L 682.480525 266.50049 
L 691.957325 267.94972 
L 701.434125 269.110452 
L 710.910925 270.271183 
L 720.387725 271.299946 
L 729.864525 272.32871 
L 739.341325 272.839142 
L 748.818125 273.531013 
L 758.294925 273.712453 
L 767.771725 273.895105 
L 777.248525 274.077757 
L 786.725325 274.031189 
L 796.202125 273.984622 
L 805.678925 274.251845 
L 815.155725 274.519068 
L 824.632525 274.635785 
L 834.109325 274.752502 
L 843.586125 274.850748 
L 853.062925 274.948994 
L 862.539725 274.654554 
L 872.016525 274.360115 
L 881.493325 274.57063 
L 890.970125 274.781146 
L 900.446925 275.05197 
L 909.923725 275.322794 
L 919.400525 275.336933 
L 928.877325 275.351073 
L 938.354125 275.323591 
L 947.830925 275.296108 
L 957.307725 274.894842 
L 966.784525 274.493577 
L 976.261325 214.669776 
L 985.738125 154.845976 
" clip-path="url(#p12b13268e4)" style="fill: none; stroke: #d9534f; stroke-linecap: square"/>
   </g>
   <g id="line2d_9">
    <path d="M 38.058125 275.490564 
L 47.534925 275.486141 
L 57.011725 275.481717 
L 66.488525 275.469305 
L 75.965325 275.456893 
L 85.442125 275.413617 
L 94.918925 275.370342 
L 104.395725 275.303639 
L 113.872525 275.236935 
L 123.349325 275.175893 
L 132.826125 275.11485 
L 142.302925 274.974706 
L 151.779725 274.834563 
L 161.256525 274.57101 
L 170.733325 274.307457 
L 180.210125 273.86744 
L 189.686925 273.427423 
L 199.163725 272.656932 
L 208.640525 271.886441 
L 218.117325 270.735055 
L 227.594125 269.583669 
L 237.070925 268.043618 
L 246.547725 266.503567 
L 256.024525 264.201712 
L 265.501325 261.899857 
L 274.978125 258.885367 
L 284.454925 252.283021 
L 293.931725 248.695166 
L 303.408525 244.61344 
L 312.885325 240.531714 
L 322.362125 236.050075 
L 331.838925 231.568435 
L 341.315725 226.948107 
L 350.792525 222.32778 
L 360.269325 217.351876 
L 369.746125 212.375973 
L 379.222925 208.725751 
L 388.699725 205.075529 
L 398.176525 202.987796 
L 407.653325 200.900064 
L 417.130125 198.869576 
L 426.606925 196.839088 
L 436.083725 195.912738 
L 445.560525 194.986388 
L 455.037325 195.238125 
L 464.514125 195.489862 
L 473.990925 195.851171 
L 483.467725 196.21248 
L 492.944525 195.250363 
L 502.421325 194.288245 
L 511.898125 199.77989 
L 521.374925 205.271535 
L 530.851725 183.698364 
L 540.328525 162.125194 
L 549.805325 191.386164 
L 559.282125 220.647134 
L 568.758925 227.29501 
L 578.235725 233.942887 
L 587.712525 238.303867 
L 597.189325 242.664847 
L 606.666125 247.212665 
L 616.142925 251.760484 
L 625.619725 255.004841 
L 635.096525 258.249198 
L 644.573325 260.700597 
L 654.050125 263.151996 
L 663.526925 265.33357 
L 673.003725 267.515144 
L 682.480525 268.876913 
L 691.957325 270.238681 
L 701.434125 271.018194 
L 710.910925 271.797707 
L 720.387725 272.56411 
L 729.864525 273.330512 
L 739.341325 273.707667 
L 748.818125 274.279766 
L 758.294925 274.474709 
L 767.771725 274.675692 
L 777.248525 274.876674 
L 786.725325 274.915963 
L 796.202125 274.955251 
L 805.678925 274.948398 
L 815.155725 274.941544 
L 824.632525 274.812387 
L 834.109325 274.683229 
L 843.586125 274.859737 
L 853.062925 275.036244 
L 862.539725 274.997028 
L 872.016525 274.957812 
L 881.493325 275.185351 
L 890.970125 275.41289 
L 900.446925 275.409921 
L 909.923725 275.406953 
L 919.400525 275.359283 
L 928.877325 275.311613 
L 938.354125 274.945764 
L 947.830925 274.579915 
L 957.307725 274.612859 
L 966.784525 274.645803 
L 976.261325 275.022391 
L 985.738125 275.398979 
" clip-path="url(#p12b13268e4)" style="fill: none; stroke: #d9534f; stroke-linecap: square"/>
   </g>
   <g id="line2d_10">
    <path d="M 38.058125 275.489277 
L 47.534925 275.486185 
L 57.011725 275.483092 
L 66.488525 275.471709 
L 75.965325 275.460325 
L 85.442125 275.445113 
L 94.918925 275.4299 
L 104.395725 275.394866 
L 113.872525 275.359831 
L 123.349325 275.301352 
L 132.826125 275.242873 
L 142.302925 275.122278 
L 151.779725 275.001682 
L 161.256525 274.789046 
L 170.733325 274.57641 
L 180.210125 274.197688 
L 189.686925 273.818966 
L 199.163725 273.202235 
L 208.640525 272.585503 
L 218.117325 271.559006 
L 227.594125 270.532509 
L 237.070925 268.967919 
L 246.547725 267.40333 
L 256.024525 265.270872 
L 265.501325 263.138413 
L 274.978125 260.333454 
L 284.454925 254.120469 
L 293.931725 250.712444 
L 303.408525 246.533766 
L 312.885325 242.355087 
L 322.362125 237.756187 
L 331.838925 233.157288 
L 341.315725 228.506345 
L 350.792525 223.855402 
L 360.269325 219.205548 
L 369.746125 214.555695 
L 379.222925 210.907539 
L 388.699725 207.259384 
L 398.176525 204.223998 
L 407.653325 201.188613 
L 417.130125 198.5661 
L 426.606925 195.943588 
L 436.083725 195.474901 
L 445.560525 195.006215 
L 455.037325 194.545099 
L 464.514125 194.083982 
L 473.990925 194.659862 
L 483.467725 195.235743 
L 492.944525 196.371216 
L 502.421325 197.506689 
L 511.898125 201.018419 
L 521.374925 204.530148 
L 530.851725 208.648168 
L 540.328525 212.766188 
L 549.805325 216.584714 
L 559.282125 220.403241 
L 568.758925 225.094726 
L 578.235725 229.786212 
L 587.712525 234.570224 
L 597.189325 239.354235 
L 606.666125 243.869061 
L 616.142925 248.383887 
L 625.619725 252.505957 
L 635.096525 256.628027 
L 644.573325 259.021012 
L 654.050125 261.413997 
L 663.526925 263.590709 
L 673.003725 265.76742 
L 682.480525 267.241574 
L 691.957325 268.715728 
L 701.434125 269.742034 
L 710.910925 270.768339 
L 720.387725 271.609886 
L 729.864525 272.451433 
L 739.341325 272.922814 
L 748.818125 273.623281 
L 758.294925 273.852366 
L 767.771725 274.018614 
L 777.248525 274.184861 
L 786.725325 274.230013 
L 796.202125 274.275164 
L 805.678925 274.478714 
L 815.155725 274.682264 
L 824.632525 274.772994 
L 834.109325 274.863724 
L 843.586125 274.953674 
L 853.062925 275.043624 
L 862.539725 274.845861 
L 872.016525 274.648099 
L 881.493325 274.785821 
L 890.970125 274.923544 
L 900.446925 275.131438 
L 909.923725 275.339332 
L 919.400525 275.352601 
L 928.877325 275.365869 
L 938.354125 275.358683 
L 947.830925 275.351496 
L 957.307725 275.129111 
L 966.784525 274.906726 
L 976.261325 244.880169 
L 985.738125 214.853613 
" clip-path="url(#p12b13268e4)" style="fill: none; stroke: #d9534f; stroke-linecap: square"/>
   </g>
   <g id="line2d_11">
    <path d="M 38.058125 275.488069 
L 47.534925 275.485502 
L 57.011725 275.482935 
L 66.488525 275.471443 
L 75.965325 275.459952 
L 85.442125 275.423648 
L 94.918925 275.387344 
L 104.395725 275.334751 
L 113.872525 275.282157 
L 123.349325 275.213089 
L 132.826125 275.144022 
L 142.302925 275.008738 
L 151.779725 274.873455 
L 161.256525 274.632045 
L 170.733325 274.390635 
L 180.210125 273.934707 
L 189.686925 273.478779 
L 199.163725 272.754415 
L 208.640525 272.030051 
L 218.117325 270.909751 
L 227.594125 269.789451 
L 237.070925 268.255919 
L 246.547725 266.722387 
L 256.024525 264.48677 
L 265.501325 262.251153 
L 274.978125 259.270973 
L 284.454925 252.825545 
L 293.931725 249.360297 
L 303.408525 245.259045 
L 312.885325 241.157794 
L 322.362125 236.685452 
L 331.838925 232.21311 
L 341.315725 227.576478 
L 350.792525 222.939847 
L 360.269325 217.826334 
L 369.746125 212.712822 
L 379.222925 209.026245 
L 388.699725 205.339668 
L 398.176525 203.047414 
L 407.653325 200.75516 
L 417.130125 198.593878 
L 426.606925 196.432597 
L 436.083725 195.175705 
L 445.560525 193.918813 
L 455.037325 193.892977 
L 464.514125 193.867142 
L 473.990925 192.520799 
L 483.467725 191.174456 
L 492.944525 173.284686 
L 502.421325 155.394916 
L 511.898125 175.091654 
L 521.374925 194.788392 
L 530.851725 204.261359 
L 540.328525 213.734326 
L 549.805325 218.265435 
L 559.282125 222.796544 
L 568.758925 228.121152 
L 578.235725 233.44576 
L 587.712525 237.844102 
L 597.189325 242.242444 
L 606.666125 246.770399 
L 616.142925 251.298354 
L 625.619725 254.655999 
L 635.096525 258.013644 
L 644.573325 260.447171 
L 654.050125 262.880697 
L 663.526925 265.108229 
L 673.003725 267.33576 
L 682.480525 268.699063 
L 691.957325 270.062367 
L 701.434125 270.892505 
L 710.910925 271.722644 
L 720.387725 272.491834 
L 729.864525 273.261024 
L 739.341325 273.639999 
L 748.818125 274.220809 
L 758.294925 274.422644 
L 767.771725 274.642312 
L 777.248525 274.86198 
L 786.725325 274.895046 
L 796.202125 274.928112 
L 805.678925 274.928346 
L 815.155725 274.928581 
L 824.632525 274.813547 
L 834.109325 274.698512 
L 843.586125 274.879511 
L 853.062925 275.06051 
L 862.539725 275.038248 
L 872.016525 275.015985 
L 881.493325 275.2198 
L 890.970125 275.423614 
L 900.446925 275.433261 
L 909.923725 275.442907 
L 919.400525 275.434771 
L 928.877325 275.426634 
L 938.354125 275.38055 
L 947.830925 275.334465 
L 957.307725 275.387227 
L 966.784525 275.439988 
L 976.261325 275.467753 
L 985.738125 275.495517 
" clip-path="url(#p12b13268e4)" style="fill: none; stroke: #d9534f; stroke-linecap: square"/>
   </g>
   <g id="line2d_12">
    <path d="M 38.058125 275.490091 
L 47.534925 275.486107 
L 57.011725 275.482123 
L 66.488525 275.47251 
L 75.965325 275.462898 
L 85.442125 275.44625 
L 94.918925 275.429602 
L 104.395725 275.398577 
L 113.872525 275.367553 
L 123.349325 275.309674 
L 132.826125 275.251796 
L 142.302925 275.138853 
L 151.779725 275.025911 
L 161.256525 274.800483 
L 170.733325 274.575056 
L 180.210125 274.209679 
L 189.686925 273.844302 
L 199.163725 273.235273 
L 208.640525 272.626244 
L 218.117325 271.589213 
L 227.594125 270.552182 
L 237.070925 269.016267 
L 246.547725 267.480353 
L 256.024525 265.379335 
L 265.501325 263.278317 
L 274.978125 260.463737 
L 284.454925 254.300768 
L 293.931725 250.95238 
L 303.408525 246.826736 
L 312.885325 242.701092 
L 322.362125 238.145191 
L 331.838925 233.58929 
L 341.315725 228.890948 
L 350.792525 224.192605 
L 360.269325 219.446302 
L 369.746125 214.699999 
L 379.222925 211.050589 
L 388.699725 207.401179 
L 398.176525 204.348642 
L 407.653325 201.296106 
L 417.130125 198.510583 
L 426.606925 195.725061 
L 436.083725 195.058153 
L 445.560525 194.391246 
L 455.037325 193.859676 
L 464.514125 193.328107 
L 473.990925 193.743834 
L 483.467725 194.159562 
L 492.944525 195.326337 
L 502.421325 196.493111 
L 511.898125 199.938624 
L 521.374925 203.384137 
L 530.851725 207.625013 
L 540.328525 211.865888 
L 549.805325 215.649348 
L 559.282125 219.432807 
L 568.758925 224.345846 
L 578.235725 229.258884 
L 587.712525 234.170278 
L 597.189325 239.081672 
L 606.666125 243.603836 
L 616.142925 248.126 
L 625.619725 252.306573 
L 635.096525 256.487146 
L 644.573325 258.911886 
L 654.050125 261.336626 
L 663.526925 263.504423 
L 673.003725 265.67222 
L 682.480525 267.150442 
L 691.957325 268.628665 
L 701.434125 269.649913 
L 710.910925 270.67116 
L 720.387725 271.553696 
L 729.864525 272.436232 
L 739.341325 272.87444 
L 748.818125 273.576797 
L 758.294925 273.840945 
L 767.771725 274.019294 
L 777.248525 274.197642 
L 786.725325 274.223903 
L 796.202125 274.250163 
L 805.678925 274.4791 
L 815.155725 274.708037 
L 824.632525 274.79694 
L 834.109325 274.885843 
L 843.586125 274.977865 
L 853.062925 275.069887 
L 862.539725 274.889946 
L 872.016525 274.710004 
L 881.493325 274.83483 
L 890.970125 274.959657 
L 900.446925 275.160757 
L 909.923725 275.361857 
L 919.400525 275.374927 
L 928.877325 275.387998 
L 938.354125 275.370757 
L 947.830925 275.353516 
L 957.307725 275.117323 
L 966.784525 274.88113 
L 976.261325 248.857059 
L 985.738125 222.832988 
" clip-path="url(#p12b13268e4)" style="fill: none; stroke: #d9534f; stroke-linecap: square"/>
   </g>
   <g id="line2d_13">
    <path d="M 38.058125 275.486997 
L 47.534925 275.484125 
L 57.011725 275.481254 
L 66.488525 275.470984 
L 75.965325 275.460714 
L 85.442125 275.411836 
L 94.918925 275.362958 
L 104.395725 275.293369 
L 113.872525 275.22378 
L 123.349325 275.179523 
L 132.826125 275.135267 
L 142.302925 275.018188 
L 151.779725 274.90111 
L 161.256525 274.689262 
L 170.733325 274.477413 
L 180.210125 274.084622 
L 189.686925 273.691831 
L 199.163725 273.049914 
L 208.640525 272.407998 
L 218.117325 271.393165 
L 227.594125 270.378332 
L 237.070925 268.969947 
L 246.547725 267.561561 
L 256.024525 265.455421 
L 265.501325 263.349281 
L 274.978125 260.658871 
L 284.454925 254.755931 
L 293.931725 251.543402 
L 303.408525 247.803202 
L 312.885325 244.063002 
L 322.362125 240.022783 
L 331.838925 235.982564 
L 341.315725 231.704955 
L 350.792525 227.427346 
L 360.269325 222.662271 
L 369.746125 217.897196 
L 379.222925 214.549046 
L 388.699725 211.200895 
L 398.176525 209.47488 
L 407.653325 207.748865 
L 417.130125 205.966802 
L 426.606925 204.184739 
L 436.083725 203.344801 
L 445.560525 202.504863 
L 455.037325 202.739971 
L 464.514125 202.975079 
L 473.990925 201.904179 
L 483.467725 200.833279 
L 492.944525 122.002181 
L 502.421325 43.171082 
L 511.898125 126.357271 
L 521.374925 209.543461 
L 530.851725 215.872817 
L 540.328525 222.202173 
L 549.805325 225.085642 
L 559.282125 227.96911 
L 568.758925 232.96568 
L 578.235725 237.96225 
L 587.712525 241.388434 
L 597.189325 244.814617 
L 606.666125 249.207004 
L 616.142925 253.59939 
L 625.619725 256.545468 
L 635.096525 259.491546 
L 644.573325 261.571726 
L 654.050125 263.651905 
L 663.526925 265.838057 
L 673.003725 268.024208 
L 682.480525 269.238451 
L 691.957325 270.452695 
L 701.434125 271.258247 
L 710.910925 272.063799 
L 720.387725 272.743924 
L 729.864525 273.424048 
L 739.341325 273.819426 
L 748.818125 274.388178 
L 758.294925 274.561552 
L 767.771725 274.739718 
L 777.248525 274.917884 
L 786.725325 274.938234 
L 796.202125 274.958584 
L 805.678925 274.941753 
L 815.155725 274.924921 
L 824.632525 274.815051 
L 834.109325 274.70518 
L 843.586125 274.881939 
L 853.062925 275.058698 
L 862.539725 274.997154 
L 872.016525 274.93561 
L 881.493325 275.178515 
L 890.970125 275.421421 
L 900.446925 275.427564 
L 909.923725 275.433707 
L 919.400525 275.417846 
L 928.877325 275.401984 
L 938.354125 275.333612 
L 947.830925 275.26524 
L 957.307725 275.353905 
L 966.784525 275.44257 
L 976.261325 275.468055 
L 985.738125 275.49354 
" clip-path="url(#p12b13268e4)" style="fill: none; stroke: #d9534f; stroke-linecap: square"/>
   </g>
   <g id="line2d_14">
    <path d="M 38.058125 275.479278 
L 47.534925 275.475088 
L 57.011725 275.470897 
L 66.488525 275.45386 
L 75.965325 275.436823 
L 85.442125 275.418113 
L 94.918925 275.399403 
L 104.395725 275.368614 
L 113.872525 275.337825 
L 123.349325 275.286753 
L 132.826125 275.23568 
L 142.302925 275.128361 
L 151.779725 275.021042 
L 161.256525 274.831173 
L 170.733325 274.641303 
L 180.210125 274.294459 
L 189.686925 273.947614 
L 199.163725 273.385128 
L 208.640525 272.822642 
L 218.117325 271.877585 
L 227.594125 270.932527 
L 237.070925 269.457149 
L 246.547725 267.981772 
L 256.024525 266.005093 
L 265.501325 264.028414 
L 274.978125 261.423598 
L 284.454925 255.757855 
L 293.931725 252.696928 
L 303.408525 248.862831 
L 312.885325 245.028734 
L 322.362125 240.645923 
L 331.838925 236.263111 
L 341.315725 231.816813 
L 350.792525 227.370515 
L 360.269325 222.834033 
L 369.746125 218.297552 
L 379.222925 214.978941 
L 388.699725 211.66033 
L 398.176525 209.024587 
L 407.653325 206.388845 
L 417.130125 203.98403 
L 426.606925 201.579216 
L 436.083725 201.37164 
L 445.560525 201.164065 
L 455.037325 200.721607 
L 464.514125 200.279149 
L 473.990925 201.145198 
L 483.467725 202.011247 
L 492.944525 202.81855 
L 502.421325 203.625854 
L 511.898125 207.293828 
L 521.374925 210.961801 
L 530.851725 214.71443 
L 540.328525 218.467059 
L 549.805325 221.342032 
L 559.282125 224.217004 
L 568.758925 228.324131 
L 578.235725 232.431257 
L 587.712525 236.801576 
L 597.189325 241.171895 
L 606.666125 245.402945 
L 616.142925 249.633995 
L 625.619725 253.554144 
L 635.096525 257.474293 
L 644.573325 259.516544 
L 654.050125 261.558795 
L 663.526925 263.648832 
L 673.003725 265.73887 
L 682.480525 267.155759 
L 691.957325 268.572647 
L 701.434125 269.601612 
L 710.910925 270.630577 
L 720.387725 271.593243 
L 729.864525 272.555908 
L 739.341325 272.908714 
L 748.818125 273.601852 
L 758.294925 273.942185 
L 767.771725 274.065459 
L 777.248525 274.188733 
L 786.725325 274.222965 
L 796.202125 274.257197 
L 805.678925 274.466071 
L 815.155725 274.674945 
L 824.632525 274.767155 
L 834.109325 274.859365 
L 843.586125 274.948466 
L 853.062925 275.037568 
L 862.539725 274.837803 
L 872.016525 274.638038 
L 881.493325 274.781182 
L 890.970125 274.924327 
L 900.446925 275.123462 
L 909.923725 275.322598 
L 919.400525 275.32248 
L 928.877325 275.322362 
L 938.354125 275.284726 
L 947.830925 275.247091 
L 957.307725 274.740832 
L 966.784525 274.234573 
L 976.261325 191.239434 
L 985.738125 108.244296 
" clip-path="url(#p12b13268e4)" style="fill: none; stroke: #d9534f; stroke-linecap: square"/>
   </g>
   <g id="line2d_15">
    <path d="M 38.058125 275.488185 
L 47.534925 275.485081 
L 57.011725 275.481977 
L 66.488525 275.468893 
L 75.965325 275.45581 
L 85.442125 275.413706 
L 94.918925 275.371601 
L 104.395725 275.31333 
L 113.872525 275.255059 
L 123.349325 275.191621 
L 132.826125 275.128184 
L 142.302925 274.999183 
L 151.779725 274.870183 
L 161.256525 274.629057 
L 170.733325 274.387931 
L 180.210125 273.972325 
L 189.686925 273.556719 
L 199.163725 272.838279 
L 208.640525 272.119839 
L 218.117325 270.990002 
L 227.594125 269.860164 
L 237.070925 268.348554 
L 246.547725 266.836945 
L 256.024525 264.613728 
L 265.501325 262.390512 
L 274.978125 259.431688 
L 284.454925 252.87533 
L 293.931725 249.277796 
L 303.408525 245.156094 
L 312.885325 241.034391 
L 322.362125 236.542103 
L 331.838925 232.049816 
L 341.315725 227.428028 
L 350.792525 222.80624 
L 360.269325 217.6847 
L 369.746125 212.563161 
L 379.222925 208.910147 
L 388.699725 205.257134 
L 398.176525 203.200688 
L 407.653325 201.144243 
L 417.130125 199.140528 
L 426.606925 197.136812 
L 436.083725 196.077141 
L 445.560525 195.017471 
L 455.037325 194.148322 
L 464.514125 193.279173 
L 473.990925 170.825485 
L 483.467725 148.371798 
L 492.944525 166.477219 
L 502.421325 184.58264 
L 511.898125 194.344114 
L 521.374925 204.105588 
L 530.851725 209.889651 
L 540.328525 215.673714 
L 549.805325 219.647249 
L 559.282125 223.620785 
L 568.758925 228.71247 
L 578.235725 233.804156 
L 587.712525 237.990775 
L 597.189325 242.177395 
L 606.666125 246.992725 
L 616.142925 251.808056 
L 625.619725 255.083589 
L 635.096525 258.359122 
L 644.573325 260.720422 
L 654.050125 263.081722 
L 663.526925 265.201209 
L 673.003725 267.320696 
L 682.480525 268.692326 
L 691.957325 270.063957 
L 701.434125 270.788522 
L 710.910925 271.513087 
L 720.387725 272.381319 
L 729.864525 273.249552 
L 739.341325 273.647386 
L 748.818125 274.238847 
L 758.294925 274.432473 
L 767.771725 274.61939 
L 777.248525 274.806307 
L 786.725325 274.831578 
L 796.202125 274.856849 
L 805.678925 274.865683 
L 815.155725 274.874516 
L 824.632525 274.789828 
L 834.109325 274.70514 
L 843.586125 274.84487 
L 853.062925 274.9846 
L 862.539725 274.909079 
L 872.016525 274.833558 
L 881.493325 275.129746 
L 890.970125 275.425935 
L 900.446925 275.428289 
L 909.923725 275.430643 
L 919.400525 275.408393 
L 928.877325 275.386143 
L 938.354125 275.242788 
L 947.830925 275.099434 
L 957.307725 275.145871 
L 966.784525 275.192309 
L 976.261325 275.33008 
L 985.738125 275.467852 
" clip-path="url(#p12b13268e4)" style="fill: none; stroke: #f0ad4e; stroke-linecap: square"/>
   </g>
   <g id="line2d_16">
    <path d="M 38.058125 275.489112 
L 47.534925 275.486519 
L 57.011725 275.483925 
L 66.488525 275.475891 
L 75.965325 275.467856 
L 85.442125 275.452315 
L 94.918925 275.436773 
L 104.395725 275.408495 
L 113.872525 275.380217 
L 123.349325 275.32579 
L 132.826125 275.271364 
L 142.302925 275.16909 
L 151.779725 275.066816 
L 161.256525 274.87199 
L 170.733325 274.677163 
L 180.210125 274.328251 
L 189.686925 273.979339 
L 199.163725 273.400638 
L 208.640525 272.821936 
L 218.117325 271.830597 
L 227.594125 270.839257 
L 237.070925 269.334503 
L 246.547725 267.829748 
L 256.024525 265.739397 
L 265.501325 263.649045 
L 274.978125 260.835839 
L 284.454925 254.650463 
L 293.931725 251.278293 
L 303.408525 247.103094 
L 312.885325 242.927895 
L 322.362125 238.271882 
L 331.838925 233.61587 
L 341.315725 228.827512 
L 350.792525 224.039155 
L 360.269325 219.246538 
L 369.746125 214.453921 
L 379.222925 210.923828 
L 388.699725 207.393735 
L 398.176525 204.540146 
L 407.653325 201.686557 
L 417.130125 198.981572 
L 426.606925 196.276586 
L 436.083725 195.71623 
L 445.560525 195.155875 
L 455.037325 194.585313 
L 464.514125 194.014752 
L 473.990925 194.476334 
L 483.467725 194.937916 
L 492.944525 196.022019 
L 502.421325 197.106122 
L 511.898125 200.586512 
L 521.374925 204.066903 
L 530.851725 208.155749 
L 540.328525 212.244595 
L 549.805325 215.92055 
L 559.282125 219.596505 
L 568.758925 224.316729 
L 578.235725 229.036952 
L 587.712525 233.92849 
L 597.189325 238.820028 
L 606.666125 243.513724 
L 616.142925 248.20742 
L 625.619725 252.397549 
L 635.096525 256.587678 
L 644.573325 258.909948 
L 654.050125 261.232219 
L 663.526925 263.429631 
L 673.003725 265.627043 
L 682.480525 267.118302 
L 691.957325 268.60956 
L 701.434125 269.622978 
L 710.910925 270.636396 
L 720.387725 271.53531 
L 729.864525 272.434223 
L 739.341325 272.915607 
L 748.818125 273.626631 
L 758.294925 273.856273 
L 767.771725 274.002135 
L 777.248525 274.147996 
L 786.725325 274.132012 
L 796.202125 274.116028 
L 805.678925 274.375719 
L 815.155725 274.63541 
L 824.632525 274.740932 
L 834.109325 274.846453 
L 843.586125 274.961379 
L 853.062925 275.076305 
L 862.539725 274.860096 
L 872.016525 274.643887 
L 881.493325 274.859063 
L 890.970125 275.074239 
L 900.446925 275.226469 
L 909.923725 275.378699 
L 919.400525 275.388209 
L 928.877325 275.39772 
L 938.354125 275.388146 
L 947.830925 275.378572 
L 957.307725 275.187816 
L 966.784525 274.997059 
L 976.261325 244.666846 
L 985.738125 214.336633 
" clip-path="url(#p12b13268e4)" style="fill: none; stroke: #d9534f; stroke-linecap: square"/>
   </g>
   <g id="line2d_17">
    <path d="M 38.058125 275.50206 
L 985.738125 275.50206 
" clip-path="url(#p12b13268e4)" style="fill: none; stroke: #dedede; stroke-width: 2; stroke-linecap: square"/>
   </g>
   <g id="text_15">
    <!-- FastQC: Per Sequence GC Content -->
    <g transform="translate(375.261875 19.3575) scale(0.16 -0.16)">
     <defs>
      <path id="DejaVuSans-46" d="M 628 4666 
L 3309 4666 
L 3309 4134 
L 1259 4134 
L 1259 2759 
L 3109 2759 
L 3109 2228 
L 1259 2228 
L 1259 0 
L 628 0 
L 628 4666 
z
" transform="scale(0.015625)"/>
      <path id="DejaVuSans-73" d="M 2834 3397 
L 2834 2853 
Q 2591 2978 2328 3040 
Q 2066 3103 1784 3103 
Q 1356 3103 1142 2972 
Q 928 2841 928 2578 
Q 928 2378 1081 2264 
Q 1234 2150 1697 2047 
L 1894 2003 
Q 2506 1872 2764 1633 
Q 3022 1394 3022 966 
Q 3022 478 2636 193 
Q 2250 -91 1575 -91 
Q 1294 -91 989 -36 
Q 684 19 347 128 
L 347 722 
Q 666 556 975 473 
Q 1284 391 1588 391 
Q 1994 391 2212 530 
Q 2431 669 2431 922 
Q 2431 1156 2273 1281 
Q 2116 1406 1581 1522 
L 1381 1569 
Q 847 1681 609 1914 
Q 372 2147 372 2553 
Q 372 3047 722 3315 
Q 1072 3584 1716 3584 
Q 2034 3584 2315 3537 
Q 2597 3491 2834 3397 
z
" transform="scale(0.015625)"/>
      <path id="DejaVuSans-51" d="M 2522 4238 
Q 1834 4238 1429 3725 
Q 1025 3213 1025 2328 
Q 1025 1447 1429 934 
Q 1834 422 2522 422 
Q 3209 422 3611 934 
Q 4013 1447 4013 2328 
Q 4013 3213 3611 3725 
Q 3209 4238 2522 4238 
z
M 3406 84 
L 4238 -825 
L 3475 -825 
L 2784 -78 
Q 2681 -84 2626 -87 
Q 2572 -91 2522 -91 
Q 1538 -91 948 567 
Q 359 1225 359 2328 
Q 359 3434 948 4092 
Q 1538 4750 2522 4750 
Q 3503 4750 4090 4092 
Q 4678 3434 4678 2328 
Q 4678 1516 4351 937 
Q 4025 359 3406 84 
z
" transform="scale(0.015625)"/>
      <path id="DejaVuSans-3a" d="M 750 794 
L 1409 794 
L 1409 0 
L 750 0 
L 750 794 
z
M 750 3309 
L 1409 3309 
L 1409 2516 
L 750 2516 
L 750 3309 
z
" transform="scale(0.015625)"/>
      <path id="DejaVuSans-53" d="M 3425 4513 
L 3425 3897 
Q 3066 4069 2747 4153 
Q 2428 4238 2131 4238 
Q 1616 4238 1336 4038 
Q 1056 3838 1056 3469 
Q 1056 3159 1242 3001 
Q 1428 2844 1947 2747 
L 2328 2669 
Q 3034 2534 3370 2195 
Q 3706 1856 3706 1288 
Q 3706 609 3251 259 
Q 2797 -91 1919 -91 
Q 1588 -91 1214 -16 
Q 841 59 441 206 
L 441 856 
Q 825 641 1194 531 
Q 1563 422 1919 422 
Q 2459 422 2753 634 
Q 3047 847 3047 1241 
Q 3047 1584 2836 1778 
Q 2625 1972 2144 2069 
L 1759 2144 
Q 1053 2284 737 2584 
Q 422 2884 422 3419 
Q 422 4038 858 4394 
Q 1294 4750 2059 4750 
Q 2388 4750 2728 4690 
Q 3069 4631 3425 4513 
z
" transform="scale(0.015625)"/>
      <path id="DejaVuSans-71" d="M 947 1747 
Q 947 1113 1208 752 
Q 1469 391 1925 391 
Q 2381 391 2643 752 
Q 2906 1113 2906 1747 
Q 2906 2381 2643 2742 
Q 2381 3103 1925 3103 
Q 1469 3103 1208 2742 
Q 947 2381 947 1747 
z
M 2906 525 
Q 2725 213 2448 61 
Q 2172 -91 1784 -91 
Q 1150 -91 751 415 
Q 353 922 353 1747 
Q 353 2572 751 3078 
Q 1150 3584 1784 3584 
Q 2172 3584 2448 3432 
Q 2725 3281 2906 2969 
L 2906 3500 
L 3481 3500 
L 3481 -1331 
L 2906 -1331 
L 2906 525 
z
" transform="scale(0.015625)"/>
      <path id="DejaVuSans-75" d="M 544 1381 
L 544 3500 
L 1119 3500 
L 1119 1403 
Q 1119 906 1312 657 
Q 1506 409 1894 409 
Q 2359 409 2629 706 
Q 2900 1003 2900 1516 
L 2900 3500 
L 3475 3500 
L 3475 0 
L 2900 0 
L 2900 538 
Q 2691 219 2414 64 
Q 2138 -91 1772 -91 
Q 1169 -91 856 284 
Q 544 659 544 1381 
z
M 1991 3584 
L 1991 3584 
z
" transform="scale(0.015625)"/>
      <path id="DejaVuSans-6f" d="M 1959 3097 
Q 1497 3097 1228 2736 
Q 959 2375 959 1747 
Q 959 1119 1226 758 
Q 1494 397 1959 397 
Q 2419 397 2687 759 
Q 2956 1122 2956 1747 
Q 2956 2369 2687 2733 
Q 2419 3097 1959 3097 
z
M 1959 3584 
Q 2709 3584 3137 3096 
Q 3566 2609 3566 1747 
Q 3566 888 3137 398 
Q 2709 -91 1959 -91 
Q 1206 -91 779 398 
Q 353 888 353 1747 
Q 353 2609 779 3096 
Q 1206 3584 1959 3584 
z
" transform="scale(0.015625)"/>
     </defs>
     <use xlink:href="#DejaVuSans-46"/>
     <use xlink:href="#DejaVuSans-61" x="48.394531"/>
     <use xlink:href="#DejaVuSans-73" x="109.673828"/>
     <use xlink:href="#DejaVuSans-74" x="161.773438"/>
     <use xlink:href="#DejaVuSans-51" x="200.982422"/>
     <use xlink:href="#DejaVuSans-43" x="279.693359"/>
     <use xlink:href="#DejaVuSans-3a" x="349.517578"/>
     <use xlink:href="#DejaVuSans-20" x="383.208984"/>
     <use xlink:href="#DejaVuSans-50" x="414.996094"/>
     <use xlink:href="#DejaVuSans-65" x="471.673828"/>
     <use xlink:href="#DejaVuSans-72" x="533.197266"/>
     <use xlink:href="#DejaVuSans-20" x="574.310547"/>
     <use xlink:href="#DejaVuSans-53" x="606.097656"/>
     <use xlink:href="#DejaVuSans-65" x="669.574219"/>
     <use xlink:href="#DejaVuSans-71" x="731.097656"/>
     <use xlink:href="#DejaVuSans-75" x="794.574219"/>
     <use xlink:href="#DejaVuSans-65" x="857.953125"/>
     <use xlink:href="#DejaVuSans-6e" x="919.476562"/>
     <use xlink:href="#DejaVuSans-63" x="982.855469"/>
     <use xlink:href="#DejaVuSans-65" x="1037.835938"/>
     <use xlink:href="#DejaVuSans-20" x="1099.359375"/>
     <use xlink:href="#DejaVuSans-47" x="1131.146484"/>
     <use xlink:href="#DejaVuSans-43" x="1208.636719"/>
     <use xlink:href="#DejaVuSans-20" x="1278.460938"/>
     <use xlink:href="#DejaVuSans-43" x="1310.248047"/>
     <use xlink:href="#DejaVuSans-6f" x="1380.072266"/>
     <use xlink:href="#DejaVuSans-6e" x="1441.253906"/>
     <use xlink:href="#DejaVuSans-74" x="1504.632812"/>
     <use xlink:href="#DejaVuSans-65" x="1543.841797"/>
     <use xlink:href="#DejaVuSans-6e" x="1605.365234"/>
     <use xlink:href="#DejaVuSans-74" x="1668.744141"/>
    </g>
   </g>
   <g id="legend_1">
    <g id="line2d_18">
     <path d="M 45.258125 305.319194 
L 53.258125 305.319194 
L 61.258125 305.319194 
" style="fill: none; stroke: #d9534f; stroke-linecap: square"/>
    </g>
    <g id="text_16">
     <!-- SRR27848283_1 -->
     <g transform="translate(67.658125 308.119194) scale(0.08 -0.08)">
      <defs>
       <path id="DejaVuSans-52" d="M 2841 2188 
Q 3044 2119 3236 1894 
Q 3428 1669 3622 1275 
L 4263 0 
L 3584 0 
L 2988 1197 
Q 2756 1666 2539 1819 
Q 2322 1972 1947 1972 
L 1259 1972 
L 1259 0 
L 628 0 
L 628 4666 
L 2053 4666 
Q 2853 4666 3247 4331 
Q 3641 3997 3641 3322 
Q 3641 2881 3436 2590 
Q 3231 2300 2841 2188 
z
M 1259 4147 
L 1259 2491 
L 2053 2491 
Q 2509 2491 2742 2702 
Q 2975 2913 2975 3322 
Q 2975 3731 2742 3939 
Q 2509 4147 2053 4147 
L 1259 4147 
z
" transform="scale(0.015625)"/>
       <path id="DejaVuSans-37" d="M 525 4666 
L 3525 4666 
L 3525 4397 
L 1831 0 
L 1172 0 
L 2766 4134 
L 525 4134 
L 525 4666 
z
" transform="scale(0.015625)"/>
       <path id="DejaVuSans-33" d="M 2597 2516 
Q 3050 2419 3304 2112 
Q 3559 1806 3559 1356 
Q 3559 666 3084 287 
Q 2609 -91 1734 -91 
Q 1441 -91 1130 -33 
Q 819 25 488 141 
L 488 750 
Q 750 597 1062 519 
Q 1375 441 1716 441 
Q 2309 441 2620 675 
Q 2931 909 2931 1356 
Q 2931 1769 2642 2001 
Q 2353 2234 1838 2234 
L 1294 2234 
L 1294 2753 
L 1863 2753 
Q 2328 2753 2575 2939 
Q 2822 3125 2822 3475 
Q 2822 3834 2567 4026 
Q 2313 4219 1838 4219 
Q 1578 4219 1281 4162 
Q 984 4106 628 3988 
L 628 4550 
Q 988 4650 1302 4700 
Q 1616 4750 1894 4750 
Q 2613 4750 3031 4423 
Q 3450 4097 3450 3541 
Q 3450 3153 3228 2886 
Q 3006 2619 2597 2516 
z
" transform="scale(0.015625)"/>
       <path id="DejaVuSans-5f" d="M 3263 -1063 
L 3263 -1509 
L -63 -1509 
L -63 -1063 
L 3263 -1063 
z
" transform="scale(0.015625)"/>
      </defs>
      <use xlink:href="#DejaVuSans-53"/>
      <use xlink:href="#DejaVuSans-52" x="63.476562"/>
      <use xlink:href="#DejaVuSans-52" x="132.958984"/>
      <use xlink:href="#DejaVuSans-32" x="202.441406"/>
      <use xlink:href="#DejaVuSans-37" x="266.064453"/>
      <use xlink:href="#DejaVuSans-38" x="329.6875"/>
      <use xlink:href="#DejaVuSans-34" x="393.310547"/>
      <use xlink:href="#DejaVuSans-38" x="456.933594"/>
      <use xlink:href="#DejaVuSans-32" x="520.556641"/>
      <use xlink:href="#DejaVuSans-38" x="584.179688"/>
      <use xlink:href="#DejaVuSans-33" x="647.802734"/>
      <use xlink:href="#DejaVuSans-5f" x="711.425781"/>
      <use xlink:href="#DejaVuSans-31" x="761.425781"/>
     </g>
    </g>
    <g id="line2d_19">
     <path d="M 45.258125 317.284194 
L 53.258125 317.284194 
L 61.258125 317.284194 
" style="fill: none; stroke: #d9534f; stroke-linecap: square"/>
    </g>
    <g id="text_17">
     <!-- SRR27848283_2 -->
     <g transform="translate(67.658125 320.084194) scale(0.08 -0.08)">
      <use xlink:href="#DejaVuSans-53"/>
      <use xlink:href="#DejaVuSans-52" x="63.476562"/>
      <use xlink:href="#DejaVuSans-52" x="132.958984"/>
      <use xlink:href="#DejaVuSans-32" x="202.441406"/>
      <use xlink:href="#DejaVuSans-37" x="266.064453"/>
      <use xlink:href="#DejaVuSans-38" x="329.6875"/>
      <use xlink:href="#DejaVuSans-34" x="393.310547"/>
      <use xlink:href="#DejaVuSans-38" x="456.933594"/>
      <use xlink:href="#DejaVuSans-32" x="520.556641"/>
      <use xlink:href="#DejaVuSans-38" x="584.179688"/>
      <use xlink:href="#DejaVuSans-33" x="647.802734"/>
      <use xlink:href="#DejaVuSans-5f" x="711.425781"/>
      <use xlink:href="#DejaVuSans-32" x="761.425781"/>
     </g>
    </g>
    <g id="line2d_20">
     <path d="M 256.476562 305.319194 
L 264.476562 305.319194 
L 272.476562 305.319194 
" style="fill: none; stroke: #d9534f; stroke-linecap: square"/>
    </g>
    <g id="text_18">
     <!-- SRR27848284_1 -->
     <g transform="translate(278.876562 308.119194) scale(0.08 -0.08)">
      <use xlink:href="#DejaVuSans-53"/>
      <use xlink:href="#DejaVuSans-52" x="63.476562"/>
      <use xlink:href="#DejaVuSans-52" x="132.958984"/>
      <use xlink:href="#DejaVuSans-32" x="202.441406"/>
      <use xlink:href="#DejaVuSans-37" x="266.064453"/>
      <use xlink:href="#DejaVuSans-38" x="329.6875"/>
      <use xlink:href="#DejaVuSans-34" x="393.310547"/>
      <use xlink:href="#DejaVuSans-38" x="456.933594"/>
      <use xlink:href="#DejaVuSans-32" x="520.556641"/>
      <use xlink:href="#DejaVuSans-38" x="584.179688"/>
      <use xlink:href="#DejaVuSans-34" x="647.802734"/>
      <use xlink:href="#DejaVuSans-5f" x="711.425781"/>
      <use xlink:href="#DejaVuSans-31" x="761.425781"/>
     </g>
    </g>
    <g id="line2d_21">
     <path d="M 256.476562 317.284194 
L 264.476562 317.284194 
L 272.476562 317.284194 
" style="fill: none; stroke: #d9534f; stroke-linecap: square"/>
    </g>
    <g id="text_19">
     <!-- SRR27848284_2 -->
     <g transform="translate(278.876562 320.084194) scale(0.08 -0.08)">
      <use xlink:href="#DejaVuSans-53"/>
      <use xlink:href="#DejaVuSans-52" x="63.476562"/>
      <use xlink:href="#DejaVuSans-52" x="132.958984"/>
      <use xlink:href="#DejaVuSans-32" x="202.441406"/>
      <use xlink:href="#DejaVuSans-37" x="266.064453"/>
      <use xlink:href="#DejaVuSans-38" x="329.6875"/>
      <use xlink:href="#DejaVuSans-34" x="393.310547"/>
      <use xlink:href="#DejaVuSans-38" x="456.933594"/>
      <use xlink:href="#DejaVuSans-32" x="520.556641"/>
      <use xlink:href="#DejaVuSans-38" x="584.179688"/>
      <use xlink:href="#DejaVuSans-34" x="647.802734"/>
      <use xlink:href="#DejaVuSans-5f" x="711.425781"/>
      <use xlink:href="#DejaVuSans-32" x="761.425781"/>
     </g>
    </g>
    <g id="line2d_22">
     <path d="M 467.695 305.319194 
L 475.695 305.319194 
L 483.695 305.319194 
" style="fill: none; stroke: #d9534f; stroke-linecap: square"/>
    </g>
    <g id="text_20">
     <!-- SRR27848285_1 -->
     <g transform="translate(490.095 308.119194) scale(0.08 -0.08)">
      <defs>
       <path id="DejaVuSans-35" d="M 691 4666 
L 3169 4666 
L 3169 4134 
L 1269 4134 
L 1269 2991 
Q 1406 3038 1543 3061 
Q 1681 3084 1819 3084 
Q 2600 3084 3056 2656 
Q 3513 2228 3513 1497 
Q 3513 744 3044 326 
Q 2575 -91 1722 -91 
Q 1428 -91 1123 -41 
Q 819 9 494 109 
L 494 744 
Q 775 591 1075 516 
Q 1375 441 1709 441 
Q 2250 441 2565 725 
Q 2881 1009 2881 1497 
Q 2881 1984 2565 2268 
Q 2250 2553 1709 2553 
Q 1456 2553 1204 2497 
Q 953 2441 691 2322 
L 691 4666 
z
" transform="scale(0.015625)"/>
      </defs>
      <use xlink:href="#DejaVuSans-53"/>
      <use xlink:href="#DejaVuSans-52" x="63.476562"/>
      <use xlink:href="#DejaVuSans-52" x="132.958984"/>
      <use xlink:href="#DejaVuSans-32" x="202.441406"/>
      <use xlink:href="#DejaVuSans-37" x="266.064453"/>
      <use xlink:href="#DejaVuSans-38" x="329.6875"/>
      <use xlink:href="#DejaVuSans-34" x="393.310547"/>
      <use xlink:href="#DejaVuSans-38" x="456.933594"/>
      <use xlink:href="#DejaVuSans-32" x="520.556641"/>
      <use xlink:href="#DejaVuSans-38" x="584.179688"/>
      <use xlink:href="#DejaVuSans-35" x="647.802734"/>
      <use xlink:href="#DejaVuSans-5f" x="711.425781"/>
      <use xlink:href="#DejaVuSans-31" x="761.425781"/>
     </g>
    </g>
    <g id="line2d_23">
     <path d="M 467.695 317.284194 
L 475.695 317.284194 
L 483.695 317.284194 
" style="fill: none; stroke: #d9534f; stroke-linecap: square"/>
    </g>
    <g id="text_21">
     <!-- SRR27848285_2 -->
     <g transform="translate(490.095 320.084194) scale(0.08 -0.08)">
      <use xlink:href="#DejaVuSans-53"/>
      <use xlink:href="#DejaVuSans-52" x="63.476562"/>
      <use xlink:href="#DejaVuSans-52" x="132.958984"/>
      <use xlink:href="#DejaVuSans-32" x="202.441406"/>
      <use xlink:href="#DejaVuSans-37" x="266.064453"/>
      <use xlink:href="#DejaVuSans-38" x="329.6875"/>
      <use xlink:href="#DejaVuSans-34" x="393.310547"/>
      <use xlink:href="#DejaVuSans-38" x="456.933594"/>
      <use xlink:href="#DejaVuSans-32" x="520.556641"/>
      <use xlink:href="#DejaVuSans-38" x="584.179688"/>
      <use xlink:href="#DejaVuSans-35" x="647.802734"/>
      <use xlink:href="#DejaVuSans-5f" x="711.425781"/>
      <use xlink:href="#DejaVuSans-32" x="761.425781"/>
     </g>
    </g>
    <g id="line2d_24">
     <path d="M 678.913437 305.319194 
L 686.913437 305.319194 
L 694.913437 305.319194 
" style="fill: none; stroke: #d9534f; stroke-linecap: square"/>
    </g>
    <g id="text_22">
     <!-- SRR27848286_1 -->
     <g transform="translate(701.313437 308.119194) scale(0.08 -0.08)">
      <use xlink:href="#DejaVuSans-53"/>
      <use xlink:href="#DejaVuSans-52" x="63.476562"/>
      <use xlink:href="#DejaVuSans-52" x="132.958984"/>
      <use xlink:href="#DejaVuSans-32" x="202.441406"/>
      <use xlink:href="#DejaVuSans-37" x="266.064453"/>
      <use xlink:href="#DejaVuSans-38" x="329.6875"/>
      <use xlink:href="#DejaVuSans-34" x="393.310547"/>
      <use xlink:href="#DejaVuSans-38" x="456.933594"/>
      <use xlink:href="#DejaVuSans-32" x="520.556641"/>
      <use xlink:href="#DejaVuSans-38" x="584.179688"/>
      <use xlink:href="#DejaVuSans-36" x="647.802734"/>
      <use xlink:href="#DejaVuSans-5f" x="711.425781"/>
      <use xlink:href="#DejaVuSans-31" x="761.425781"/>
     </g>
    </g>
    <g id="line2d_25">
     <path d="M 678.913437 317.284194 
L 686.913437 317.284194 
L 694.913437 317.284194 
" style="fill: none; stroke: #d9534f; stroke-linecap: square"/>
    </g>
    <g id="text_23">
     <!-- SRR27848286_2 -->
     <g transform="translate(701.313437 320.084194) scale(0.08 -0.08)">
      <use xlink:href="#DejaVuSans-53"/>
      <use xlink:href="#DejaVuSans-52" x="63.476562"/>
      <use xlink:href="#DejaVuSans-52" x="132.958984"/>
      <use xlink:href="#DejaVuSans-32" x="202.441406"/>
      <use xlink:href="#DejaVuSans-37" x="266.064453"/>
      <use xlink:href="#DejaVuSans-38" x="329.6875"/>
      <use xlink:href="#DejaVuSans-34" x="393.310547"/>
      <use xlink:href="#DejaVuSans-38" x="456.933594"/>
      <use xlink:href="#DejaVuSans-32" x="520.556641"/>
      <use xlink:href="#DejaVuSans-38" x="584.179688"/>
      <use xlink:href="#DejaVuSans-36" x="647.802734"/>
      <use xlink:href="#DejaVuSans-5f" x="711.425781"/>
      <use xlink:href="#DejaVuSans-32" x="761.425781"/>
     </g>
    </g>
    <g id="line2d_26">
     <path d="M 890.131875 305.319194 
L 898.131875 305.319194 
L 906.131875 305.319194 
" style="fill: none; stroke: #f0ad4e; stroke-linecap: square"/>
    </g>
    <g id="text_24">
     <!-- SRR27848287_1 -->
     <g transform="translate(912.531875 308.119194) scale(0.08 -0.08)">
      <use xlink:href="#DejaVuSans-53"/>
      <use xlink:href="#DejaVuSans-52" x="63.476562"/>
      <use xlink:href="#DejaVuSans-52" x="132.958984"/>
      <use xlink:href="#DejaVuSans-32" x="202.441406"/>
      <use xlink:href="#DejaVuSans-37" x="266.064453"/>
      <use xlink:href="#DejaVuSans-38" x="329.6875"/>
      <use xlink:href="#DejaVuSans-34" x="393.310547"/>
      <use xlink:href="#DejaVuSans-38" x="456.933594"/>
      <use xlink:href="#DejaVuSans-32" x="520.556641"/>
      <use xlink:href="#DejaVuSans-38" x="584.179688"/>
      <use xlink:href="#DejaVuSans-37" x="647.802734"/>
      <use xlink:href="#DejaVuSans-5f" x="711.425781"/>
      <use xlink:href="#DejaVuSans-31" x="761.425781"/>
     </g>
    </g>
    <g id="line2d_27">
     <path d="M 890.131875 317.284194 
L 898.131875 317.284194 
L 906.131875 317.284194 
" style="fill: none; stroke: #d9534f; stroke-linecap: square"/>
    </g>
    <g id="text_25">
     <!-- SRR27848287_2 -->
     <g transform="translate(912.531875 320.084194) scale(0.08 -0.08)">
      <use xlink:href="#DejaVuSans-53"/>
      <use xlink:href="#DejaVuSans-52" x="63.476562"/>
      <use xlink:href="#DejaVuSans-52" x="132.958984"/>
      <use xlink:href="#DejaVuSans-32" x="202.441406"/>
      <use xlink:href="#DejaVuSans-37" x="266.064453"/>
      <use xlink:href="#DejaVuSans-38" x="329.6875"/>
      <use xlink:href="#DejaVuSans-34" x="393.310547"/>
      <use xlink:href="#DejaVuSans-38" x="456.933594"/>
      <use xlink:href="#DejaVuSans-32" x="520.556641"/>
      <use xlink:href="#DejaVuSans-38" x="584.179688"/>
      <use xlink:href="#DejaVuSans-37" x="647.802734"/>
      <use xlink:href="#DejaVuSans-5f" x="711.425781"/>
      <use xlink:href="#DejaVuSans-32" x="761.425781"/>
     </g>
    </g>
   </g>
  </g>
 </g>
 <defs>
  <clipPath id="p12b13268e4">
   <rect x="38.058125" y="31.55486" width="947.68" height="243.9472"/>
  </clipPath>
 </defs>
</svg>
