<?xml version="1.0" encoding="UTF-8" standalone="no"?>
<!DOCTYPE svg PUBLIC "-//W3C//DTD SVG 1.1//EN"
 "http://www.w3.org/Graphics/SVG/1.1/DTD/svg11.dtd">
<!-- Generated by graphviz version 2.43.0 (0)
 -->
<!-- Title: snakemake_dag Pages: 1 -->
<svg width="340pt" height="188pt"
 viewBox="0.00 0.00 339.50 188.00" xmlns="http://www.w3.org/2000/svg" xmlns:xlink="http://www.w3.org/1999/xlink">
<g id="graph0" class="graph" transform="scale(1 1) rotate(0) translate(4 184)">
<title>snakemake_dag</title>
<polygon fill="white" stroke="transparent" points="-4,4 -4,-184 335.5,-184 335.5,4 -4,4"/>
<!-- 0 -->
<g id="node1" class="node">
<title>0</title>
<polygon fill="#fcf3cf" stroke="black" stroke-width="2" points="205,-36 149,-36 149,0 205,0 205,-36"/>
<text text-anchor="middle" x="177" y="-15.5" font-family="sans" font-size="10.00">pipeline</text>
</g>
<!-- 1 -->
<g id="node2" class="node">
<title>1</title>
<polygon fill="#fcf3cf" stroke="black" stroke-width="2" points="56,-108 0,-108 0,-72 56,-72 56,-108"/>
<text text-anchor="middle" x="28" y="-87.5" font-family="sans" font-size="10.00">dot2svg</text>
</g>
<!-- 1&#45;&gt;0 -->
<g id="edge1" class="edge">
<title>1&#45;&gt;0</title>
<path fill="none" stroke="black" stroke-width="2" d="M56.03,-75.83C79.68,-64.72 113.73,-48.72 139.69,-36.53"/>
<polygon fill="black" stroke="black" stroke-width="2" points="141.28,-39.65 148.85,-32.23 138.31,-33.31 141.28,-39.65"/>
</g>
<!-- 3 -->
<g id="node3" class="node">
<title>3</title>
<polygon fill="#fcf3cf" stroke="black" stroke-width="2" points="181.5,-108 74.5,-108 74.5,-72 181.5,-72 181.5,-108"/>
<text text-anchor="middle" x="128" y="-87.5" font-family="sans" font-size="10.00">plotting_and_stats</text>
</g>
<!-- 3&#45;&gt;0 -->
<g id="edge2" class="edge">
<title>3&#45;&gt;0</title>
<path fill="none" stroke="black" stroke-width="2" d="M140.11,-71.7C145.87,-63.47 152.86,-53.48 159.21,-44.42"/>
<polygon fill="black" stroke="black" stroke-width="2" points="162.16,-46.3 165.03,-36.1 156.42,-42.29 162.16,-46.3"/>
</g>
<!-- 4 -->
<g id="node4" class="node">
<title>4</title>
<polygon fill="#fcf3cf" stroke="black" stroke-width="2" points="204,-180 150,-180 150,-144 204,-144 204,-180"/>
<text text-anchor="middle" x="177" y="-159.5" font-family="sans" font-size="10.00">fastqc</text>
</g>
<!-- 4&#45;&gt;3 -->
<g id="edge5" class="edge">
<title>4&#45;&gt;3</title>
<path fill="none" stroke="black" stroke-width="2" d="M164.89,-143.7C159.13,-135.47 152.14,-125.48 145.79,-116.42"/>
<polygon fill="black" stroke="black" stroke-width="2" points="148.58,-114.29 139.97,-108.1 142.84,-118.3 148.58,-114.29"/>
</g>
<!-- 6 -->
<g id="node6" class="node">
<title>6</title>
<g id="a_node6"><a xlink:href="../multiqc/multiqc_report.html" xlink:title="multiqc" target="_parent">
<polygon fill="#5499c7" stroke="black" stroke-width="2" points="254,-108 200,-108 200,-72 254,-72 254,-108"/>
<text text-anchor="middle" x="227" y="-87.5" font-family="sans" font-size="10.00">multiqc</text>
</a>
</g>
</g>
<!-- 4&#45;&gt;6 -->
<g id="edge6" class="edge">
<title>4&#45;&gt;6</title>
<path fill="none" stroke="black" stroke-width="2" d="M189.36,-143.7C195.23,-135.47 202.37,-125.48 208.84,-116.42"/>
<polygon fill="black" stroke="black" stroke-width="2" points="211.82,-118.28 214.78,-108.1 206.12,-114.21 211.82,-118.28"/>
</g>
<!-- 5 -->
<g id="node5" class="node">
<title>5</title>
<polygon fill="#fcf3cf" stroke="black" stroke-width="2" points="331.5,-108 272.5,-108 272.5,-72 331.5,-72 331.5,-108"/>
<text text-anchor="middle" x="302" y="-87.5" font-family="sans" font-size="10.00">md5sum</text>
</g>
<!-- 5&#45;&gt;0 -->
<g id="edge3" class="edge">
<title>5&#45;&gt;0</title>
<path fill="none" stroke="black" stroke-width="2" d="M272.38,-72.41C254.88,-62.61 232.58,-50.12 213.94,-39.69"/>
<polygon fill="black" stroke="black" stroke-width="2" points="215.56,-36.58 205.12,-34.75 212.14,-42.69 215.56,-36.58"/>
</g>
<!-- 6&#45;&gt;0 -->
<g id="edge4" class="edge">
<title>6&#45;&gt;0</title>
<path fill="none" stroke="black" stroke-width="2" d="M214.64,-71.7C208.77,-63.47 201.63,-53.48 195.16,-44.42"/>
<polygon fill="black" stroke="black" stroke-width="2" points="197.88,-42.21 189.22,-36.1 192.18,-46.28 197.88,-42.21"/>
</g>
</g>
</svg>
